<svg xmlns="http://www.w3.org/2000/svg" width="40" height="40" viewBox="0 0 40 40">
    <g fill="none" fill-rule="nonzero">
        <path fill="#DC6C33" d="M4.667.667h30.666a4 4 0 0 1 4 4v30.666a4 4 0 0 1-4 4H4.667a4 4 0 0 1-4-4V4.667a4 4 0 0 1 4-4z"/>
        <g fill="#FAEDBD" transform="translate(3.984 3.984)">
            <circle cx="1.682" cy="1.682" r="1.667"/>
            <circle cx="30.349" cy="1.682" r="1.667"/>
            <circle cx="1.682" cy="30.349" r="1.667"/>
            <circle cx="30.349" cy="30.349" r="1.667"/>
            <path d="M12.14 21.349h6.542c.737 0 1.334-.597 1.334-1.333V17.9c0-.353.14-.692.39-.943l.552-.552c.25-.25.59-.39.943-.39h2.229c.354 0 .693-.14.943-.39l2.552-2.553c.25-.25.39-.59.39-.943V6.568c0-.354-.14-.693-.39-.943l-2.552-2.552c-.25-.25-.59-.39-.943-.39H8.568c-.354 0-.693.14-.943.39L5.073 5.625c-.25.25-.39.59-.39.943v4.114c0 .737.596 1.334 1.333 1.334h2.666c.737 0 1.334-.597 1.334-1.334V9.235c0-.354.14-.693.39-.943l.552-.553c.25-.25.59-.39.943-.39h8.229c.354 0 .693.14.943.39l.552.553c.25.25.39.589.39.943v2.114c0 .736-.596 1.333-1.333 1.333h-3.447c-.354 0-.693.14-.943.39l-3.886 3.886c-.25.25-.39.59-.39.943v3.448M13.349 24.682h5.333c.737 0 1.334.597 1.334 1.334v2.666c0 .737-.597 1.334-1.334 1.334H13.35a1.333 1.333 0 0 1-1.333-1.334v-2.666c0-.737.597-1.334 1.333-1.334z"/>
        </g>
        <path fill="#D8F6F6" d="M4.667.667h30.666a4 4 0 0 1 4 4v30.666a4 4 0 0 1-4 4H4.667a4 4 0 0 1-4-4V4.667a4 4 0 0 1 4-4z"/>
        <path fill="#FFF" d="M4.447.667H32.8a3.864 3.864 0 0 1 3.864 3.864v30.938a3.864 3.864 0 0 1-3.864 3.864H4.447A3.864 3.864 0 0 1 .583 35.47V4.531A3.864 3.864 0 0 1 4.447.667z"/>
        <g fill="#D8F6F6" transform="translate(3.984 3.984)">
            <circle cx="1.682" cy="1.682" r="1.667"/>
            <circle cx="30.349" cy="1.682" r="1.667"/>
            <circle cx="1.682" cy="30.349" r="1.667"/>
            <circle cx="30.349" cy="30.349" r="1.667"/>
            <path d="M28.016 6.569v5.56c0 .355-.142.696-.394.947l-2.546 2.546c-.251.252-.592.393-.947.394h-2.227c-.355 0-.696.141-.946.393l-.547.547c-.252.25-.393.591-.393.946v2.114a1.337 1.337 0 0 1-1.334 1.333h-6.666v-3.447c0-.355.141-.696.393-.946l3.88-3.88c.25-.252.591-.393.947-.394h3.446a1.337 1.337 0 0 0 1.334-1.333V9.236c0-.356-.142-.696-.394-.947l-.546-.547a1.338 1.338 0 0 0-.947-.393h-8.227c-.355 0-.696.142-.946.393l-.547.547c-.252.25-.393.591-.393.947v1.446a1.337 1.337 0 0 1-1.334 1.334H6.016a1.337 1.337 0 0 1-1.334-1.334V6.57c0-.355.142-.696.394-.947l2.546-2.546c.251-.252.592-.393.947-.394h15.56c.355 0 .696.142.947.394l2.546 2.546c.252.251.393.592.394.947zM13.349 24.682h5.333c.737 0 1.334.597 1.334 1.334v2.666c0 .737-.597 1.334-1.334 1.334H13.35a1.333 1.333 0 0 1-1.333-1.334v-2.666c0-.737.597-1.334 1.333-1.334z"/>
        </g>
        <g fill="#FFF">
            <path d="M29.333 10.553v5.56c0 .356-.141.696-.393.947l-2.547 2.547c-.25.251-.591.393-.946.393H23.22c-.355 0-.696.142-.947.393l-.546.547c-.252.25-.393.591-.394.947V24A1.337 1.337 0 0 1 20 25.333h-4v-3.446c0-.356.142-.696.393-.947l3.88-3.88c.251-.252.592-.393.947-.393h3.447A1.337 1.337 0 0 0 26 15.333V13.22c0-.355-.142-.696-.393-.947l-.547-.546a1.338 1.338 0 0 0-.947-.394H13.22c-.355 0-.696.142-.947.394l-.546.546c-.252.251-.393.592-.394.947v1.447a1.333 1.333 0 1 1-2.666 0v-4.114c0-.355.141-.696.393-.946l2.547-2.547c.25-.252.591-.393.946-.393h12.894c.355 0 .696.141.946.393l2.547 2.547c.252.25.393.591.393.946zM17.333 28.667H20c.736 0 1.333.597 1.333 1.333v2.667c0 .736-.597 1.333-1.333 1.333h-2.667A1.333 1.333 0 0 1 16 32.667V30c0-.736.597-1.333 1.333-1.333z"/>
        </g>
        <g fill="#52489C">
            <path d="M35.333 0H4.667A4.672 4.672 0 0 0 0 4.667v30.666A4.672 4.672 0 0 0 4.667 40h30.666A4.672 4.672 0 0 0 40 35.333V4.667A4.672 4.672 0 0 0 35.333 0zm3.334 35.333a3.337 3.337 0 0 1-3.334 3.334H4.667a3.337 3.337 0 0 1-3.334-3.334V4.667a3.337 3.337 0 0 1 3.334-3.334h30.666a3.337 3.337 0 0 1 3.334 3.334v30.666z"/>
            <path d="M5.667 8a2.333 2.333 0 1 0 0-4.667 2.333 2.333 0 0 0 0 4.667zm0-3.333a1 1 0 1 1 0 2 1 1 0 0 1 0-2zM34.333 3.333a2.333 2.333 0 1 0 0 4.667 2.333 2.333 0 0 0 0-4.667zm0 3.334a1 1 0 1 1 0-2 1 1 0 0 1 0 2zM5.667 32a2.333 2.333 0 1 0 0 4.667 2.333 2.333 0 0 0 0-4.667zm0 3.333a1 1 0 1 1 0-2 1 1 0 0 1 0 2zM34.333 32a2.333 2.333 0 1 0 0 4.667 2.333 2.333 0 0 0 0-4.667zm0 3.333a1 1 0 1 1 0-2 1 1 0 0 1 0 2zM32.667 16.114v-5.562c.001-.53-.21-1.04-.586-1.414l-2.552-2.552A1.987 1.987 0 0 0 28.114 6H12.552c-.53-.001-1.04.21-1.414.586L8.586 9.138A1.987 1.987 0 0 0 8 10.552v4.115a2.002 2.002 0 0 0 2 2h2.667a2.002 2.002 0 0 0 2-2v-1.448c0-.177.07-.347.195-.472l.552-.552a.663.663 0 0 1 .472-.195h8.228c.177 0 .347.07.472.195l.552.552a.663.663 0 0 1 .195.472v2.114a.668.668 0 0 1-.666.667h-3.448c-.53-.002-1.04.21-1.414.586l-3.886 3.885a1.987 1.987 0 0 0-.586 1.415v3.447a.674.674 0 0 0 .73.664c.02.002.04.003.062.003h6.542a2.002 2.002 0 0 0 2-2v-2.114c0-.177.07-.347.195-.472l.552-.552a.663.663 0 0 1 .472-.196h2.228c.531.002 1.04-.21 1.415-.586l2.552-2.552c.376-.374.587-.883.586-1.414zm-1.334 0c0 .177-.07.347-.195.472l-2.552 2.552a.663.663 0 0 1-.472.195h-2.228c-.531-.001-1.04.21-1.415.586l-.552.552a1.987 1.987 0 0 0-.586 1.415V24a.668.668 0 0 1-.666.667h-6v-2.781c0-.177.07-.347.195-.472l3.885-3.885a.663.663 0 0 1 .472-.196h3.448a2.002 2.002 0 0 0 2-2V13.22c.001-.53-.21-1.04-.586-1.414l-.552-.553a1.987 1.987 0 0 0-1.415-.585h-8.228c-.531-.002-1.04.21-1.415.585l-.552.553a1.987 1.987 0 0 0-.586 1.414v1.448a.668.668 0 0 1-.666.666H10a.668.668 0 0 1-.667-.666v-4.115c0-.177.07-.347.196-.471l2.552-2.552a.663.663 0 0 1 .471-.196h15.562c.177 0 .347.07.472.196l2.552 2.552a.663.663 0 0 1 .195.471v5.562zM22.667 28h-5.334a2.002 2.002 0 0 0-2 2v2.667a2.002 2.002 0 0 0 2 2h5.334a2.002 2.002 0 0 0 2-2V30a2.002 2.002 0 0 0-2-2zm.666 4.667a.668.668 0 0 1-.666.666h-5.334a.668.668 0 0 1-.666-.666V30c0-.368.298-.666.666-.667h5.334c.368 0 .666.299.666.667v2.667z"/>
        </g>
    </g>
</svg>
