<?xml version="1.0" encoding="UTF-8" standalone="no"?>
<svg width="40px" height="38px" viewBox="0 0 40 38" version="1.1" xmlns="http://www.w3.org/2000/svg" xmlns:xlink="http://www.w3.org/1999/xlink">
    <!-- Generator: Sketch 50 (54983) - http://www.bohemiancoding.com/sketch -->
    <title>calendar</title>
    <desc>Created with Sketch.</desc>
    <defs></defs>
    <g id="Page-1" stroke="none" stroke-width="1" fill="none" fill-rule="evenodd">
        <g id="Powercode-Academy-Landing-Test" transform="translate(-873.000000, -2206.000000)" fill-rule="nonzero">
            <g id="COURSES" transform="translate(0.000000, 1757.000000)">
                <g id="cell-Copy" transform="translate(780.000000, 194.000000)">
                    <g id="calendar" transform="translate(93.000000, 255.000000)">
                        <polygon id="Shape" fill="#D8F6F6" points="35.3333333 6 32.6666667 6 32.6666667 3.33333333 7.33333333 3.33333333 7.33333333 6 4.66666667 6 4.66666667 3.33333333 0.666666667 3.33333333 0.666666667 10 39.3333333 10 39.3333333 3.33333333 35.3333333 3.33333333"></polygon>
                        <g id="Group" transform="translate(4.666667, 0.666667)" fill="#FFFFFF">
                            <polygon id="Shape" points="2.66666667 5.33333333 2.66666667 2.66666667 2.66666667 0 0 0 0 2.66666667 0 5.33333333"></polygon>
                            <polygon id="Shape" points="30.6666667 5.33333333 30.6666667 2.66666667 30.6666667 0 28 0 28 2.66666667 28 5.33333333"></polygon>
                        </g>
                        <g id="Group" transform="translate(5.333333, 14.000000)" fill="#D8F6F6">
                            <circle id="Oval" cx="1.33333333" cy="1.33333333" r="1.33333333"></circle>
                            <circle id="Oval" cx="10" cy="1.33333333" r="1.33333333"></circle>
                            <circle id="Oval" cx="19.3333333" cy="1.33333333" r="1.33333333"></circle>
                            <circle id="Oval" cx="1.33333333" cy="9.33333333" r="1.33333333"></circle>
                            <circle id="Oval" cx="19.3333333" cy="9.33333333" r="1.33333333"></circle>
                            <circle id="Oval" cx="28" cy="9.33333333" r="1.33333333"></circle>
                            <circle id="Oval" cx="1.33333333" cy="17.3333333" r="1.33333333"></circle>
                            <circle id="Oval" cx="10" cy="17.3333333" r="1.33333333"></circle>
                            <circle id="Oval" cx="19.3333333" cy="17.3333333" r="1.33333333"></circle>
                        </g>
                        <g id="Group" fill="#52489C">
                            <path d="M39.3333333,2.66666667 L36,2.66666667 L36,0.666666667 C36,0.2985 35.7015,0 35.3333333,0 L32.6666667,0 C32.2985,0 32,0.2985 32,0.666666667 L32,2.66666667 L8,2.66666667 L8,0.666666667 C8,0.2985 7.7015,0 7.33333333,0 L4.66666667,0 C4.2985,0 4,0.2985 4,0.666666667 L4,2.66666667 L0.666666667,2.66666667 C0.2985,2.66666667 0,2.96516667 0,3.33333333 L0,36.6666667 C0,37.0348333 0.2985,37.3333333 0.666666667,37.3333333 L39.3333333,37.3333333 C39.7015,37.3333333 40,37.0348333 40,36.6666667 L40,3.33333333 C40,2.96516667 39.7015,2.66666667 39.3333333,2.66666667 Z M33.3333333,1.33333333 L34.6666667,1.33333333 L34.6666667,5.33333333 L33.3333333,5.33333333 L33.3333333,1.33333333 Z M5.33333333,1.33333333 L6.66666667,1.33333333 L6.66666667,5.33333333 L5.33333333,5.33333333 L5.33333333,1.33333333 Z M1.33333333,4 L4,4 L4,6 C4,6.36816667 4.2985,6.66666667 4.66666667,6.66666667 L7.33333333,6.66666667 C7.7015,6.66666667 8,6.36816667 8,6 L8,4 L32,4 L32,6 C32,6.36816667 32.2985,6.66666667 32.6666667,6.66666667 L35.3333333,6.66666667 C35.7015,6.66666667 36,6.36816667 36,6 L36,4 L38.6666667,4 L38.6666667,9.33333333 L1.33333333,9.33333333 L1.33333333,4 Z M1.33333333,36 L1.33333333,10.6666667 L38.6666667,10.6666667 L38.6666667,36 L1.33333333,36 Z" id="Shape"></path>
                            <path d="M6.66666667,13.3333333 C5.56208333,13.3333333 4.66666667,14.22875 4.66666667,15.3333333 C4.66666667,16.4379167 5.56208333,17.3333333 6.66666667,17.3333333 C7.77125,17.3333333 8.66666667,16.4379167 8.66666667,15.3333333 C8.66666667,14.22875 7.77125,13.3333333 6.66666667,13.3333333 Z M6.66666667,16 C6.2985,16 6,15.7015 6,15.3333333 C6,14.9651667 6.2985,14.6666667 6.66666667,14.6666667 C7.03483333,14.6666667 7.33333333,14.9651667 7.33333333,15.3333333 C7.33333333,15.7015 7.03483333,16 6.66666667,16 Z" id="Shape"></path>
                            <path d="M15.3333333,13.3333333 C14.22875,13.3333333 13.3333333,14.22875 13.3333333,15.3333333 C13.3333333,16.4379167 14.22875,17.3333333 15.3333333,17.3333333 C16.4379167,17.3333333 17.3333333,16.4379167 17.3333333,15.3333333 C17.3333333,14.22875 16.4379167,13.3333333 15.3333333,13.3333333 Z M15.3333333,16 C14.9651667,16 14.6666667,15.7015 14.6666667,15.3333333 C14.6666667,14.9651667 14.9651667,14.6666667 15.3333333,14.6666667 C15.7015,14.6666667 16,14.9651667 16,15.3333333 C16,15.7015 15.7015,16 15.3333333,16 Z" id="Shape"></path>
                            <path d="M24.6666667,13.3333333 C23.5620833,13.3333333 22.6666667,14.22875 22.6666667,15.3333333 C22.6666667,16.4379167 23.5620833,17.3333333 24.6666667,17.3333333 C25.77125,17.3333333 26.6666667,16.4379167 26.6666667,15.3333333 C26.6666667,14.22875 25.77125,13.3333333 24.6666667,13.3333333 Z M24.6666667,16 C24.2985,16 24,15.7015 24,15.3333333 C24,14.9651667 24.2985,14.6666667 24.6666667,14.6666667 C25.0348333,14.6666667 25.3333333,14.9651667 25.3333333,15.3333333 C25.3333333,15.7015 25.0348333,16 24.6666667,16 Z" id="Shape"></path>
                            <path d="M6.66666667,21.3333333 C5.56208333,21.3333333 4.66666667,22.22875 4.66666667,23.3333333 C4.66666667,24.4379167 5.56208333,25.3333333 6.66666667,25.3333333 C7.77125,25.3333333 8.66666667,24.4379167 8.66666667,23.3333333 C8.66666667,22.22875 7.77125,21.3333333 6.66666667,21.3333333 Z M6.66666667,24 C6.2985,24 6,23.7015 6,23.3333333 C6,22.9651667 6.2985,22.6666667 6.66666667,22.6666667 C7.03483333,22.6666667 7.33333333,22.9651667 7.33333333,23.3333333 C7.33333333,23.7015 7.03483333,24 6.66666667,24 Z" id="Shape"></path>
                            <path d="M24.6666667,21.3333333 C23.5620833,21.3333333 22.6666667,22.22875 22.6666667,23.3333333 C22.6666667,24.4379167 23.5620833,25.3333333 24.6666667,25.3333333 C25.77125,25.3333333 26.6666667,24.4379167 26.6666667,23.3333333 C26.6666667,22.22875 25.77125,21.3333333 24.6666667,21.3333333 Z M24.6666667,24 C24.2985,24 24,23.7015 24,23.3333333 C24,22.9651667 24.2985,22.6666667 24.6666667,22.6666667 C25.0348333,22.6666667 25.3333333,22.9651667 25.3333333,23.3333333 C25.3333333,23.7015 25.0348333,24 24.6666667,24 Z" id="Shape"></path>
                            <path d="M33.3333333,21.3333333 C32.22875,21.3333333 31.3333333,22.22875 31.3333333,23.3333333 C31.3333333,24.4379167 32.22875,25.3333333 33.3333333,25.3333333 C34.4379167,25.3333333 35.3333333,24.4379167 35.3333333,23.3333333 C35.3333333,22.22875 34.4379167,21.3333333 33.3333333,21.3333333 Z M33.3333333,24 C32.9651667,24 32.6666667,23.7015 32.6666667,23.3333333 C32.6666667,22.9651667 32.9651667,22.6666667 33.3333333,22.6666667 C33.7015,22.6666667 34,22.9651667 34,23.3333333 C34,23.7015 33.7015,24 33.3333333,24 Z" id="Shape"></path>
                            <path d="M6.66666667,29.3333333 C5.56208333,29.3333333 4.66666667,30.22875 4.66666667,31.3333333 C4.66666667,32.4379167 5.56208333,33.3333333 6.66666667,33.3333333 C7.77125,33.3333333 8.66666667,32.4379167 8.66666667,31.3333333 C8.66666667,30.22875 7.77125,29.3333333 6.66666667,29.3333333 Z M6.66666667,32 C6.2985,32 6,31.7015 6,31.3333333 C6,30.9651667 6.2985,30.6666667 6.66666667,30.6666667 C7.03483333,30.6666667 7.33333333,30.9651667 7.33333333,31.3333333 C7.33333333,31.7015 7.03483333,32 6.66666667,32 Z" id="Shape"></path>
                            <path d="M15.3333333,29.3333333 C14.22875,29.3333333 13.3333333,30.22875 13.3333333,31.3333333 C13.3333333,32.4379167 14.22875,33.3333333 15.3333333,33.3333333 C16.4379167,33.3333333 17.3333333,32.4379167 17.3333333,31.3333333 C17.3333333,30.22875 16.4379167,29.3333333 15.3333333,29.3333333 Z M15.3333333,32 C14.9651667,32 14.6666667,31.7015 14.6666667,31.3333333 C14.6666667,30.9651667 14.9651667,30.6666667 15.3333333,30.6666667 C15.7015,30.6666667 16,30.9651667 16,31.3333333 C16,31.7015 15.7015,32 15.3333333,32 Z" id="Shape"></path>
                            <path d="M24.6666667,29.3333333 C23.5620833,29.3333333 22.6666667,30.22875 22.6666667,31.3333333 C22.6666667,32.4379167 23.5620833,33.3333333 24.6666667,33.3333333 C25.77125,33.3333333 26.6666667,32.4379167 26.6666667,31.3333333 C26.6666667,30.22875 25.77125,29.3333333 24.6666667,29.3333333 Z M24.6666667,32 C24.2985,32 24,31.7015 24,31.3333333 C24,30.9651667 24.2985,30.6666667 24.6666667,30.6666667 C25.0348333,30.6666667 25.3333333,30.9651667 25.3333333,31.3333333 C25.3333333,31.7015 25.0348333,32 24.6666667,32 Z" id="Shape"></path>
                            <polygon id="Shape" points="32.3906667 17.2186667 33.3333333 16.276 34.276 17.2186667 35.2186667 16.276 34.276 15.3333333 35.2186667 14.3906667 34.276 13.448 33.3333333 14.3906667 32.3906667 13.448 31.448 14.3906667 32.3906667 15.3333333 31.448 16.276"></polygon>
                            <polygon id="Shape" points="34.276 29.448 33.3333333 30.3906667 32.3906667 29.448 31.448 30.3906667 32.3906667 31.3333333 31.448 32.276 32.3906667 33.2186667 33.3333333 32.276 34.276 33.2186667 35.2186667 32.276 34.276 31.3333333 35.2186667 30.3906667"></polygon>
                            <polygon id="Shape" points="14.3906667 25.2186667 15.3333333 24.276 16.276 25.2186667 17.2186667 24.276 16.276 23.3333333 17.2186667 22.3906667 16.276 21.448 15.3333333 22.3906667 14.3906667 21.448 13.448 22.3906667 14.3906667 23.3333333 13.448 24.276"></polygon>
                        </g>
                    </g>
                </g>
            </g>
        </g>
    </g>
</svg>