<?xml version="1.0" encoding="UTF-8" standalone="no"?>
<svg width="64px" height="64px" viewBox="0 0 64 64" version="1.1" xmlns="http://www.w3.org/2000/svg" xmlns:xlink="http://www.w3.org/1999/xlink">
    <!-- Generator: Sketch 50.2 (55047) - http://www.bohemiancoding.com/sketch -->
    <title>chat</title>
    <desc>Created with Sketch.</desc>
    <defs>
        <path d="M32,13.3333333 C20.972,13.3333333 12,21.408 12,31.3333333 C12,34.8026667 13.0973333,38.1633333 15.1786667,41.0693333 C14.7846667,45.4273333 13.7286667,48.6626667 12.1953333,50.1953333 C11.9926667,50.398 11.942,50.708 12.07,50.964 C12.1833333,51.1926667 12.4166667,51.3333333 12.6666667,51.3333333 C12.6973333,51.3333333 12.728,51.3313333 12.7593333,51.3266667 C13.0293333,51.2886667 19.3013333,50.386 23.838,47.7673333 C26.414,48.8066667 29.158,49.3333333 32,49.3333333 C43.028,49.3333333 52,41.2586667 52,31.3333333 C52,21.408 43.028,13.3333333 32,13.3333333 Z" id="path-1"></path>
        <filter x="-17.5%" y="-13.2%" width="135.0%" height="136.8%" filterUnits="objectBoundingBox" id="filter-2">
            <feOffset dx="0" dy="2" in="SourceAlpha" result="shadowOffsetOuter1"></feOffset>
            <feGaussianBlur stdDeviation="2" in="shadowOffsetOuter1" result="shadowBlurOuter1"></feGaussianBlur>
            <feColorMatrix values="0 0 0 0 0   0 0 0 0 0   0 0 0 0 0  0 0 0 0.326964447 0" type="matrix" in="shadowBlurOuter1"></feColorMatrix>
        </filter>
    </defs>
    <g id="Page-1" stroke="none" stroke-width="1" fill="none" fill-rule="evenodd">
        <g id="Powercode-Academy-Landing-333" transform="translate(-1466.000000, -638.000000)">
            <g id="chat" transform="translate(1466.000000, 638.000000)">
                <circle id="Oval-2" fill="#FF9090" cx="32" cy="32" r="32"></circle>
                <g id="Shape" fill-rule="nonzero">
                    <use fill="black" fill-opacity="1" filter="url(#filter-2)" xlink:href="#path-1"></use>
                    <use fill="#FFFFFF" fill-rule="evenodd" xlink:href="#path-1"></use>
                </g>
                <path d="M22.6666667,34 C21.196,34 20,32.804 20,31.3333333 C20,29.8626667 21.196,28.6666667 22.6666667,28.6666667 C24.1373333,28.6666667 25.3333333,29.8626667 25.3333333,31.3333333 C25.3333333,32.804 24.1373333,34 22.6666667,34 Z" id="Path" fill="#FFB490"></path>
                <path d="M32,34 C30.5293333,34 29.3333333,32.804 29.3333333,31.3333333 C29.3333333,29.8626667 30.5293333,28.6666667 32,28.6666667 C33.4706667,28.6666667 34.6666667,29.8626667 34.6666667,31.3333333 C34.6666667,32.804 33.4706667,34 32,34 Z" id="Path" fill="#FFB490"></path>
                <path d="M41.3333333,34 C39.8626667,34 38.6666667,32.804 38.6666667,31.3333333 C38.6666667,29.8626667 39.8626667,28.6666667 41.3333333,28.6666667 C42.804,28.6666667 44,29.8626667 44,31.3333333 C44,32.804 42.804,34 41.3333333,34 Z" id="Path" fill="#FFB490"></path>
            </g>
        </g>
    </g>
</svg>