<?xml version="1.0" encoding="UTF-8" standalone="no"?>
<svg width="48px" height="48px" viewBox="0 0 48 48" version="1.1" xmlns="http://www.w3.org/2000/svg" xmlns:xlink="http://www.w3.org/1999/xlink">
    <!-- Generator: Sketch 50 (54983) - http://www.bohemiancoding.com/sketch -->
    <title>clock</title>
    <desc>Created with Sketch.</desc>
    <defs></defs>
    <g id="Page-1" stroke="none" stroke-width="1" fill="none" fill-rule="evenodd">
        <g id="Powercode-Academy-Landing-Test" transform="translate(-1202.000000, -2940.000000)" fill="#D8F6F6" fill-rule="nonzero">
            <g id="Group-7" transform="translate(403.000000, 2912.000000)">
                <g id="clock" transform="translate(799.000000, 28.000000)">
                    <path d="M40.9705532,7.02944681 C36.437617,2.49640851 30.4106553,0 24,0 C17.5893447,0 11.562383,2.49640851 7.02944681,7.02944681 C2.49640851,11.5624851 0,17.5893447 0,24 C0,30.4106553 2.49640851,36.437617 7.02944681,40.9705532 C11.562383,45.5035915 17.5893447,48 24,48 C30.4106553,48 36.437617,45.5035915 40.9705532,40.9705532 C45.5035915,36.437617 48,30.4106553 48,24 C48,17.5893447 45.5035915,11.5624851 40.9705532,7.02944681 Z M24,46.4680851 C11.6109957,46.4680851 1.53191489,36.3890043 1.53191489,24 C1.53191489,11.6110979 11.6109957,1.53191489 24,1.53191489 C36.3890043,1.53191489 46.4680851,11.6110979 46.4680851,24 C46.4680851,36.3890043 36.3890043,46.4680851 24,46.4680851 Z" id="Shape"></path>
                    <path d="M24,10.7234043 C24.4230128,10.7234043 24.7659574,10.3804596 24.7659574,9.95744681 L24.7659574,6.89361702 C24.7659574,6.47060426 24.4230128,6.12765957 24,6.12765957 C23.5769872,6.12765957 23.2340426,6.47060426 23.2340426,6.89361702 L23.2340426,9.95744681 C23.2340426,10.3804596 23.5769872,10.7234043 24,10.7234043 Z" id="Shape"></path>
                    <path d="M41.8723404,24 C41.8723404,23.5769872 41.5293957,23.2340426 41.106383,23.2340426 L38.0425532,23.2340426 C37.6195404,23.2340426 37.2765957,23.5769872 37.2765957,24 C37.2765957,24.4230128 37.6195404,24.7659574 38.0425532,24.7659574 L41.106383,24.7659574 C41.5293957,24.7659574 41.8723404,24.4230128 41.8723404,24 Z" id="Shape"></path>
                    <path d="M24,37.2765957 C23.5769872,37.2765957 23.2340426,37.6195404 23.2340426,38.0425532 L23.2340426,41.106383 C23.2340426,41.5293957 23.5769872,41.8723404 24,41.8723404 C24.4230128,41.8723404 24.7659574,41.5293957 24.7659574,41.106383 L24.7659574,38.0425532 C24.7659574,37.6195404 24.4230128,37.2765957 24,37.2765957 Z" id="Shape"></path>
                    <path d="M9.95744681,23.2340426 L6.89361702,23.2340426 C6.47060426,23.2340426 6.12765957,23.5769872 6.12765957,24 C6.12765957,24.4230128 6.47060426,24.7659574 6.89361702,24.7659574 L9.95744681,24.7659574 C10.3804596,24.7659574 10.7234043,24.4230128 10.7234043,24 C10.7234043,23.5769872 10.3804596,23.2340426 9.95744681,23.2340426 Z" id="Shape"></path>
                    <path d="M34.4711489,11.3623149 C34.3275574,11.2187234 34.1326979,11.1379404 33.929566,11.1379404 C33.726434,11.1379404 33.5315745,11.2186213 33.387983,11.3623149 L25.6246468,19.1256511 C25.325617,19.4246809 25.3255149,19.9094809 25.6243404,20.2086128 C25.9236766,20.5080511 26.4086809,20.5080511 26.7078128,20.2089191 L33.9294638,12.987166 L35.0127319,14.070434 L26.4513702,22.6317957 C26.0613447,21.9357957 25.3839319,21.4217872 24.5805957,21.2521532 C24.5485277,21.2454128 24.5160511,21.2396936 24.4836766,21.2339745 L17.861617,14.6119149 C17.5624851,14.312783 17.0774809,14.312783 16.7784511,14.6119149 L14.612017,16.7783489 C14.3128851,17.0774809 14.3128851,17.5624851 14.612017,17.8615149 L21.2340766,24.4835745 C21.2892255,24.7995574 21.3970723,25.097566 21.5486298,25.3681021 L13.5335489,33.383183 C13.234417,33.6823149 13.234417,34.1673191 13.5335489,34.4663489 C13.6830638,34.6158638 13.8791489,34.6907234 14.0751319,34.6907234 C14.2711149,34.6907234 14.4672,34.615966 14.6167149,34.4663489 L22.6317957,26.4512681 C23.0369362,26.6782979 23.5034553,26.8083064 24,26.8083064 C25.3836255,26.8083064 26.5359319,25.8023489 26.7659234,24.4835745 L36.637583,14.6119149 C36.9367149,14.312783 36.9367149,13.8277787 36.637583,13.5287489 L34.4711489,11.3623149 Z M22.6317957,21.5485277 C22.1784511,21.8025191 21.8025191,22.1784511 21.5485277,22.6317957 L16.2368681,17.3201362 L17.3201362,16.2368681 L22.6317957,21.5485277 Z M22.7234043,24 C22.7234043,23.296034 23.296034,22.7234043 24,22.7234043 C24.703966,22.7234043 25.2765957,23.296034 25.2765957,24 C25.2765957,24.703966 24.703966,25.2765957 24,25.2765957 C23.296034,25.2765957 22.7234043,24.703966 22.7234043,24 Z" id="Shape"></path>
                    <path d="M24,3.06382979 C12.4556936,3.06382979 3.06382979,12.4557957 3.06382979,24 C3.06382979,35.5443064 12.4556936,44.9361702 24,44.9361702 C28.9955745,44.9361702 33.8362213,43.1400511 37.6304681,39.8785021 C37.9512511,39.6027574 37.9878128,39.1190809 37.711966,38.7982979 C37.7086979,38.794417 37.7049191,38.7911489 37.7015489,38.7873702 C37.4241702,38.4772085 36.948766,38.4444255 36.6317617,38.7168 C33.1154043,41.7395745 28.6293447,43.4042553 24,43.4042553 C13.3004936,43.4042553 4.59574468,34.6995064 4.59574468,24 C4.59574468,13.3004936 13.3004936,4.59574468 24,4.59574468 C34.6995064,4.59574468 43.4042553,13.3004936 43.4042553,24 C43.4042553,28.6293447 41.7395745,33.1154043 38.7168,36.6318638 C38.4443234,36.948766 38.4772085,37.4242723 38.7873702,37.7016511 C38.7911489,37.7050213 38.794417,37.7086979 38.7982979,37.7120681 C39.1192851,37.9878128 39.6027574,37.9512511 39.8785021,37.6305702 C43.1400511,33.8362213 44.9361702,28.9955745 44.9361702,24 C44.9361702,12.4557957 35.5443064,3.06382979 24,3.06382979 Z" id="Shape"></path>
                </g>
            </g>
        </g>
    </g>
</svg>