<?xml version="1.0" encoding="UTF-8" standalone="no"?>
<svg width="40px" height="40px" viewBox="0 0 40 40" version="1.1" xmlns="http://www.w3.org/2000/svg" xmlns:xlink="http://www.w3.org/1999/xlink">
    <!-- Generator: Sketch 50 (54983) - http://www.bohemiancoding.com/sketch -->
    <title>clock</title>
    <desc>Created with Sketch.</desc>
    <defs></defs>
    <g id="Page-1" stroke="none" stroke-width="1" fill="none" fill-rule="evenodd">
        <g id="Powercode-Academy-Landing-Test" transform="translate(-1006.000000, -2204.000000)" fill-rule="nonzero">
            <g id="COURSES" transform="translate(0.000000, 1757.000000)">
                <g id="cell-Copy" transform="translate(780.000000, 194.000000)">
                    <g id="clock" transform="translate(226.000000, 253.000000)">
                        <path d="M17.9571064,18.8598298 C18.168766,18.4820426 18.4820426,18.168766 18.8598298,17.9571064 L14.4334468,13.5307234 L13.5307234,14.4334468 L17.9571064,18.8598298 Z" id="Shape" fill="#D8F6F6"></path>
                        <path d="M22.0428936,18.8598298 L29.1773617,11.7253617 L28.2746383,10.8226383 L22.2565957,16.840766 C22.0073191,17.0900426 21.6031489,17.0900426 21.3539574,16.840766 C21.3537021,16.8405106 20.484,17.7102128 20.484,17.7102128 C21.1533617,17.8514894 21.7178723,18.2798298 22.0428936,18.8598298 Z" id="Shape" fill="#D8F6F6"></path>
                        <path d="M20,1.27659574 C9.67582979,1.27659574 1.27659574,9.67591489 1.27659574,20 C1.27659574,30.3241702 9.67582979,38.7234043 20,38.7234043 C30.3241702,38.7234043 38.7234043,30.3241702 38.7234043,20 C38.7234043,9.67591489 30.3241702,1.27659574 20,1.27659574 Z M33.2320851,31.3587234 C33.0022979,31.6260426 32.5994043,31.6565106 32.3319149,31.4266383 C32.3286809,31.4239149 32.3259574,31.420766 32.3228085,31.4179574 C32.0326809,31.7308085 31.7308936,32.0326809 31.4179574,32.3227234 C31.420766,32.3258723 31.4238298,32.3285957 31.4266383,32.3318298 C31.6564255,32.5991489 31.6260426,33.0021277 31.3587234,33.232 C28.1968511,35.9500426 24.1629787,37.4468085 20,37.4468085 C10.3797447,37.4468085 2.55319149,29.6202553 2.55319149,20 C2.55319149,10.3798298 10.3797447,2.55319149 20,2.55319149 C29.6202553,2.55319149 37.4468085,10.3798298 37.4468085,20 C37.4468085,24.1629787 35.9500426,28.1968511 33.2320851,31.3587234 Z" id="Shape" fill="#D8F6F6"></path>
                        <path d="M34.1421277,5.85787234 C30.3646809,2.08034043 25.3422128,0 20,0 C14.6577872,0 9.63531915,2.08034043 5.85787234,5.85787234 C2.08034043,9.63540426 0,14.6577872 0,20 C0,25.3422128 2.08034043,30.3646809 5.85787234,34.1421277 C9.63531915,37.9196596 14.6577872,40 20,40 C25.3422128,40 30.3646809,37.9196596 34.1421277,34.1421277 C37.9196596,30.3646809 40,25.3422128 40,20 C40,14.6577872 37.9196596,9.63540426 34.1421277,5.85787234 Z M20,38.7234043 C9.67582979,38.7234043 1.27659574,30.3241702 1.27659574,20 C1.27659574,9.67591489 9.67582979,1.27659574 20,1.27659574 C30.3241702,1.27659574 38.7234043,9.67591489 38.7234043,20 C38.7234043,30.3241702 30.3241702,38.7234043 20,38.7234043 Z" id="Shape" fill="#52489C"></path>
                        <path d="M20,8.93617021 C20.3525106,8.93617021 20.6382979,8.65038298 20.6382979,8.29787234 L20.6382979,5.74468085 C20.6382979,5.39217021 20.3525106,5.10638298 20,5.10638298 C19.6474894,5.10638298 19.3617021,5.39217021 19.3617021,5.74468085 L19.3617021,8.29787234 C19.3617021,8.65038298 19.6474894,8.93617021 20,8.93617021 Z" id="Shape" fill="#52489C"></path>
                        <path d="M34.893617,20 C34.893617,19.6474894 34.6078298,19.3617021 34.2553191,19.3617021 L31.7021277,19.3617021 C31.349617,19.3617021 31.0638298,19.6474894 31.0638298,20 C31.0638298,20.3525106 31.349617,20.6382979 31.7021277,20.6382979 L34.2553191,20.6382979 C34.6078298,20.6382979 34.893617,20.3525106 34.893617,20 Z" id="Shape" fill="#52489C"></path>
                        <path d="M20,31.0638298 C19.6474894,31.0638298 19.3617021,31.349617 19.3617021,31.7021277 L19.3617021,34.2553191 C19.3617021,34.6078298 19.6474894,34.893617 20,34.893617 C20.3525106,34.893617 20.6382979,34.6078298 20.6382979,34.2553191 L20.6382979,31.7021277 C20.6382979,31.349617 20.3525106,31.0638298 20,31.0638298 Z" id="Shape" fill="#52489C"></path>
                        <path d="M8.29787234,19.3617021 L5.74468085,19.3617021 C5.39217021,19.3617021 5.10638298,19.6474894 5.10638298,20 C5.10638298,20.3525106 5.39217021,20.6382979 5.74468085,20.6382979 L8.29787234,20.6382979 C8.65038298,20.6382979 8.93617021,20.3525106 8.93617021,20 C8.93617021,19.6474894 8.65038298,19.3617021 8.29787234,19.3617021 Z" id="Shape" fill="#52489C"></path>
                        <path d="M28.7259574,9.46859574 C28.6062979,9.34893617 28.4439149,9.28161702 28.2746383,9.28161702 C28.1053617,9.28161702 27.9429787,9.34885106 27.8233191,9.46859574 L21.3538723,15.9380426 C21.1046809,16.187234 21.1045957,16.591234 21.353617,16.8405106 C21.6030638,17.0900426 22.007234,17.0900426 22.2565106,16.840766 L28.2745532,10.8226383 L29.1772766,11.7253617 L22.0428085,18.8598298 C21.7177872,18.2798298 21.1532766,17.8514894 20.4838298,17.7101277 C20.4571064,17.7045106 20.4300426,17.6997447 20.4030638,17.6949787 L14.8846809,12.1765957 C14.6354043,11.9273191 14.231234,11.9273191 13.9820426,12.1765957 L12.1766809,13.9819574 C11.9274043,14.231234 11.9274043,14.6354043 12.1766809,14.8845957 L17.6950638,20.4029787 C17.7410213,20.6662979 17.8308936,20.9146383 17.9571915,21.1400851 L11.2779574,27.8193191 C11.0286809,28.0685957 11.0286809,28.472766 11.2779574,28.7219574 C11.4025532,28.8465532 11.5659574,28.9089362 11.7292766,28.9089362 C11.8925957,28.9089362 12.056,28.8466383 12.1805957,28.7219574 L18.8598298,22.0427234 C19.1974468,22.2319149 19.5862128,22.3402553 20,22.3402553 C21.1530213,22.3402553 22.1132766,21.5019574 22.3049362,20.4029787 L30.5313191,12.1765957 C30.7805957,11.9273191 30.7805957,11.5231489 30.5313191,11.2739574 L28.7259574,9.46859574 Z M18.8598298,17.9571064 C18.4820426,18.168766 18.168766,18.4820426 17.9571064,18.8598298 L13.5307234,14.4334468 L14.4334468,13.5307234 L18.8598298,17.9571064 Z M18.9361702,20 C18.9361702,19.4133617 19.4133617,18.9361702 20,18.9361702 C20.5866383,18.9361702 21.0638298,19.4133617 21.0638298,20 C21.0638298,20.5866383 20.5866383,21.0638298 20,21.0638298 C19.4133617,21.0638298 18.9361702,20.5866383 18.9361702,20 Z" id="Shape" fill="#52489C"></path>
                        <path d="M20,2.55319149 C10.3797447,2.55319149 2.55319149,10.3798298 2.55319149,20 C2.55319149,29.6202553 10.3797447,37.4468085 20,37.4468085 C24.1629787,37.4468085 28.1968511,35.9500426 31.3587234,33.2320851 C31.6260426,33.0022979 31.6565106,32.599234 31.4266383,32.3319149 C31.4239149,32.3286809 31.420766,32.3259574 31.4179574,32.3228085 C31.1868085,32.0643404 30.7906383,32.0370213 30.5264681,32.264 C27.5961702,34.7829787 23.8577872,36.1702128 20,36.1702128 C11.0837447,36.1702128 3.82978723,28.9162553 3.82978723,20 C3.82978723,11.0837447 11.0837447,3.82978723 20,3.82978723 C28.9162553,3.82978723 36.1702128,11.0837447 36.1702128,20 C36.1702128,23.8577872 34.7829787,27.5961702 32.264,30.5265532 C32.0369362,30.7906383 32.0643404,31.1868936 32.3228085,31.4180426 C32.3259574,31.4208511 32.3286809,31.4239149 32.3319149,31.4267234 C32.5994043,31.6565106 33.0022979,31.6260426 33.2320851,31.3588085 C35.9500426,28.1968511 37.4468085,24.1629787 37.4468085,20 C37.4468085,10.3798298 29.6202553,2.55319149 20,2.55319149 Z" id="Shape" fill="#52489C"></path>
                    </g>
                </g>
            </g>
        </g>
    </g>
</svg>