<?xml version="1.0" encoding="UTF-8" standalone="no"?>
<svg width="120px" height="120px" viewBox="0 0 120 120" version="1.1" xmlns="http://www.w3.org/2000/svg" xmlns:xlink="http://www.w3.org/1999/xlink">
    <!-- Generator: Sketch 50.2 (55047) - http://www.bohemiancoding.com/sketch -->
    <title>community</title>
    <desc>Created with Sketch.</desc>
    <defs>
        <linearGradient x1="0.112355604%" y1="49.8979271%" x2="100.035775%" y2="49.8979271%" id="linearGradient-1">
            <stop stop-color="#7689C4" offset="0%"></stop>
            <stop stop-color="#54B5C3" offset="100%"></stop>
        </linearGradient>
        <path d="M60.0891034,59.1536812 L60.7753078,59.1536812 C61.2785244,59.1536812 61.6445001,59.0621873 61.8274879,58.8334525 C62.0104758,58.6047177 62.1477167,58.238742 62.1934636,57.6440315 C62.1934636,57.4152966 62.2392106,57.2323088 62.2392106,57.0493209 C62.2392106,56.957827 62.2392106,56.8663331 62.2392106,56.7748392 C62.2392106,56.5461044 62.1019697,56.3631165 61.9647288,56.2716226 C61.781741,56.1343817 61.5072592,56.0886347 61.1412835,56.0886347 L60.4093321,56.0886347 L60.0891034,59.1536812 Z M77.3357081,59.9771265 C76.8324915,59.5654039 76.3292749,59.1536812 75.7803114,58.7419585 C75.3685887,58.4217298 74.9111191,58.1015011 74.4993964,57.7812723 C74.1334207,55.4939242 73.2642285,53.389564 71.9833135,51.5596855 C71.9833135,52.3831308 71.8918196,53.8470336 71.6630848,55.768406 C71.5715909,56.4088635 71.4800969,57.1408149 71.3428561,57.8727663 C71.0683743,59.382416 70.7023986,61.0293066 70.199182,62.8134382 C70.0619411,63.3166548 69.9247002,63.8198713 69.7417124,64.3230879 C69.7417124,64.3230879 69.7417124,64.1401001 69.7417124,63.7741244 C69.7417124,63.5453896 69.7417124,63.3166548 69.7417124,63.0879199 C69.7874593,62.0357398 69.7874593,60.9835597 69.7874593,59.9313796 C69.7874593,58.8791994 69.7874593,57.8270193 69.7417124,56.8205861 C69.7417124,56.0428878 69.6959654,55.2194425 69.6502185,54.4417441 C69.5587245,52.4288778 69.3757367,50.5075054 69.1927488,48.6318799 C69.1927488,48.6318799 69.1470019,48.2201573 69.1012549,48.0371694 C69.0555079,47.7169407 69.009761,47.3967119 68.964014,47.0764832 L71.9375666,46.07005 C72.8525058,47.7169407 74.5451434,48.9063617 76.5122628,49.0893495 C76.6952506,49.0893495 76.9239854,49.1350965 77.1069733,49.1350965 C79.9432849,49.1350965 82.322127,47.1679771 82.9168375,44.5146533 C83.0083314,44.1029307 83.0540784,43.645461 83.0540784,43.1879914 C83.0540784,42.7762688 83.0083314,42.3645461 82.9168375,41.9985704 C82.5051148,39.9399571 80.9954651,38.2473195 78.9825987,37.5611151 C78.3878882,37.3781272 77.7474308,37.2408863 77.0612263,37.2408863 C73.767445,37.2408863 71.1141212,39.8942102 71.1141212,43.1879914 C71.1141212,43.5539671 71.1598682,43.9199428 71.2056152,44.2859185 C70.3821698,44.5604003 69.5587245,44.880629 68.6895323,45.2008578 C67.0883886,34.9992852 63.8403543,28 60.1348503,28 C56.4293464,28 53.1813121,34.9535382 51.5801684,45.1551108 C41.9733064,41.4496069 34.3335637,40.7634024 32.4579383,43.9656898 C30.5823128,47.1679771 34.9740212,53.4353109 43.0254865,59.9771265 C43.1169804,60.0228735 43.2084744,60.1143674 43.2542213,60.1601144 C43.1627274,60.1143674 43.0712335,60.0228735 43.0254865,59.9771265 C34.9740212,66.4731951 30.5823128,72.694782 32.4121913,75.9428163 C34.2878167,79.1908506 41.9275594,78.5046462 51.5801684,74.7991422 C53.1813121,85.0007148 56.4293464,92 60.1348503,92 C63.8403543,92 67.0883886,85.0464618 68.6895323,74.8448892 C78.2963943,78.5503931 85.936137,79.2365976 87.8117624,76.0343102 C89.7788818,72.7405289 85.3414265,66.4731951 77.3357081,59.9771265 Z M74.8653721,44.3316655 L75.1398539,41.7240886 C75.1856009,41.312366 75.2313478,40.9921372 75.3685887,40.6719085 C75.4600826,40.3974267 75.5973235,40.122945 75.7803114,39.8942102 C75.9632992,39.6654753 76.192034,39.5282345 76.5122628,39.3909936 C76.7867445,39.2994996 77.1527202,39.2080057 77.5644429,39.2080057 C77.9304186,39.2080057 78.2506473,39.2537527 78.5251291,39.3452466 C78.7996109,39.4367405 78.9825987,39.5739814 79.1198396,39.8027162 C79.2570805,39.9857041 79.3485744,40.2144389 79.3943214,40.4431737 C79.4400683,40.5804146 79.4400683,40.7176555 79.4400683,40.9006433 C79.4400683,41.0378842 79.4400683,41.1751251 79.4400683,41.312366 L79.3485744,41.9528234 L77.8846716,41.9528234 L77.9761656,41.266619 C77.9761656,41.1751251 77.9761656,41.1293781 77.9761656,41.0836312 C77.9761656,41.0378842 77.9761656,40.9921372 77.9761656,40.9006433 C77.9761656,40.8091494 77.9761656,40.7634024 77.9761656,40.7176555 C77.9761656,40.6719085 77.9761656,40.6261615 77.9761656,40.5804146 C77.9761656,40.5346676 77.9761656,40.4889207 77.9304186,40.4431737 C77.9304186,40.3974267 77.8846716,40.3974267 77.8846716,40.3516798 C77.8389247,40.3059328 77.8389247,40.3059328 77.7931777,40.2601858 C77.7474308,40.2601858 77.7016838,40.2144389 77.6559368,40.2144389 C77.6101899,40.2144389 77.5186959,40.2144389 77.472949,40.2144389 C77.3814551,40.2144389 77.2899611,40.2144389 77.1984672,40.2601858 C77.1069733,40.3059328 77.0612263,40.3059328 77.0154794,40.3974267 C76.9697324,40.4431737 76.9239854,40.4889207 76.8782385,40.5804146 C76.8324915,40.6261615 76.8324915,40.7176555 76.7867445,40.8091494 C76.7409976,40.9006433 76.7409976,40.9921372 76.7409976,41.0836312 C76.7409976,41.1751251 76.6952506,41.266619 76.6952506,41.3581129 L76.3750219,44.6061472 C76.3750219,44.7433881 76.3750219,44.8348821 76.3750219,44.9721229 C76.3750219,45.1551108 76.4207688,45.3380986 76.4665158,45.4295926 C76.5580097,45.6125804 76.6952506,45.7040743 76.9697324,45.7040743 C77.0612263,45.7040743 77.1527202,45.7040743 77.2442142,45.6583274 C77.3357081,45.6125804 77.3814551,45.6125804 77.427202,45.5210865 C77.472949,45.4753395 77.5186959,45.4295926 77.5644429,45.3380986 C77.6101899,45.2923517 77.6101899,45.2008578 77.6559368,45.1093638 C77.6559368,45.0178699 77.7016838,44.926376 77.7016838,44.880629 C77.7016838,44.8348821 77.7016838,44.6976412 77.7474308,44.6061472 L77.8389247,43.9199428 L79.2570805,43.9199428 L79.2113335,44.5146533 C79.1655866,44.8348821 79.1198396,45.1551108 79.0283457,45.4295926 C78.9368518,45.7040743 78.7996109,45.9328091 78.616623,46.115797 C78.4336352,46.3445318 78.2049004,46.4817727 77.9304186,46.5732666 C77.6559368,46.6647605 77.2899611,46.7562545 76.9239854,46.7562545 C76.6037567,46.7562545 76.3292749,46.7105075 76.1005401,46.6190136 C75.8718053,46.5275197 75.6888175,46.4360257 75.5058296,46.2987848 C75.3685887,46.161544 75.2313478,45.9785561 75.1856009,45.7955683 C75.0941069,45.6125804 75.04836,45.3838456 75.04836,45.1093638 C75.04836,45.0178699 75.04836,44.9721229 75.04836,44.880629 C74.8653721,44.7433881 74.8653721,44.5604003 74.8653721,44.3316655 Z M35.6144786,45.6583274 C37.0783814,43.1879914 43.2999683,43.8741959 51.3971806,47.0307362 C51.3056866,47.5796998 51.2599397,48.0829164 51.2141927,48.6318799 C49.4758082,50.0500357 48.0576523,51.8341673 47.0969661,53.8927806 C47.8289175,53.4810579 49.1098325,52.8406004 50.893964,52.108649 C51.4886745,51.8341673 52.1748789,51.6054325 52.8610834,51.3309507 C54.2792392,50.8277341 55.9261298,50.2787706 57.7102613,49.8213009 C58.2134779,49.68406 58.7166945,49.5925661 59.2199111,49.4553252 C59.2199111,49.4553252 59.5401398,49.2723374 60.2263443,48.9521086 C60.3178382,48.9063617 60.4093321,48.8606147 60.500826,48.8148678 C60.4093321,48.8606147 60.3178382,48.9063617 60.2263443,48.9521086 C59.5401398,49.3180843 58.8539354,49.68406 58.121984,50.0500357 C57.7560083,50.2330236 57.3900326,50.4617584 56.9783099,50.6447462 C56.886816,50.6904932 56.7953221,50.7362402 56.6580812,50.8277341 C56.2006116,51.0564689 55.7888889,51.3309507 55.3314193,51.5596855 C54.4164801,52.108649 53.5015408,52.6118656 52.6323485,53.1608292 C52.4493607,53.2523231 52.3121198,53.343817 52.129132,53.4810579 C51.9918911,53.5725518 51.8546502,53.6640457 51.7174093,53.7555397 C51.3514336,53.9842745 50.9854579,54.2130093 50.6194822,54.4417441 C49.1098325,55.4024303 47.4629418,56.5461044 45.8617982,57.7355254 C45.5415694,57.9642602 45.2213407,58.192995 44.9468589,58.4217298 C44.901112,58.4217298 44.901112,58.4674768 44.855365,58.4674768 C44.7638711,58.5589707 44.6723771,58.6047177 44.5808832,58.6962116 C44.6723771,58.7877055 44.809618,58.8791994 44.901112,58.9706934 C44.809618,58.8791994 44.6723771,58.7877055 44.5808832,58.6962116 C37.9018267,53.2523231 34.1505759,48.1744103 35.6144786,45.6583274 Z M62.3307045,50.0500357 C61.6445001,50.3702645 60.9582957,50.7362402 60.2263443,51.1022159 C59.8146216,51.3309507 59.357152,51.5596855 58.9454293,51.7884203 C59.357152,51.5596855 59.8146216,51.3309507 60.2263443,51.1022159 C60.9582957,50.7362402 61.6445001,50.3702645 62.3307045,50.0500357 C63.6573664,49.4095783 64.9840283,48.7691208 66.2649433,48.2201573 C64.9840283,48.7691208 63.6573664,49.4095783 62.3307045,50.0500357 Z M64.2978239,57.0493209 C64.2978239,57.2323088 64.2978239,57.4610436 64.2520769,57.6897784 C64.20633,58.238742 64.0690891,58.7419585 63.8861012,59.1079342 C63.7031134,59.5196569 63.4743786,59.7941387 63.1541498,60.0228735 C62.8339211,60.2516083 62.5136924,60.4345961 62.1477167,60.5260901 C61.781741,60.617584 61.3700183,60.663331 60.9125487,60.663331 L59.9061155,60.663331 L59.4028989,65.421015 L57.2070448,65.421015 L58.3507188,54.533238 L61.690247,54.533238 C63.4743786,54.533238 64.2978239,55.3566833 64.2978239,57.0493209 Z M50.7109761,56.7290922 C50.6652292,56.7290922 50.6652292,56.7748392 50.6194822,56.7748392 C50.5737353,56.8205861 50.5279883,56.8663331 50.4364944,56.9120801 C50.4822413,56.8663331 50.5279883,56.8205861 50.6194822,56.7748392 C50.6194822,56.7748392 50.6652292,56.7290922 50.7109761,56.7290922 Z M60.2263443,88.38599 C57.3442856,88.38599 54.8282027,82.5761258 53.5015408,74.0214439 C53.9590105,73.838456 54.462227,73.6097212 54.9196967,73.4267334 C54.3707331,73.1979986 53.8217696,72.9692638 53.272806,72.649035 C53.0440712,72.5117941 52.8610834,72.4203002 52.6323485,72.2830593 C52.1748789,72.4660472 51.7631563,72.649035 51.3514336,72.7862759 C43.2542213,75.8970693 36.9868875,76.6290207 35.5229847,74.1129378 C34.1048289,71.5968549 37.8560798,66.5646891 44.6266302,61.1665475 C45.0383528,61.4867763 45.4958225,61.807005 45.9075451,62.1272337 C46.4565087,65.7869907 48.3778811,69.035025 51.1684458,71.2308792 C51.6259154,71.5968549 52.129132,71.9628306 52.6323485,72.2830593 C52.8610834,72.4203002 53.0440712,72.5117941 53.272806,72.649035 C53.8217696,72.9235168 54.3249861,73.1979986 54.9196967,73.4267334 C56.5665873,74.0671909 58.3507188,74.4331665 60.2263443,74.4331665 C60.6838139,74.4331665 61.1412835,74.4331665 61.5987531,74.3874196 C60.8668017,73.92995 59.6316338,73.1522516 58.121984,72.0085776 C57.6187674,71.5968549 57.0240569,71.1851322 56.4293464,70.6819157 C55.2856724,69.7212294 54.0047574,68.5775554 52.7238425,67.2508935 C52.3578668,66.8849178 51.9918911,66.5189421 51.6716623,66.1072194 C51.6716623,66.1072194 52.037638,66.3359543 52.7238425,66.7476769 C52.8153364,66.7934239 52.8610834,66.8391708 52.9525773,66.8849178 C53.7302756,67.3881344 54.553721,67.845604 55.3771663,68.3488206 C56.2921055,68.8977841 57.2070448,69.4010007 58.121984,69.8584703 C58.8081884,70.224446 59.5401398,70.5904217 60.2263443,70.9563974 C61.2785244,71.505361 62.3307045,72.0085776 63.3828846,72.5117941 C64.0690891,72.8320229 64.8010405,73.1522516 65.4872449,73.4724803 C65.9447145,73.6554682 66.4479311,73.838456 66.9511477,74.0671909 C65.6244858,82.6218728 63.1084029,88.38599 60.2263443,88.38599 Z M67.1341355,47.2594711 C67.0883886,46.8020014 66.9968947,46.3445318 66.9511477,45.8870622 C66.4936781,46.07005 65.9904615,46.2987848 65.5329919,46.4817727 C64.8467874,46.7562545 64.160583,47.0764832 63.4743786,47.3967119 C64.160583,47.0764832 64.8467874,46.7562545 65.5329919,46.4817727 C63.8861012,45.8413152 62.1019697,45.4753395 60.2263443,45.4753395 C58.3964658,45.4753395 56.6123343,45.8413152 55.0111906,46.4360257 C54.4164801,46.6647605 53.8675165,46.9392423 53.318553,47.2137241 C53.3642999,46.7105075 53.4557939,46.2530379 53.5472878,45.7955683 C54.8739497,37.2408863 57.3900326,31.4767691 60.2720912,31.4767691 C63.1541498,31.4767691 65.6702328,37.2866333 66.9968947,45.8413152 C67.0426416,46.2987848 67.0883886,46.7562545 67.1341355,47.2594711 C67.1341355,47.350965 67.1798825,47.4424589 67.1798825,47.5796998 C67.1798825,47.4424589 67.1798825,47.350965 67.1341355,47.2594711 Z M84.8382099,74.2044317 C83.3743071,76.6747677 77.1527202,75.9885633 69.0555079,72.8320229 C69.1470019,72.2830593 69.1927488,71.7798427 69.2384958,71.2308792 C71.9833135,69.035025 73.9046859,65.8327377 74.4993964,62.1729807 C74.5908904,61.5782702 74.6366373,60.9378127 74.6823843,60.2973553 C75.04836,60.617584 75.4600826,60.8920658 75.8260583,61.1665475 C82.5508618,66.656183 86.3021127,71.6883488 84.8382099,74.2044317 Z M84.8839568,45.7955683 C86.3021127,48.3116512 82.5508618,53.343817 75.7803114,58.7419585 C76.3292749,59.1536812 76.8324915,59.5654039 77.3357081,59.9771265 C85.3871734,53.4810579 89.7788818,47.2594711 87.9490033,44.0114367 C87.3085458,42.9135096 86.0276309,42.2730522 84.2434994,42.0443174 C84.3349933,42.501787 84.4264872,42.9592566 84.4264872,43.4624732 C84.4264872,44.0114367 84.3349933,44.5604003 84.1977524,45.0636169 C84.5179811,45.2466047 84.746716,45.4753395 84.8839568,45.7955683 Z" id="path-2"></path>
    </defs>
    <g id="Page-1" stroke="none" stroke-width="1" fill="none" fill-rule="evenodd">
        <g id="Powercode-Academy-Landing-333" transform="translate(-1192.000000, -2750.000000)">
            <g id="FEATURES" transform="translate(0.000000, 2105.000000)">
                <g id="icons" transform="translate(390.000000, 165.000000)">
                    <g id="community" transform="translate(802.000000, 480.000000)">
                        <circle id="Oval-2-Copy-16" stroke="#8DCEFF" stroke-width="2" cx="60" cy="60" r="59"></circle>
                        <g fill-rule="nonzero">
                            <use fill="url(#linearGradient-1)" fill-rule="evenodd" xlink:href="#path-2"></use>
                            <use fill="#FFFFFF" fill-rule="evenodd" xlink:href="#path-2"></use>
                        </g>
                    </g>
                </g>
            </g>
        </g>
    </g>
</svg>