<?xml version="1.0" encoding="UTF-8" standalone="no"?>
<svg width="40px" height="40px" viewBox="0 0 40 40" version="1.1" xmlns="http://www.w3.org/2000/svg" xmlns:xlink="http://www.w3.org/1999/xlink">
    <!-- Generator: Sketch 50.2 (55047) - http://www.bohemiancoding.com/sketch -->
    <title>communication</title>
    <desc>Created with Sketch.</desc>
    <defs></defs>
    <g id="Page-1" stroke="none" stroke-width="1" fill="none" fill-rule="evenodd">
        <g id="Powercode-Academy-Landing-Features-5" transform="translate(-1232.000000, -545.000000)" fill="#52489C" fill-rule="nonzero">
            <g id="FEATURES">
                <g id="icons" transform="translate(390.000000, 165.000000)">
                    <g id="community" transform="translate(802.000000, 0.000000)">
                        <g id="communication" transform="translate(40.000000, 380.000000)">
                            <path d="M35.7195312,28.4991406 C36.2024219,27.7622656 36.484375,26.8824219 36.484375,25.9375 C36.484375,23.3528125 34.3815625,21.25 31.796875,21.25 C31.3639844,21.25 30.9451563,21.3102344 30.546875,21.4205469 L30.546875,18.7103906 C33.2179687,18.1659375 35.234375,15.7982812 35.234375,12.96875 L35.234375,8.203125 C35.234375,4.97226563 32.6058594,2.34375 29.375,2.34375 L24.6842969,2.34375 C23.6142187,0.9215625 21.9128125,0 20,0 L10.625,0 C7.39414062,0 4.765625,2.62851563 4.765625,5.859375 L4.765625,12.96875 C4.765625,15.7983594 6.78203125,18.1659375 9.453125,18.7103906 L9.453125,21.4205469 C9.05484375,21.3101562 8.63601562,21.25 8.203125,21.25 C5.6184375,21.25 3.515625,23.3528125 3.515625,25.9375 C3.515625,26.8824219 3.79757813,27.7622656 4.28046875,28.4991406 C1.814375,29.1903125 0,31.4567969 0,34.140625 L0,38.828125 C0,39.4753125 0.5246875,40 1.171875,40 L15.234375,40 C15.8815625,40 16.40625,39.4753125 16.40625,38.828125 L16.40625,34.140625 C16.40625,31.4567969 14.591875,29.1903125 12.1257813,28.4991406 C12.6086719,27.7622656 12.890625,26.8824219 12.890625,25.9375 C12.890625,24.7684375 12.4594531,23.6989063 11.7490625,22.8769531 L15.7978906,18.828125 L20,18.828125 L24.2021094,18.828125 L28.2509375,22.8769531 C27.5405469,23.6989063 27.109375,24.7684375 27.109375,25.9375 C27.109375,26.8824219 27.3913281,27.7622656 27.8742188,28.4991406 C25.408125,29.1903125 23.59375,31.4567969 23.59375,34.140625 L23.59375,38.828125 C23.59375,39.4753125 24.1184375,40 24.765625,40 L38.828125,40 C39.4753125,40 40,39.4753125 40,38.828125 L40,34.140625 C40,31.4567969 38.185625,29.1903125 35.7195312,28.4991406 Z M8.203125,23.59375 C9.49546875,23.59375 10.546875,24.6451563 10.546875,25.9375 C10.546875,27.2298437 9.49546875,28.28125 8.203125,28.28125 C6.91078125,28.28125 5.859375,27.2298437 5.859375,25.9375 C5.859375,24.6451563 6.91078125,23.59375 8.203125,23.59375 Z M14.0625,34.140625 L14.0625,37.65625 L2.34375,37.65625 L2.34375,34.140625 C2.34375,32.2021094 3.92085938,30.625 5.859375,30.625 L10.546875,30.625 C12.4853906,30.625 14.0625,32.2021094 14.0625,34.140625 Z M23.515625,12.96875 C23.515625,14.9072656 21.9385156,16.484375 20,16.484375 L15.3125,16.484375 C15.0016406,16.484375 14.7035937,16.6078125 14.4839063,16.8275781 L11.796875,19.5146094 L11.796875,17.65625 C11.796875,17.0090625 11.2721875,16.484375 10.625,16.484375 C8.68648437,16.484375 7.109375,14.9072656 7.109375,12.96875 L7.109375,5.859375 C7.109375,3.92085937 8.68648437,2.34375 10.625,2.34375 L20,2.34375 C21.9385156,2.34375 23.515625,3.92085937 23.515625,5.859375 L23.515625,12.96875 Z M31.796875,23.59375 C33.0892188,23.59375 34.140625,24.6451563 34.140625,25.9375 C34.140625,27.2298437 33.0892188,28.28125 31.796875,28.28125 C30.5045313,28.28125 29.453125,27.2298437 29.453125,25.9375 C29.453125,24.6451563 30.5045313,23.59375 31.796875,23.59375 Z M28.203125,17.65625 L28.203125,19.5146094 L25.5160937,16.8275781 C25.2964062,16.6078125 24.9983594,16.484375 24.6875,16.484375 L24.6842969,16.484375 C25.4216406,15.504375 25.859375,14.2867969 25.859375,12.96875 L25.859375,5.859375 C25.859375,5.458125 25.8186719,5.06625 25.7414844,4.6875 L29.375,4.6875 C31.3135156,4.6875 32.890625,6.26460937 32.890625,8.203125 L32.890625,12.96875 C32.890625,14.9072656 31.3135156,16.484375 29.375,16.484375 C28.7278125,16.484375 28.203125,17.0090625 28.203125,17.65625 Z M37.65625,37.65625 L25.9375,37.65625 L25.9375,34.140625 C25.9375,32.2021094 27.5146094,30.625 29.453125,30.625 L34.140625,30.625 C36.0791406,30.625 37.65625,32.2021094 37.65625,34.140625 L37.65625,37.65625 Z" id="Shape"></path>
                            <path d="M19.6567187,5.03070312 C19.1991406,4.57304687 18.4571094,4.57304687 17.9994531,5.03070312 L14.140625,8.88960937 L12.6254687,7.37445312 C12.1678906,6.91679687 11.4258594,6.91679687 10.9682031,7.37445312 C10.5105469,7.83210937 10.5105469,8.5740625 10.9682031,9.03171875 L13.3119531,11.3754687 C13.7695312,11.8330469 14.5115625,11.833125 14.9692187,11.3754687 L19.6567187,6.68796875 C20.1144531,6.23039062 20.1144531,5.48835937 19.6567187,5.03070312 Z" id="Shape"></path>
                        </g>
                    </g>
                </g>
            </g>
        </g>
    </g>
</svg>