<?xml version="1.0" encoding="UTF-8" standalone="no"?>
<svg width="48px" height="48px" viewBox="0 0 48 48" version="1.1" xmlns="http://www.w3.org/2000/svg" xmlns:xlink="http://www.w3.org/1999/xlink">
    <!-- Generator: Sketch 50.2 (55047) - http://www.bohemiancoding.com/sketch -->
    <title>consultation</title>
    <desc>Created with Sketch.</desc>
    <defs></defs>
    <g id="Page-1" stroke="none" stroke-width="1" fill="none" fill-rule="evenodd">
        <g id="Powercode-Academy-Landing-Features-4" transform="translate(-1027.000000, -301.000000)" fill="#52489C" fill-rule="nonzero">
            <g id="FEATURES">
                <g id="icons" transform="translate(390.000000, 165.000000)">
                    <g id="online" transform="translate(601.000000, 0.000000)">
                        <g id="consultation" transform="translate(36.000000, 136.000000)">
                            <path d="M46.2916224,48 C45.8546416,48 45.4411885,47.7368757 45.269203,47.3043238 L42.523076,40.400076 C41.1122445,36.9084282 39.4896645,35.1458826 37.2315636,34.7324017 L36.65782,37.4831833 L37.4517051,44.6562214 C37.4932568,45.0321132 37.3406712,45.4033063 37.0471952,45.6401734 L35.2760196,47.0696678 C35.0805065,47.2274871 34.8373878,47.3134447 34.5865641,47.3134447 L33.9580603,47.3134447 C33.7073743,47.3134447 33.464118,47.2274871 33.2686048,47.0696678 L31.4971541,45.6401734 C31.2035405,45.4033063 31.0509549,45.0321132 31.0926442,44.6562214 L31.8866669,37.4831833 L31.3127857,34.7325399 C29.0548224,35.1460208 27.4321048,36.9092574 26.0190719,40.405742 L23.2300173,47.3098516 C23.001483,47.8754858 22.3597707,48.1481456 21.7962086,47.9186028 C21.2329217,47.6890601 20.9615973,47.0442398 21.1901317,46.4784674 L23.9791862,39.5742196 C25.189001,36.5804902 27.3351049,32.6250583 32.0598907,32.4321374 C32.1017176,32.4273005 32.1439572,32.424813 32.1866096,32.424813 L36.3577397,32.424813 C36.4003921,32.424813 36.4426317,32.4273005 36.4844586,32.4321374 C41.2097947,32.6250583 43.3556234,36.5806284 44.5651631,39.5740814 L47.3134915,46.4839952 C47.5391364,47.0510114 47.2643724,47.6943115 46.6997096,47.9206758 C46.5658361,47.9744338 46.4275597,48 46.2916224,48 Z M33.3473054,44.2969131 L34.2723122,45.043307 L35.1970439,44.2970513 L34.5593216,38.5352658 L33.9851652,38.5352658 L33.3473054,44.2969131 Z M33.8939441,36.3241376 L34.6504052,36.3241376 L35.0026315,34.6360794 L33.5418554,34.6360794 L33.8939441,36.3241376 Z M1.10057372,48 C0.962710144,48 0.822645149,47.973881 0.687120572,47.9186028 C0.123833649,47.6890601 -0.147490682,47.0442398 0.0810436556,46.4784674 L2.82868407,39.6766225 C4.05225774,36.6486206 6.24706795,32.6229854 11.1617257,32.6229854 L14.8063049,32.6229854 C17.4555696,32.6229854 19.6360707,33.8062153 21.2872691,36.139923 C21.3145116,36.1783413 21.4395794,36.3495655 21.591477,36.5572734 C22.1174775,37.2774102 22.2572673,37.4703312 22.3033594,37.5402581 C22.6388,38.0496467 22.4995605,38.7353729 21.9924096,39.0722935 C21.4873226,39.4078322 20.8083239,39.2704659 20.4713699,38.7663287 C20.4122068,38.6809238 20.0251707,38.1510822 19.8165866,37.8652939 C19.6527189,37.6411408 19.518295,37.4569262 19.4921532,37.4197516 C18.7306014,36.3433467 17.8793419,35.6178203 16.8887054,35.2158096 L13.873318,39.3660972 C13.6661098,39.6511945 13.3357601,39.8199312 12.9842217,39.8199312 C12.6326833,39.8199312 12.3023336,39.6511945 12.0951254,39.3660972 L9.08001317,35.2163623 C7.36167161,35.9160462 6.04164846,37.6042426 4.86856974,40.5078685 L2.12092932,47.3097134 C1.94729276,47.7393633 1.53535308,48 1.10057372,48 Z M11.5275733,34.8341136 L12.9842217,36.8390541 L14.4408701,34.8341136 L11.5275733,34.8341136 Z M17.4240619,47.9995854 L5.71790295,47.9995854 C5.11003739,47.9995854 4.61719572,47.5045691 4.61719572,46.8940213 C4.61719572,46.2834735 5.11003739,45.7884572 5.71790295,45.7884572 L17.4240619,45.7884572 C18.0319275,45.7884572 18.5247691,46.2834735 18.5247691,46.8940213 C18.5247691,47.5045691 18.0319275,47.9995854 17.4240619,47.9995854 Z M39.2776408,39.9525989 C38.6697752,39.9525989 38.1769335,39.4575826 38.1769335,38.8470348 L38.1769335,38.7087011 C38.1769335,38.0981534 38.6697752,37.603137 39.2776408,37.603137 C39.8855063,37.603137 40.378348,38.0981534 40.378348,38.7087011 L40.378348,38.8470348 C40.378348,39.4575826 39.8855063,39.9525989 39.2776408,39.9525989 Z M12.9842217,31.0004319 C9.90458048,31.0004319 7.39909565,28.4838916 7.39909565,25.3905232 C7.39909565,22.8426126 9.09886279,20.6862098 11.4191536,20.0049059 C11.4304359,20.0013129 11.4417181,19.9977198 11.4532755,19.9945413 C11.8209118,19.8893745 12.1988671,19.8227643 12.5815005,19.7952633 L12.5817756,19.7952633 C12.5834267,19.794987 12.5853529,19.7947106 12.5871416,19.7948488 C12.5897558,19.7945724 12.5915444,19.7944342 12.5934706,19.7944342 C12.5958096,19.794296 12.5980111,19.794296 12.6003501,19.7938814 C12.6026891,19.7938814 12.6042025,19.7937432 12.606404,19.7934668 C12.6092933,19.793605 12.6112195,19.7931904 12.613421,19.7930522 C12.6153472,19.7924994 12.6171358,19.7927758 12.6190621,19.7926376 C12.6234649,19.7927758 12.627455,19.792223 12.6317202,19.7918085 C12.6498819,19.7905647 12.667906,19.7895973 12.6862052,19.7887682 L12.6864804,19.78863 C12.6923967,19.7883536 12.698313,19.7880772 12.7042293,19.7878008 C12.7061555,19.787939 12.7119343,19.787248 12.7161995,19.7871098 C12.717713,19.787248 12.7197768,19.7871098 12.7218406,19.7868334 C12.7241796,19.786557 12.726381,19.7866952 12.72872,19.786557 C12.7306463,19.7864188 12.7318846,19.7864188 12.734086,19.7862806 C12.7357371,19.7862806 12.7371129,19.7861424 12.7391768,19.7861424 C12.7412406,19.7857279 12.743442,19.7858661 12.7452307,19.7858661 C12.7472945,19.7855897 12.7489455,19.7853133 12.7515597,19.7855897 C12.7530732,19.7853133 12.7544491,19.7851751 12.7563753,19.7853133 C12.7606406,19.7850369 12.7650434,19.7861424 12.769171,19.7847605 C12.8374149,19.7821348 12.9057963,19.780891 12.9743153,19.7807528 C12.976104,19.780891 12.9774799,19.7807528 12.9791309,19.7807528 C12.980782,19.7807528 12.9825706,19.7807528 12.9840841,19.7807528 C12.9843593,19.7807528 12.9843593,19.7807528 12.9843593,19.7807528 C12.9898628,19.7807528 12.995504,19.7807528 13.0008699,19.7807528 L13.0010075,19.7807528 C13.0038968,19.7807528 13.0070614,19.7806146 13.0096756,19.7807528 C13.0122897,19.780891 13.0161422,19.7810292 13.0184812,19.780891 C13.0216458,19.780891 13.0250855,19.7810292 13.0279748,19.780891 C13.0290755,19.780891 13.0303138,19.780891 13.0314145,19.780891 C15.7688734,19.8035551 18.0505019,21.781962 18.4922983,24.4588091 C18.5429308,24.7618719 18.5693478,25.0730882 18.5693478,25.3905232 C18.5694854,28.4838916 16.0640005,31.0004319 12.9842217,31.0004319 Z M11.0043246,22.6360103 C10.154441,23.2540206 9.6005101,24.2585638 9.6005101,25.3906614 C9.6005101,27.264869 11.1183854,28.7894419 12.9842217,28.7894419 C14.5656628,28.7894419 15.8972434,27.6941042 16.2662555,26.2190053 C13.8751066,26.2326867 11.8189855,24.7693344 11.0043246,22.6360103 Z M13.123186,21.9947831 C13.6324007,23.1512032 14.7586993,23.9509406 16.0740445,24.0051132 C15.5629036,22.859887 14.4385311,22.0485412 13.123186,21.9947831 Z M34.2720371,30.744632 C31.155247,30.744632 28.6194927,28.1975505 28.6194927,25.0668694 C28.6194927,21.9363264 31.155247,19.3893831 34.2720371,19.3893831 C34.6449016,19.3893831 35.0096485,19.4258667 35.3627003,19.4955173 C35.3856776,19.4993868 35.4087924,19.5040854 35.4317697,19.5096132 C37.9943537,20.0484375 39.9248566,22.3355733 39.9248566,25.0670075 C39.9248566,28.1975505 37.3889647,30.744632 34.2720371,30.744632 Z M32.3167683,22.2118883 C31.4139132,22.8376375 30.8209071,23.8841922 30.8209071,25.0668694 C30.8209071,26.9783897 32.3690519,28.5335038 34.2720371,28.5335038 C36.1751599,28.5335038 37.7234422,26.9783897 37.7234422,25.0668694 C37.7234422,23.6445611 36.8661288,22.4195961 35.6432431,21.8857469 C35.1814964,22.4830279 34.6043131,22.9837102 33.9414121,23.3573909 C33.411284,23.656446 32.740403,23.4669799 32.4427992,22.9345126 C32.3149796,22.7062136 32.2768676,22.4516575 32.3167683,22.2118883 Z M8.19917222,19.1854066 C8.00682363,19.1854066 7.81447504,19.134827 7.64276471,19.0336679 C7.30567313,18.8352191 7.09846499,18.4723177 7.09846499,18.0798425 L7.09846499,8.11829536 C7.09846499,6.18203804 8.6668352,4.60688559 10.5945863,4.60688559 L14.4996204,4.60688559 C15.1074859,4.60688559 15.6003276,5.10190192 15.6003276,5.71244969 C15.6003276,6.32299746 15.1074859,6.81801379 14.4996204,6.81801379 L10.5945863,6.81801379 C9.88077768,6.81801379 9.29987944,7.40133704 9.29987944,8.11829536 L9.29987944,16.1930591 L10.8154157,15.3399782 C10.9798338,15.2473872 11.1651654,15.1988806 11.353524,15.1988806 L20.9046357,15.1988806 C21.5125013,15.1988806 22.005343,15.6938969 22.005343,16.3044447 C22.005343,16.9149925 21.5125013,17.4100088 20.9046357,17.4100088 L11.6408085,17.4100088 L8.73714287,19.0443089 C8.56997296,19.1384201 8.3845038,19.1854066 8.19917222,19.1854066 Z M34.2780909,16.8953687 C33.9744333,16.8953687 33.6772424,16.769058 33.4645307,16.5348166 L30.0762787,12.8031232 L21.1760977,12.8031232 C19.2484841,12.8031232 17.6802515,11.2279708 17.6802515,9.29185165 L17.6802515,3.51140977 C17.6802515,1.57515245 19.2484841,0 21.1760977,0 L31.8822641,0 C33.8100152,0 35.3783854,1.57515245 35.3783854,3.51140977 L35.3783854,15.7898046 C35.3783854,16.2462644 35.0992185,16.6557377 34.6754463,16.820605 C34.5461132,16.8710463 34.4114141,16.8953687 34.2780909,16.8953687 Z M21.1760977,2.21112819 C20.462289,2.21112819 19.881666,2.79445145 19.881666,3.51140977 L19.881666,9.29171345 C19.881666,10.0086718 20.4624266,10.5918568 21.1760977,10.5918568 L30.5621034,10.5918568 C30.8716773,10.5918568 31.166942,10.722728 31.3753884,10.9524089 L33.1771085,12.9366201 L33.1771085,3.51140977 C33.1771085,2.79445145 32.5962103,2.21112819 31.8824017,2.21112819 L21.1760977,2.21112819 Z M14.2793413,10.9971843 L12.2823833,10.9971843 C11.6745177,10.9971843 11.181676,10.5021679 11.181676,9.89162017 C11.181676,9.2810724 11.6745177,8.78605607 12.2823833,8.78605607 L14.2793413,8.78605607 C14.8872069,8.78605607 15.3800486,9.2810724 15.3800486,9.89162017 C15.3800486,10.5021679 14.8872069,10.9971843 14.2793413,10.9971843 Z M29.9601541,6.45483598 L25.4168474,6.45483598 C24.8089819,6.45483598 24.3161402,5.95981965 24.3161402,5.34927188 C24.3161402,4.73872411 24.8089819,4.24370779 25.4168474,4.24370779 L29.9601541,4.24370779 C30.5680197,4.24370779 31.0608613,4.73872411 31.0608613,5.34927188 C31.0608613,5.95981965 30.5680197,6.45483598 29.9601541,6.45483598 Z" id="Shape"></path>
                        </g>
                    </g>
                </g>
            </g>
        </g>
    </g>
</svg>