<?xml version="1.0" encoding="UTF-8" standalone="no"?>
<svg width="46px" height="42px" viewBox="0 0 46 42" version="1.1" xmlns="http://www.w3.org/2000/svg" xmlns:xlink="http://www.w3.org/1999/xlink">
    <!-- Generator: Sketch 50.2 (55047) - http://www.bohemiancoding.com/sketch -->
    <title>discuss</title>
    <desc>Created with Sketch.</desc>
    <defs></defs>
    <g id="Page-1" stroke="none" stroke-width="1" fill="none" fill-rule="evenodd">
        <g id="Powercode-Academy-Landing-Features-5" transform="translate(-1229.000000, -424.000000)" fill="#52489C" fill-rule="nonzero">
            <g id="FEATURES">
                <g id="icons" transform="translate(390.000000, 165.000000)">
                    <g id="community" transform="translate(802.000000, 0.000000)">
                        <g id="discuss" transform="translate(37.000000, 259.000000)">
                            <path d="M35.1944353,9.8998843 C35.1944353,11.2934435 34.1799008,12.1409587 33.4390854,12.7629091 C33.1585234,12.9984848 32.636303,13.4283251 32.637697,13.5888815 C32.6427658,14.2186887 32.1363857,14.7216474 31.5064518,14.7216474 C31.5032837,14.7216474 31.5001157,14.7216474 31.4969477,14.7216474 C30.871449,14.7216474 30.3617741,14.2341488 30.3567052,13.6075096 C30.3466942,12.3723526 31.2480661,11.6326777 31.9724077,11.0245399 C32.5407548,10.5473058 32.9134435,10.2114931 32.9134435,9.90419284 C32.9134435,9.2821157 32.4073168,8.77598898 31.7852397,8.77598898 C31.1629091,8.77598898 30.6566556,9.2821157 30.6566556,9.90419284 C30.6566556,10.5341267 30.1460937,11.0446887 29.5161598,11.0446887 C28.8862259,11.0446887 28.3756639,10.5341267 28.3756639,9.90419284 C28.3756639,8.0244022 29.9050689,6.49499725 31.7849862,6.49499725 C33.6650303,6.49487052 35.1944353,8.01996694 35.1944353,9.8998843 Z M31.5285014,15.7744518 C30.8985675,15.7744518 30.4132231,16.2850138 30.4132231,16.9149477 L30.4132231,16.9236915 C30.4132231,17.5536253 30.8986942,18.0598788 31.5285014,18.0598788 C32.1583085,18.0598788 32.6689972,17.5448815 32.6689972,16.9149477 C32.6689972,16.2850138 32.1584353,15.7744518 31.5285014,15.7744518 Z M8.54003306,23.7190193 C7.91009917,23.7190193 7.39953719,24.2295813 7.39953719,24.8595152 C7.39953719,25.489449 7.91009917,26.000011 8.54003306,26.000011 L8.63507438,26.000011 C9.26500826,26.000011 9.77557025,25.489449 9.77557025,24.8595152 C9.77557025,24.2295813 9.26500826,23.7190193 8.63507438,23.7190193 L8.54003306,23.7190193 Z M12.5037631,23.7190193 C11.8738292,23.7190193 11.3632672,24.2295813 11.3632672,24.8595152 C11.3632672,25.489449 11.8738292,26.000011 12.5037631,26.000011 L12.5986777,26.000011 C13.2286116,26.000011 13.7391736,25.489449 13.7391736,24.8595152 C13.7391736,24.2295813 13.2286116,23.7190193 12.5986777,23.7190193 L12.5037631,23.7190193 Z M46,5.50289256 L46,18.3399339 C46,21.3793554 43.5628871,23.845741 40.5234656,23.845741 L25.7328815,23.845741 C25.4437025,23.845741 25.2055923,23.8440937 25.0063857,23.8399118 C24.7976749,23.8356033 24.5627328,23.8339559 24.4711129,23.8440937 C24.3756915,23.9074545 24.1417631,24.121741 23.9163251,24.329438 C23.8269862,24.4116804 23.7258623,24.5021598 23.6167548,24.6017631 L19.4321488,28.4158347 C19.0983636,28.7203471 18.6045289,28.799168 18.1911625,28.6169421 C17.7777961,28.4345895 17.4876033,28.0252782 17.4876033,27.5735152 L17.4876033,15.4821047 L5.54027548,15.4821047 C3.75831405,15.4821047 2.28099174,16.9423196 2.28099174,18.7240275 L2.28099174,31.5610689 C2.28099174,33.3429036 3.75844077,34.7438127 5.54027548,34.7438127 L22.0614986,34.7438127 C22.345989,34.7438127 22.6121047,34.8744628 22.8222094,35.0663196 L26.231405,38.2095262 L26.231405,27.3698733 C26.231405,26.7399394 26.7419669,26.2293774 27.3719008,26.2293774 C28.0018347,26.2293774 28.5123967,26.7399394 28.5123967,27.3698733 L28.5123967,40.7945234 C28.5123967,41.2462865 28.2538843,41.6495152 27.8403912,41.8318678 C27.6925069,41.8971295 27.543989,41.922854 27.3885014,41.922854 C27.1092066,41.922854 26.8337135,41.8081708 26.619427,41.6125124 L21.6193664,37.0246777 L5.54027548,37.0246777 C2.50072727,37.0246777 0,34.6004904 0,31.5609421 L0,18.7240275 C0,15.6846061 2.50072727,13.2011129 5.54027548,13.2011129 L17.4876033,13.2011129 L17.4876033,5.50289256 C17.4876033,2.46334435 20.0074656,0.0220495868 23.0470138,0.0220495868 L40.5235923,0.0220495868 C43.5628871,0.0220495868 46,2.46334435 46,5.50289256 Z M43.7190083,5.50289256 C43.7190083,3.72105785 42.3051736,2.30304132 40.5234656,2.30304132 L23.0470138,2.30304132 C21.2651791,2.30304132 19.768595,3.72105785 19.768595,5.50289256 L19.768595,14.3522534 L19.768595,24.9885179 L22.0616253,22.9162369 C22.1678182,22.8192948 22.2868099,22.7305895 22.3736143,22.6505014 C23.4207163,21.6856419 23.6886061,21.5314215 25.0544132,21.5595537 C25.2406942,21.5634821 25.462584,21.564876 25.7328815,21.564876 L40.5234656,21.564876 C42.3051736,21.564876 43.7190083,20.1217686 43.7190083,18.3400606 L43.7190083,5.50289256 Z" id="Shape"></path>
                        </g>
                    </g>
                </g>
            </g>
        </g>
    </g>
</svg>