<?xml version="1.0" encoding="UTF-8" standalone="no"?>
<svg width="120px" height="120px" viewBox="0 0 120 120" version="1.1" xmlns="http://www.w3.org/2000/svg" xmlns:xlink="http://www.w3.org/1999/xlink">
    <!-- Generator: Sketch 50.2 (55047) - http://www.bohemiancoding.com/sketch -->
    <title>english</title>
    <desc>Created with Sketch.</desc>
    <defs></defs>
    <g id="Page-1" stroke="none" stroke-width="1" fill="none" fill-rule="evenodd">
        <g id="Powercode-Academy-Landing-333" transform="translate(-791.000000, -2510.000000)">
            <g id="FEATURES" transform="translate(0.000000, 2105.000000)">
                <g id="icons" transform="translate(390.000000, 165.000000)">
                    <g id="english" transform="translate(401.000000, 240.000000)">
                        <circle id="Oval-2-Copy-15" stroke="#8DCEFF" stroke-width="2" cx="60" cy="60" r="59"></circle>
                        <path d="M88.2912109,40.6758203 C87.5901953,40.6758203 71.0033594,40.6758203 69.46,40.6758203 L69.46,33.5804688 C69.46,33.0949609 69.0666016,32.7015625 68.5810937,32.7015625 C35.6142578,32.7015625 36.8051172,32.550625 35.9448437,32.8810938 C35.3548047,30.1189844 31.001875,30.4952734 31.001875,33.3771484 L31.001875,88.6266016 C31.0017578,89.9352344 32.0665234,91 33.3752734,91 L33.6242969,91 C34.9330469,91 35.9978125,89.9352344 35.9978125,88.6264844 L35.9978125,79.5544141 C35.9978125,79.0689063 35.6042969,78.6755078 35.1189062,78.6755078 C34.6335156,78.6755078 34.24,79.0689063 34.24,79.5544141 L34.24,88.6264844 C34.24,88.9659766 33.9637891,89.2421875 33.6242969,89.2421875 L33.3752734,89.2421875 C33.0357812,89.2421875 32.7595703,88.9660938 32.7595703,88.6264844 L32.7595703,33.3771484 C32.7595703,33.0377734 33.0357812,32.7615625 33.3752734,32.7615625 L33.6242969,32.7615625 C33.9637891,32.7615625 34.24,33.0376563 34.24,33.3771484 C34.24,38.8416016 34.24,71.2304688 34.24,76.6250781 C34.24,77.1105859 34.6335156,77.5039844 35.1189062,77.5039844 C35.6042969,77.5039844 35.9978125,77.1105859 35.9978125,76.6250781 L35.9978125,72.1589453 C36.6317969,72.3896875 34.6064453,72.3189063 61.7401562,72.3189063 C61.7401562,79.6853125 61.4577344,80.2932813 62.6209375,80.2932813 C64.0690234,80.2932813 87.1106641,80.2932813 88.3305859,80.2932813 C89.8014062,80.2932813 90.9980078,79.0965625 90.9980078,77.625625 C90.9980078,75.1827344 90.9980078,44.6494141 90.9980078,43.3433594 C90.9980078,41.9252734 89.8696094,40.6758203 88.2912109,40.6758203 Z M69.4601172,52.5472656 L78.0448047,47.7431641 C78.4683203,47.5062109 78.6194922,46.9705469 78.3825391,46.5469141 C78.1455859,46.1236328 77.6101562,45.9721094 77.1862891,46.2091797 L69.4601172,50.5328125 L69.4601172,42.43375 L83.9326562,42.43375 L79.9342187,44.6713281 C79.5105859,44.9082813 79.3594141,45.4439453 79.5963672,45.8674609 C79.8333203,46.2909766 80.3689844,46.4422656 80.7925,46.2053125 L87.5321875,42.43375 L88.2913281,42.43375 C88.7930078,42.43375 89.2011719,42.8417969 89.2011719,43.3435938 L89.2011719,43.755625 L71.0062891,53.9380469 L69.4601172,53.9380469 L69.4601172,52.5472656 Z M76.9534375,53.8939844 C76.9288281,53.9075781 76.9052734,53.9224609 76.8824219,53.9379297 L74.6057031,53.9379297 L89.2010547,45.7699609 L89.2010547,47.1390625 L76.9534375,53.8939844 Z M89.2010547,49.1464844 L89.2010547,53.9379297 L80.5135937,53.9379297 L89.2010547,49.1464844 Z M60.5264453,46.8424609 C60.5264453,45.5492969 60.5264453,36.0300391 60.5264453,34.459375 L61.7401562,34.459375 L61.7401562,48.6503125 L35.9978125,48.6503125 L35.9978125,47.7213672 C36.203125,47.7213672 59.0773047,47.7213672 59.6475391,47.7213672 C60.1329297,47.7213672 60.5264453,47.3279688 60.5264453,46.8424609 Z M35.9978125,45.9635547 L35.9978125,37.7736719 L50.6326562,45.9635547 C50.6326562,45.9635547 35.9978125,45.9635547 35.9978125,45.9635547 Z M58.7686328,34.459375 L58.7686328,40.7877344 L47.3833984,34.459375 L58.7686328,34.459375 Z M43.7651172,34.459375 L58.7686328,42.7989063 L58.7686328,44.2322266 L41.3054687,34.459375 L43.7651172,34.459375 Z M35.9976953,35.7593359 C35.9976953,35.5430078 35.8861328,34.5985938 36.7775781,34.4698047 C36.8918359,34.4536328 36.8790625,34.459375 37.7059375,34.459375 L58.2628516,45.9635547 L54.2320703,45.9635547 L35.9976953,35.7593359 Z M35.9978125,59.0567969 L44.9494141,59.0567969 L35.9978125,63.9939063 L35.9978125,59.0567969 Z M35.9978125,66.0013281 C36.0575781,65.9683984 48.5266797,59.0926563 48.5848047,59.0567969 L51.0272266,59.0567969 L35.9978125,67.7918359 L35.9978125,66.0013281 Z M58.7686328,70.5609766 L42.1472266,70.5609766 L46.0508594,68.2922266 C46.4705078,68.0483594 46.6130078,67.5103516 46.3691406,67.0907031 C46.1251562,66.6708203 45.5869141,66.5284375 45.1676172,66.7724219 L38.6490625,70.5609766 C36.9261719,70.5609766 36.5174219,70.6703125 36.1653906,70.1748438 C36.0839453,70.0601172 36.0358984,69.9383594 36.0135156,69.8157813 L54.5255078,59.0567969 L58.4428516,59.0567969 L47.7293359,65.2835547 C47.3096875,65.5274219 47.1671875,66.0654297 47.4110547,66.4850781 C47.6549219,66.9047266 48.1930469,67.0472266 48.6125781,66.8033594 L58.7686328,60.900625 L58.7686328,70.5609766 Z M61.7401562,70.5609766 L60.5264453,70.5609766 C60.5264453,69.019375 60.5264453,59.7492578 60.5264453,58.1778906 C60.5264453,57.6923828 60.1329297,57.2989844 59.6475391,57.2989844 C58.3663281,57.2989844 37.2537109,57.2989844 35.9978125,57.2989844 L35.9978125,56.3701563 L61.7401562,56.3701563 L61.7401562,70.5609766 Z M62.6190625,54.6124609 L35.9978125,54.6124609 L35.9978125,50.408125 L62.6190625,50.408125 C63.1045703,50.408125 63.4979687,50.0147266 63.4979687,49.5292188 L63.4979687,34.459375 L67.7021875,34.459375 C67.7021875,51.7110156 67.7021875,53.4547656 67.7021875,53.5936328 C67.7021875,53.6018359 67.7021875,53.6045313 67.7021875,53.6042969 C67.7021875,53.7370703 67.7021875,55.3373828 67.7021875,70.5609766 L63.4979687,70.5609766 L63.4979687,55.4913672 C63.4979687,55.0058594 63.1045703,54.6124609 62.6190625,54.6124609 Z M63.4979687,72.3187891 L66.4670312,72.3187891 L66.7182812,72.4636328 C66.0697656,73.3310547 64.1638281,75.8803516 63.4979687,76.7708594 L63.4979687,72.3187891 Z M66.4302344,78.5352344 L66.4302344,75.7846094 L68.2520312,73.3479297 L77.2481641,78.5352344 L66.4302344,78.5352344 Z M80.7668359,78.5352344 L69.3109375,71.9296094 C69.5133203,71.6284375 69.46,71.4069531 69.46,70.4621875 L83.8048047,78.5352344 L80.7668359,78.5352344 Z M89.2010547,77.625625 C89.2010547,78.1273047 88.7930078,78.5354688 88.2912109,78.5354688 L87.3888672,78.5354688 L87.3888672,78.5353516 L69.46,68.4451563 L69.46,67.0311719 L70.9611719,67.0311719 L89.2010547,77.2963281 L89.2010547,77.625625 Z M89.2010547,75.2791797 L74.5453516,67.0311719 L89.2010547,67.0311719 L89.2010547,75.2791797 Z M89.2401953,65.2733594 C88.2902734,65.2733594 70.1986328,65.2733594 69.46,65.2733594 L69.46,64.3444141 L89.2401953,64.3444141 L89.2401953,65.2733594 Z M89.2401953,62.5866016 L69.46,62.5866016 L69.46,58.3822656 L89.2401953,58.3822656 L89.2401953,62.5866016 Z M89.2401953,56.6245703 L69.46,56.6245703 L69.46,55.6957422 C70.2068359,55.6957422 88.2934375,55.6957422 89.2401953,55.6957422 L89.2401953,56.6245703 Z" id="Shape" fill="#FFFFFF" fill-rule="nonzero"></path>
                    </g>
                </g>
            </g>
        </g>
    </g>
</svg>