<svg xmlns="http://www.w3.org/2000/svg" width="44" height="44" viewBox="0 0 44 44">
    <g fill="#52489C" fill-rule="nonzero" stroke="#52489C" stroke-width=".4">
        <path d="M37.75 29H29a.874.874 0 0 0-.619 1.494l4.119 4.118v3.138h-.875a.875.875 0 1 0 0 1.75h3.5a.875.875 0 1 0 0-1.75h-.875v-3.138l4.119-4.118A.874.874 0 0 0 37.75 29zm-4.375 4.013l-2.263-2.263h4.526l-2.263 2.263z"/>
        <path d="M39.5 25.956V8c0-1.93-1.57-3.5-3.5-3.5h-5.25V1.875a.874.874 0 1 0-1.75 0V4.5H13.25V1.875a.874.874 0 1 0-1.75 0V4.5h-7C2.57 4.5 1 6.07 1 8v28c0 1.93 1.57 3.5 3.5 3.5h21.456a9.61 9.61 0 0 0 7.419 3.5C38.682 43 43 38.682 43 33.375a9.61 9.61 0 0 0-3.5-7.419zM2.75 8c0-.965.785-1.75 1.75-1.75h7V8c-.965 0-1.75.785-1.75 1.75s.785 1.75 1.75 1.75 1.75-.785 1.75-1.75v-3.5H29V8c-.965 0-1.75.785-1.75 1.75s.785 1.75 1.75 1.75 1.75-.785 1.75-1.75v-3.5H36c.965 0 1.75.785 1.75 1.75v5.25h-35V8zM4.5 37.75c-.965 0-1.75-.785-1.75-1.75V15h35v9.813a9.556 9.556 0 0 0-4.375-1.063c-5.307 0-9.625 4.318-9.625 9.625 0 1.576.388 3.06 1.063 4.375H4.5zm28.875 3.5c-4.343 0-7.875-3.532-7.875-7.875 0-4.342 3.533-7.875 7.875-7.875 4.343 0 7.875 3.533 7.875 7.875 0 4.343-3.532 7.875-7.875 7.875z"/>
    </g>
</svg>
