<?xml version="1.0" encoding="UTF-8" standalone="no"?>
<svg width="24px" height="24px" viewBox="0 0 24 24" version="1.1" xmlns="http://www.w3.org/2000/svg" xmlns:xlink="http://www.w3.org/1999/xlink">
    <!-- Generator: Sketch 50.2 (55047) - http://www.bohemiancoding.com/sketch -->
    <title>event</title>
    <desc>Created with Sketch.</desc>
    <defs></defs>
    <g id="Page-1" stroke="none" stroke-width="1" fill="none" fill-rule="evenodd">
        <g id="Powercode-Academy-Landing-333" transform="translate(-528.000000, -3199.000000)" fill="#52489C" fill-rule="nonzero">
            <g id="EVENTS" transform="translate(0.000000, 2927.000000)">
                <g id="event_cell" transform="translate(390.000000, 154.000000)">
                    <g id="event" transform="translate(138.236819, 118.000000)">
                        <path d="M21.6767348,14.260875 L21.6767348,3.99998437 C21.6767348,2.89696875 20.7924527,1.99996875 19.7061058,1.99996875 L17.2428541,1.99996875 C16.9705399,1.99996875 16.7501853,2.22360937 16.7501853,2.49998437 L16.7501853,4.99996875 C16.7501853,5.55121875 16.3085061,5.99995312 15.7648939,5.99995312 C15.2212816,6 14.7796024,5.55126563 14.7796024,5.00001562 C14.7796024,4.58203125 15.0442035,4.20557812 15.4377566,4.0635 C15.6340482,3.99220313 15.7648939,3.80371875 15.7648939,3.5923125 L15.7648939,0.500015625 C15.7648939,0.223640625 15.5445854,0 15.2722712,0 C14.9999571,0 14.7796024,0.223640625 14.7796024,0.500015625 L14.7796024,2.00001563 L7.38980121,2.00001563 C7.11748704,2.00001563 6.8971324,2.22365625 6.8971324,2.50003125 L6.8971324,5.00001562 C6.8971324,5.55126563 6.45545322,6 5.91184097,6 C5.36822872,6 4.92654954,5.55126562 4.92654954,5.00001562 C4.92654954,4.58203125 5.19115061,4.20557812 5.58470371,4.0635 C5.7809953,3.99220313 5.91184097,3.80371875 5.91184097,3.5923125 L5.91184097,0.500015625 C5.91184097,0.223640625 5.69148633,0 5.41917216,0 C5.14685798,0 4.92650335,0.223640625 4.92650335,0.500015625 L4.92650335,2.00001563 L1.97058287,2.00001563 C0.884282087,2.00001563 0,2.89696875 0,3.99998437 L0,19.9999688 C0,21.1029844 0.884282087,21.9999844 1.97062905,21.9999844 L14.0512451,21.9999844 C15.0461895,23.22075 16.5492751,24 18.2281917,24 C21.2158422,24 23.6473639,21.5327344 23.6473639,18.5000156 C23.6473639,16.7959219 22.8794712,15.2704687 21.6767348,14.260875 Z M12.8089734,18.5000156 C12.8089734,19.0205156 12.8853654,19.5224062 13.0190747,20.0000156 L1.97062905,20.0000156 L1.97062905,8.00001562 L19.706152,8.00001562 L19.706152,13.2132656 C19.2355602,13.0774688 18.7410439,13.0000313 18.2281917,13.0000313 C15.2404951,12.9999844 12.8089734,15.4672969 12.8089734,18.5000156 Z M20.0544425,20.3535 C19.9582365,20.4511406 19.8321481,20.4999844 19.7061058,20.4999844 C19.5800635,20.4999844 19.4540212,20.4511406 19.357769,20.3535 L17.8798088,18.8535 C17.7874363,18.75975 17.7354767,18.6328125 17.7354767,18.4999688 L17.7354767,15.4999688 C17.7354767,15.2235938 17.9558314,14.9999531 18.2281455,14.9999531 C18.5004597,14.9999531 18.7208143,15.2235938 18.7208143,15.4999688 L18.7208143,18.2929219 L20.0544425,19.6464375 C20.2469007,19.8418125 20.2469007,20.1582187 20.0544425,20.3535 Z" id="Shape"></path>
                    </g>
                </g>
            </g>
        </g>
    </g>
</svg>