<?xml version="1.0" encoding="UTF-8" standalone="no"?>
<svg width="44px" height="44px" viewBox="0 0 44 44" version="1.1" xmlns="http://www.w3.org/2000/svg" xmlns:xlink="http://www.w3.org/1999/xlink">
    <!-- Generator: Sketch 50.2 (55047) - http://www.bohemiancoding.com/sketch -->
    <title>event (5)</title>
    <desc>Created with Sketch.</desc>
    <defs></defs>
    <g id="Page-1" stroke="none" stroke-width="1" fill="none" fill-rule="evenodd">
        <g id="Powercode-Academy-Landing-Features-5" transform="translate(-1232.000000, -183.000000)" fill="#52489C" fill-rule="nonzero" stroke="#52489C" stroke-width="0.4">
            <g id="FEATURES">
                <g id="icons" transform="translate(390.000000, 165.000000)">
                    <g id="community" transform="translate(802.000000, 0.000000)">
                        <g id="event-(5)" transform="translate(41.000000, 19.000000)">
                            <path d="M36.75,27.9999727 L27.9999727,27.9999727 C27.6461719,27.9999727 27.3266602,28.2127617 27.1916367,28.5399844 C27.055793,28.8672891 27.1309336,29.2432383 27.381375,29.4935977 L31.5,33.6123047 L31.5,36.75 L30.6249727,36.75 C30.1413164,36.75 29.7499453,37.1413711 29.7499453,37.6250273 C29.7499453,38.1086836 30.1413164,38.5000547 30.6249727,38.5000547 L34.125,38.5000547 C34.6086562,38.5000547 35.0000273,38.1086836 35.0000273,37.6250273 C35.0000273,37.1413711 34.6086562,36.75 34.125,36.75 L33.2499727,36.75 L33.2499727,33.6123047 L37.3685977,29.4936797 C37.618957,29.2433203 37.6941797,28.8673711 37.5583359,28.5400664 C37.4233125,28.2127617 37.1038008,27.9999727 36.75,27.9999727 Z M32.3750273,32.0126953 L30.1123594,29.7500273 L34.6377773,29.7500273 L32.3750273,32.0126953 Z" id="Shape"></path>
                            <path d="M38.4999727,24.9562031 L38.4999727,6.99997266 C38.4999727,5.06969531 36.9303047,3.49994531 34.9999453,3.49994531 L29.7499453,3.49994531 L29.7499453,0.874945312 C29.7500273,0.391371094 29.3586563,0 28.875,0 C28.3913437,0 27.9999727,0.391371094 27.9999727,0.875027344 L27.9999727,3.50002734 L12.2499727,3.50002734 L12.2499727,0.875027344 C12.2499727,0.391371094 11.8586836,0 11.3750273,0 C10.8913711,0 10.5,0.391371094 10.5,0.875027344 L10.5,3.50002734 L3.50002734,3.50002734 C1.56966797,3.50002734 0,5.06969531 0,6.99997266 L0,34.9999453 C0,36.9302227 1.56966797,38.4999727 3.50002734,38.4999727 L24.9562031,38.4999727 C26.7230742,40.6363125 29.3926172,42 32.3750273,42 C37.6822852,42 42,37.6822852 42,32.3750273 C42,29.3926172 40.6363125,26.7230742 38.4999727,24.9562031 Z M1.74997266,6.99997266 C1.74997266,6.03528516 2.53525781,5.25 3.50002734,5.25 L10.5,5.25 L10.5,6.99997266 C9.5353125,6.99997266 8.75002734,7.78525781 8.75002734,8.74994531 C8.75002734,9.71463281 9.5353125,10.499918 10.5,10.499918 C11.4646875,10.499918 12.2499727,9.71463281 12.2499727,8.74994531 L12.2499727,5.25 L27.9999727,5.25 L27.9999727,6.99997266 C27.0352852,6.99997266 26.25,7.78525781 26.25,8.74994531 C26.25,9.71463281 27.0352852,10.499918 27.9999727,10.499918 C28.9646602,10.499918 29.7499453,9.71463281 29.7499453,8.74994531 L29.7499453,5.25 L34.9999453,5.25 C35.9647148,5.25 36.75,6.03528516 36.75,6.99997266 L36.75,12.2499727 L1.74997266,12.2499727 L1.74997266,6.99997266 Z M3.50002734,36.75 C2.53533984,36.75 1.75005469,35.9647148 1.75005469,35.0000273 L1.75005469,14.0000273 L36.75,14.0000273 L36.75,23.8126055 C35.4356133,23.1383086 33.9510117,22.7500547 32.3750273,22.7500547 C27.0677695,22.7500547 22.7500547,27.0677695 22.7500547,32.3750273 C22.7500547,33.9510117 23.1383086,35.4356133 23.8126055,36.75 L3.50002734,36.75 Z M32.3750273,40.2500273 C28.032457,40.2500273 24.5000273,36.7175156 24.5000273,32.3750273 C24.5000273,28.0325391 28.0325391,24.5000273 32.3750273,24.5000273 C36.7175156,24.5000273 40.2500273,28.0325391 40.2500273,32.3750273 C40.2500273,36.7175156 36.7175156,40.2500273 32.3750273,40.2500273 Z" id="Shape"></path>
                        </g>
                    </g>
                </g>
            </g>
        </g>
    </g>
</svg>