<?xml version="1.0" encoding="UTF-8" standalone="no"?>
<svg width="48px" height="43px" viewBox="0 0 48 43" version="1.1" xmlns="http://www.w3.org/2000/svg" xmlns:xlink="http://www.w3.org/1999/xlink">
    <!-- Generator: Sketch 50.2 (55047) - http://www.bohemiancoding.com/sketch -->
    <title>funds</title>
    <desc>Created with Sketch.</desc>
    <defs></defs>
    <g id="Page-1" stroke="none" stroke-width="1" fill="none" fill-rule="evenodd">
        <g id="Powercode-Academy-Landing-Features-2" transform="translate(-626.000000, -488.000000)" fill="#52489C" fill-rule="nonzero">
            <g id="FEATURES">
                <g id="icons" transform="translate(390.000000, 165.000000)">
                    <g id="king-hover" transform="translate(200.000000, 120.000000)">
                        <g id="funds" transform="translate(36.000000, 203.000000)">
                            <path d="M36.6118646,18.0380316 C36.610781,18.0291467 36.6101309,18.0201535 36.6088307,18.011377 C36.6025463,17.9676027 36.5942032,17.9239368 36.5823928,17.8808126 C36.5822844,17.8803792 36.5820677,17.8799458 36.5819594,17.8794041 C36.5709074,17.8390971 36.5568217,17.7993318 36.5408939,17.76 C36.5363431,17.7487314 36.5313589,17.7378962 36.5264831,17.7268442 C36.5139142,17.698456 36.4999368,17.6705011 36.4847675,17.6429797 C36.478158,17.6309526 36.4717652,17.6189255 36.464614,17.6071151 C36.4608217,17.6007223 36.4577878,17.5941129 36.4537788,17.5877201 C36.4377427,17.5622573 36.4201896,17.5383115 36.4024199,17.5145824 C36.3990609,17.51014 36.3963521,17.5054808 36.3929932,17.5011467 C36.3659052,17.4660406 36.3366501,17.4334266 36.3059865,17.4025463 C36.3002438,17.3966953 36.2939594,17.3912777 36.288,17.3856433 C36.2613454,17.3599639 36.2337156,17.3359097 36.2048939,17.3132641 C36.197526,17.3075214 36.1903747,17.3017788 36.1827901,17.2962528 C36.1442167,17.2676479 36.1044515,17.2409932 36.0629526,17.2179142 L20.0999729,8.14418059 L29.2909436,2.35665914 L44.699377,11.1149797 L38.2100587,15.2012641 C37.7036208,15.5200361 37.5516027,16.1891106 37.8704831,16.6954402 C38.1892551,17.2018781 38.8582212,17.3538962 39.3646591,17.0350158 L47.385535,11.9843973 C47.707991,11.7814537 47.9000993,11.424 47.8914312,11.0430339 C47.8828713,10.6620677 47.6749436,10.3138239 47.3436027,10.1255079 L29.7978149,0.152126411 C29.450763,-0.0452911964 29.0230971,-0.0355395034 28.6850384,0.177155756 L17.4211828,7.26999549 C17.4189074,7.27140406 17.4165237,7.27292099 17.4142483,7.27432957 L11.7856795,10.8186366 C11.783079,10.8202619 11.7804786,10.8218871 11.7779865,10.8235124 L0.506437923,17.921228 C0.183981941,18.1241716 -0.00812641084,18.4816253 0.000541760722,18.8625914 C0.00910158014,19.2435576 0.217029345,19.5918014 0.548370203,19.7801174 L18.0942664,29.7534989 C18.2604786,29.8480903 18.4451106,29.8951151 18.6296343,29.8951151 C18.8304108,29.8951151 19.0308623,29.8393138 19.2069345,29.7284695 L27.2278104,24.6777427 C27.7342483,24.3589707 27.8862664,23.6898962 27.567386,23.1835666 C27.2487223,22.6771287 26.5795395,22.5250023 26.0732099,22.843991 L18.6011377,27.5490745 L3.19270429,18.7905372 L12.3837833,13.0029074 L28.817553,22.3441625 L28.817553,34.7160271 C28.817553,35.1106456 29.0319819,35.4739503 29.3774086,35.6646501 C29.5406953,35.7547991 29.7209932,35.7995485 29.9010745,35.7995485 C30.1019594,35.7995485 30.3024108,35.7437472 30.4783747,35.6329029 L36.1142032,32.0840451 C36.4292912,31.8856524 36.6204244,31.5394673 36.6204244,31.1671693 L36.6204244,18.164912 C36.6204244,18.1585192 36.6193409,18.1524515 36.6191242,18.1460587 C36.618474,18.1100858 36.6160903,18.0741129 36.6118646,18.0380316 Z M30.9845959,32.7534447 L30.9845959,21.7138781 C30.9845959,21.3241354 30.7752596,20.9645147 30.4364424,20.7719729 L14.4641445,11.6930384 L18.0195034,9.45415801 L33.4278284,18.2125869 L32.0787359,19.0620677 C31.572298,19.3808397 31.4202799,20.0499142 31.7391603,20.5562438 C31.9450293,20.8834673 32.2970655,21.0625734 32.6571196,21.0625734 C32.8543205,21.0625734 33.0541219,21.0087223 33.2333363,20.8958194 L34.4532731,20.1277111 L34.4532731,30.5691738 L30.9845959,32.7534447 Z" id="Shape"></path>
                            <path d="M46.2310429,14.484623 L38.210167,19.5352415 C37.7037291,19.8540135 37.5517111,20.523088 37.8705914,21.0294176 C38.0764605,21.3566411 38.4284966,21.5357472 38.7885508,21.5357472 C38.9857517,21.5357472 39.185553,21.4818962 39.3647675,21.3689932 L47.3856433,16.3183747 C47.8920813,15.9996027 48.0440993,15.3305282 47.725219,14.8241986 C47.406447,14.3177607 46.7373725,14.1656343 46.2310429,14.484623 Z" id="Shape"></path>
                            <path d="M26.0731016,27.1779684 L18.6010293,31.8830519 L1.61910609,22.2302844 C1.09923251,21.9346998 0.437417607,22.116298 0.141724605,22.6368217 C-0.153968397,23.1570203 0.0279548533,23.8185102 0.548261851,24.1142032 L18.094158,34.0875847 C18.2603702,34.1821761 18.4450023,34.2292009 18.629526,34.2292009 C18.8303025,34.2292009 19.030754,34.1733995 19.2068262,34.0625553 L27.227702,29.0118284 C27.73414,28.6930564 27.886158,28.0239819 27.5672777,27.5176524 C27.248614,27.0111061 26.5794312,26.8589797 26.0731016,27.1779684 Z" id="Shape"></path>
                            <path d="M46.2310429,18.8187088 L38.210167,23.8693273 C37.7037291,24.1880993 37.5517111,24.8571738 37.8705914,25.3635034 C38.0764605,25.6907269 38.4284966,25.869833 38.7885508,25.869833 C38.9857517,25.869833 39.185553,25.8159819 39.3647675,25.703079 L47.3856433,20.6524605 C47.8920813,20.3336885 48.0440993,19.664614 47.725219,19.1582844 C47.406447,18.6517381 46.7373725,18.4997201 46.2310429,18.8187088 Z" id="Shape"></path>
                            <path d="M26.0731016,31.5120542 L18.6010293,36.2171377 L1.61910609,26.5643702 C1.09923251,26.2687856 0.437417607,26.4503837 0.141724605,26.9709074 C-0.153968397,27.4911061 0.0279548533,28.1525959 0.548261851,28.4482889 L18.094158,38.4216704 C18.2603702,38.5162619 18.4450023,38.5632867 18.629526,38.5632867 C18.8303025,38.5632867 19.030754,38.5074853 19.2068262,38.3966411 L27.227702,33.3459142 C27.73414,33.0271422 27.886158,32.3580677 27.5672777,31.8517381 C27.248614,31.3450835 26.5794312,31.1930655 26.0731016,31.5120542 Z" id="Shape"></path>
                            <path d="M46.2310429,23.1527946 L38.210167,28.2034131 C37.7037291,28.5221851 37.5517111,29.1912596 37.8705914,29.6975892 C38.0764605,30.0248126 38.4284966,30.2039187 38.7885508,30.2039187 C38.9857517,30.2039187 39.185553,30.1500677 39.3647675,30.0371648 L47.3856433,24.9865463 C47.8920813,24.6677743 48.0440993,23.9986998 47.725219,23.4923702 C47.406447,22.9859323 46.7373725,22.8339142 46.2310429,23.1527946 Z" id="Shape"></path>
                            <path d="M26.0731016,35.84614 L18.6010293,40.5512235 L1.61910609,30.898456 C1.09923251,30.6028713 0.437417607,30.7844695 0.141724605,31.3049932 C-0.153968397,31.8251919 0.0279548533,32.4866817 0.548261851,32.7823747 L18.094158,42.7557562 C18.2603702,42.8503476 18.4450023,42.8973725 18.629526,42.8973725 C18.8303025,42.8973725 19.030754,42.8415711 19.2068262,42.7307269 L27.227702,37.68 C27.73414,37.361228 27.886158,36.6921535 27.5672777,36.1858239 C27.248614,35.6792777 26.5794312,35.5271512 26.0731016,35.84614 Z" id="Shape"></path>
                        </g>
                    </g>
                </g>
            </g>
        </g>
    </g>
</svg>