<svg xmlns="http://www.w3.org/2000/svg" width="40" height="40" viewBox="0 0 40 40">
    <g fill="none" fill-rule="evenodd">
        <circle cx="20" cy="20" r="20" fill="#FFF"/>
        <path fill="#ED5438" d="M28.368 18.722h-.438v-.088-.307c0-.56.01-1.119 0-1.689 0-.088-.11-.252-.154-.252-.504-.022-1.02-.022-1.557-.022V18.7h-2.358v.428c.022.417.033.844.066 1.261.406.022.812.044 1.238.044.342.01.692 0 1.064 0v2.303c.582-.011 1.12 0 1.7 0v-2.303h2.304v-1.305-.406h-1.865zm-6.635-.208c-1.458.022-2.917.022-4.376.022-.416 0-.844-.022-1.25 0-.088 0-.22.098-.22.153-.01.845-.01 1.689-.01 2.567h3.564a1.827 1.827 0 0 1-.12.427c-.538 1.623-2.216 2.424-4.026 2.128-2.237-.373-3.619-2.435-3.213-4.672.044-.318.153-.625.263-.91.746-1.624 2.577-2.611 4.387-2.205a3.615 3.615 0 0 1 1.677.866l1.964-1.963c-.044-.033-.12-.087-.164-.142-1.58-1.327-3.39-1.821-5.418-1.481-2.93.472-5.034 2.775-5.484 5.462a6.596 6.596 0 0 0 .33 3.542 6.75 6.75 0 0 0 7.051 4.245c1.503-.165 2.84-.702 3.872-1.81 1.545-1.645 1.95-3.619 1.7-5.801-.045-.362-.187-.428-.527-.428z"/>
    </g>
</svg>
