<?xml version="1.0" encoding="UTF-8" standalone="no"?>
<svg width="48px" height="54px" viewBox="0 0 48 54" version="1.1" xmlns="http://www.w3.org/2000/svg" xmlns:xlink="http://www.w3.org/1999/xlink">
    <!-- Generator: Sketch 50.2 (55047) - http://www.bohemiancoding.com/sketch -->
    <title>PC grow</title>
    <desc>Created with Sketch.</desc>
    <defs></defs>
    <g id="Page-1" stroke="none" stroke-width="1" fill="none" fill-rule="evenodd">
        <g id="Powercode-Academy-Landing-333" transform="translate(-426.000000, -2455.000000)" fill="#52489C" fill-rule="nonzero">
            <g id="FEATURES" transform="translate(0.000000, 2105.000000)">
                <g id="icons" transform="translate(390.000000, 165.000000)">
                    <g id="grow-hover">
                        <path d="M59.700181,211.285919 L60.279166,211.285919 C60.703755,211.285919 61.0125469,211.208721 61.1669429,211.015726 C61.3213389,210.822731 61.4371359,210.513939 61.4757349,210.012152 C61.4757349,209.819157 61.5143339,209.664761 61.5143339,209.510365 C61.5143339,209.433167 61.5143339,209.355969 61.5143339,209.278771 C61.5143339,209.085776 61.3985369,208.93138 61.2827399,208.854182 C61.1283439,208.738385 60.8967499,208.699786 60.587958,208.699786 L59.970374,208.699786 L59.700181,211.285919 Z M74.2520037,211.980701 C73.8274147,211.63331 73.4028257,211.285919 72.9396377,210.938528 C72.5922467,210.668335 72.2062567,210.398142 71.8588657,210.127949 C71.5500738,208.197999 70.8166928,206.422445 69.7359208,204.878485 C69.7359208,205.573267 69.6587228,206.808435 69.4657278,208.429593 C69.3885298,208.969979 69.3113318,209.587563 69.1955348,210.205147 C68.9639408,211.478914 68.6551488,212.868477 68.2305598,214.373838 C68.1147628,214.798427 67.9989658,215.223016 67.8445698,215.647605 C67.8445698,215.647605 67.8445698,215.493209 67.8445698,215.184417 C67.8445698,214.991422 67.8445698,214.798427 67.8445698,214.605432 C67.8831688,213.717655 67.8831688,212.829878 67.8831688,211.942102 C67.8831688,211.054325 67.8831688,210.166548 67.8445698,209.31737 C67.8445698,208.661187 67.8059708,207.966405 67.7673718,207.310222 C67.6901738,205.611866 67.5357778,203.990708 67.3813818,202.408149 C67.3813818,202.408149 67.3427828,202.060758 67.3041838,201.906362 C67.2655848,201.636169 67.2269858,201.365976 67.1883868,201.095783 L69.6973218,200.246605 C70.4693018,201.636169 71.8974647,202.639743 73.5572217,202.794139 C73.7116177,202.794139 73.9046127,202.832738 74.0590087,202.832738 C76.4521467,202.832738 78.4592946,201.172981 78.9610816,198.934239 C79.0382796,198.586848 79.0768786,198.200858 79.0768786,197.814868 C79.0768786,197.467477 79.0382796,197.120086 78.9610816,196.811294 C78.6136906,195.074339 77.3399236,193.646176 75.6415677,193.067191 C75.1397807,192.912795 74.5993947,192.796998 74.0204097,192.796998 C71.2412818,192.796998 69.0025398,195.03574 69.0025398,197.814868 C69.0025398,198.12366 69.0411388,198.432452 69.0797378,198.741244 C68.3849558,198.972838 67.6901738,199.243031 66.9567928,199.513224 C65.6058279,190.905647 62.8652989,185 59.73878,185 C56.612261,185 53.8717321,190.867048 52.5207671,199.474625 C44.4149773,196.348106 37.9689444,195.769121 36.3863854,198.471051 C34.8038264,201.172981 38.5093304,206.461044 45.3027542,211.980701 C45.3799522,212.019299 45.4571502,212.096497 45.4957492,212.135096 C45.4185512,212.096497 45.3413532,212.019299 45.3027542,211.980701 C38.5093304,217.461758 34.8038264,222.711222 36.3477864,225.451751 C37.9303454,228.19228 44.3763783,227.613295 52.5207671,224.486776 C53.8717321,233.094353 56.612261,239 59.73878,239 C62.8652989,239 65.6058279,233.132952 66.9567928,224.525375 C75.0625827,227.651894 81.5086156,228.230879 83.0911745,225.528949 C84.7509315,222.749821 81.0068286,217.461758 74.2520037,211.980701 Z M72.1676577,198.779843 L72.3992517,196.5797 C72.4378507,196.232309 72.4764497,195.962116 72.5922467,195.691923 C72.6694447,195.460329 72.7852417,195.228735 72.9396377,195.03574 C73.0940337,194.842745 73.2870287,194.726948 73.5572217,194.611151 C73.7888157,194.533953 74.0976077,194.456755 74.4449987,194.456755 C74.7537907,194.456755 75.0239837,194.495354 75.2555777,194.572552 C75.4871717,194.64975 75.6415677,194.765547 75.7573647,194.958542 C75.8731617,195.112938 75.9503597,195.305933 75.9889587,195.498928 C76.0275577,195.614725 76.0275577,195.730522 76.0275577,195.884918 C76.0275577,196.000715 76.0275577,196.116512 76.0275577,196.232309 L75.9503597,196.772695 L74.7151917,196.772695 L74.7923897,196.19371 C74.7923897,196.116512 74.7923897,196.077913 74.7923897,196.039314 C74.7923897,196.000715 74.7923897,195.962116 74.7923897,195.884918 C74.7923897,195.80772 74.7923897,195.769121 74.7923897,195.730522 C74.7923897,195.691923 74.7923897,195.653324 74.7923897,195.614725 C74.7923897,195.576126 74.7923897,195.537527 74.7537907,195.498928 C74.7537907,195.460329 74.7151917,195.460329 74.7151917,195.42173 C74.6765927,195.383131 74.6765927,195.383131 74.6379937,195.344532 C74.5993947,195.344532 74.5607957,195.305933 74.5221967,195.305933 C74.4835977,195.305933 74.4063997,195.305933 74.3678007,195.305933 C74.2906027,195.305933 74.2134047,195.305933 74.1362067,195.344532 C74.0590087,195.383131 74.0204097,195.383131 73.9818107,195.460329 C73.9432117,195.498928 73.9046127,195.537527 73.8660137,195.614725 C73.8274147,195.653324 73.8274147,195.730522 73.7888157,195.80772 C73.7502167,195.884918 73.7502167,195.962116 73.7502167,196.039314 C73.7502167,196.116512 73.7116177,196.19371 73.7116177,196.270908 L73.4414247,199.011437 C73.4414247,199.127234 73.4414247,199.204432 73.4414247,199.320229 C73.4414247,199.474625 73.4800237,199.629021 73.5186227,199.706219 C73.5958207,199.860615 73.7116177,199.937813 73.9432117,199.937813 C74.0204097,199.937813 74.0976077,199.937813 74.1748057,199.899214 C74.2520037,199.860615 74.2906027,199.860615 74.3292017,199.783417 C74.3678007,199.744818 74.4063997,199.706219 74.4449987,199.629021 C74.4835977,199.590422 74.4835977,199.513224 74.5221967,199.436026 C74.5221967,199.358828 74.5607957,199.28163 74.5607957,199.243031 C74.5607957,199.204432 74.5607957,199.088635 74.5993947,199.011437 L74.6765927,198.432452 L75.8731617,198.432452 L75.8345627,198.934239 C75.7959637,199.204432 75.7573647,199.474625 75.6801667,199.706219 C75.6029687,199.937813 75.4871717,200.130808 75.3327757,200.285204 C75.1783797,200.478199 74.9853847,200.593996 74.7537907,200.671194 C74.5221967,200.748392 74.2134047,200.82559 73.9046127,200.82559 C73.6344197,200.82559 73.4028257,200.786991 73.2098307,200.709793 C73.0168357,200.632595 72.8624397,200.555397 72.7080437,200.4396 C72.5922467,200.323803 72.4764497,200.169407 72.4378507,200.015011 C72.3606527,199.860615 72.3220537,199.66762 72.3220537,199.436026 C72.3220537,199.358828 72.3220537,199.320229 72.3220537,199.243031 C72.1676577,199.127234 72.1676577,198.972838 72.1676577,198.779843 Z M39.0497164,199.899214 C40.2848843,197.814868 45.5343482,198.393853 52.3663711,201.057184 C52.2891731,201.520372 52.2505741,201.944961 52.2119751,202.408149 C50.7452131,203.604718 49.5486442,205.110079 48.7380652,206.847034 C49.3556492,206.499643 50.4364211,205.959257 51.9417821,205.341673 C52.4435691,205.110079 53.0225541,204.917084 53.6015391,204.68549 C54.7981081,204.260901 56.187672,203.797713 57.693033,203.411723 C58.117622,203.295926 58.542211,203.218728 58.9668,203.102931 C58.9668,203.102931 59.236993,202.948535 59.815978,202.678342 C59.893176,202.639743 59.970374,202.601144 60.047572,202.562545 C59.970374,202.601144 59.893176,202.639743 59.815978,202.678342 C59.236993,202.987134 58.658008,203.295926 58.040424,203.604718 C57.731632,203.759114 57.42284,203.952109 57.075449,204.106505 C56.998251,204.145104 56.921053,204.183703 56.805256,204.260901 C56.419266,204.453896 56.071875,204.68549 55.685885,204.878485 C54.9139051,205.341673 54.1419251,205.766262 53.4085441,206.22945 C53.2541481,206.306648 53.1383511,206.383846 52.9839551,206.499643 C52.8681581,206.576841 52.7523611,206.654039 52.6365641,206.731237 C52.3277721,206.924232 52.0189801,207.117227 51.7101881,207.310222 C50.4364211,208.120801 49.0468572,209.085776 47.6958922,210.08935 C47.4256992,210.282345 47.1555062,210.47534 46.9239122,210.668335 C46.8853132,210.668335 46.8853132,210.706934 46.8467142,210.706934 C46.7695162,210.784132 46.6923182,210.822731 46.6151202,210.899929 C46.6923182,210.977127 46.8081152,211.054325 46.8853132,211.131523 C46.8081152,211.054325 46.6923182,210.977127 46.6151202,210.899929 C40.9796663,206.306648 37.8145484,202.022159 39.0497164,199.899214 Z M61.5915319,203.604718 C61.0125469,203.874911 60.433562,204.183703 59.815978,204.492495 C59.468587,204.68549 59.082597,204.878485 58.735206,205.07148 C59.082597,204.878485 59.468587,204.68549 59.815978,204.492495 C60.433562,204.183703 61.0125469,203.874911 61.5915319,203.604718 C62.7109029,203.064332 63.8302739,202.523946 64.9110459,202.060758 C63.8302739,202.523946 62.7109029,203.064332 61.5915319,203.604718 Z M63.2512889,209.510365 C63.2512889,209.664761 63.2512889,209.857756 63.2126899,210.050751 C63.1740909,210.513939 63.0582939,210.938528 62.9038979,211.24732 C62.7495019,211.594711 62.5565069,211.826305 62.2863139,212.019299 C62.0161209,212.212294 61.7459279,212.36669 61.4371359,212.443888 C61.1283439,212.521086 60.780953,212.559685 60.394963,212.559685 L59.545785,212.559685 L59.121196,216.573981 L57.268444,216.573981 L58.233419,207.38742 L61.0511459,207.38742 C62.5565069,207.38742 63.2512889,208.082202 63.2512889,209.510365 Z M51.7873861,209.240172 C51.7487871,209.240172 51.7487871,209.278771 51.7101881,209.278771 C51.6715891,209.31737 51.6329901,209.355969 51.5557921,209.394568 C51.5943911,209.355969 51.6329901,209.31737 51.7101881,209.278771 C51.7101881,209.278771 51.7487871,209.240172 51.7873861,209.240172 Z M59.815978,235.950679 C57.384241,235.950679 55.2612961,231.048606 54.1419251,223.830593 C54.5279151,223.676197 54.9525041,223.483202 55.3384941,223.328806 C54.8753061,223.135811 54.4121181,222.942816 53.9489301,222.672623 C53.7559351,222.556826 53.6015391,222.479628 53.4085441,222.363831 C53.0225541,222.518227 52.6751631,222.672623 52.3277721,222.78842 C45.4957492,225.413152 40.2076863,226.030736 38.9725184,223.907791 C37.7759494,221.784846 40.9410673,217.538956 46.6537192,212.984274 C47.0011102,213.254467 47.3871002,213.52466 47.7344912,213.794853 C48.1976792,216.882773 49.8188372,219.623302 52.1733761,221.476054 C52.5593661,221.784846 52.9839551,222.093638 53.4085441,222.363831 C53.6015391,222.479628 53.7559351,222.556826 53.9489301,222.672623 C54.4121181,222.904217 54.8367071,223.135811 55.3384941,223.328806 C56.728058,223.869192 58.233419,224.177984 59.815978,224.177984 C60.201968,224.177984 60.587958,224.177984 60.9739479,224.139385 C60.356364,223.753395 59.314191,223.097212 58.040424,222.132237 C57.615835,221.784846 57.114048,221.437455 56.612261,221.012866 C55.647286,220.202287 54.5665141,219.237312 53.4857421,218.117941 C53.1769501,217.809149 52.8681581,217.500357 52.5979651,217.152966 C52.5979651,217.152966 52.9067571,217.345961 53.4857421,217.693352 C53.5629401,217.731951 53.6015391,217.77055 53.6787371,217.809149 C54.3349201,218.233738 55.0297021,218.619728 55.724484,219.044317 C56.496464,219.507505 57.268444,219.932094 58.040424,220.318084 C58.619409,220.626876 59.236993,220.935668 59.815978,221.24446 C60.703755,221.707648 61.5915319,222.132237 62.4793089,222.556826 C63.0582939,222.827019 63.6758779,223.097212 64.2548629,223.367405 C64.6408529,223.521801 65.0654419,223.676197 65.4900309,223.869192 C64.3706599,231.087205 62.2477149,235.950679 59.815978,235.950679 Z M65.6444269,201.250179 C65.6058279,200.864189 65.5286299,200.478199 65.4900309,200.092209 C65.1040409,200.246605 64.6794519,200.4396 64.2934619,200.593996 C63.7144769,200.82559 63.1354919,201.095783 62.5565069,201.365976 C63.1354919,201.095783 63.7144769,200.82559 64.2934619,200.593996 C62.9038979,200.05361 61.3985369,199.744818 59.815978,199.744818 C58.272018,199.744818 56.766657,200.05361 55.4156921,200.555397 C54.9139051,200.748392 54.4507171,200.979986 53.9875291,201.21158 C54.0261281,200.786991 54.1033261,200.401001 54.1805241,200.015011 C55.2998951,192.796998 57.42284,187.933524 59.854577,187.933524 C62.2863139,187.933524 64.4092589,192.835597 65.5286299,200.05361 C65.5672289,200.4396 65.6058279,200.82559 65.6444269,201.250179 C65.6444269,201.327377 65.6830259,201.404575 65.6830259,201.520372 C65.6830259,201.404575 65.6830259,201.327377 65.6444269,201.250179 Z M80.5822396,223.984989 C79.3470716,226.069335 74.0976077,225.49035 67.2655848,222.827019 C67.3427828,222.363831 67.3813818,221.939242 67.4199808,221.476054 C69.7359208,219.623302 71.3570788,216.921372 71.8588657,213.833452 C71.9360637,213.331665 71.9746627,212.791279 72.0132617,212.250893 C72.3220537,212.521086 72.6694447,212.75268 72.9782367,212.984274 C78.6522896,217.616154 81.8174076,221.862044 80.5822396,223.984989 Z M80.6208386,200.015011 C81.8174076,202.137956 78.6522896,206.383846 72.9396377,210.938528 C73.4028257,211.285919 73.8274147,211.63331 74.2520037,211.980701 C81.0454276,206.499643 84.7509315,201.250179 83.2069715,198.50965 C82.6665855,197.583274 81.5858136,197.042888 80.0804526,196.849893 C80.1576506,197.235883 80.2348486,197.621873 80.2348486,198.046462 C80.2348486,198.50965 80.1576506,198.972838 80.0418536,199.397427 C80.3120466,199.551823 80.5050416,199.744818 80.6208386,200.015011 Z" id="PC-grow"></path>
                    </g>
                </g>
            </g>
        </g>
    </g>
</svg>