<?xml version="1.0" encoding="UTF-8" standalone="no"?>
<svg width="50px" height="50px" viewBox="0 0 50 50" version="1.1" xmlns="http://www.w3.org/2000/svg" xmlns:xlink="http://www.w3.org/1999/xlink">
    <!-- Generator: Sketch 50.2 (55047) - http://www.bohemiancoding.com/sketch -->
    <title>homework</title>
    <desc>Created with Sketch.</desc>
    <defs></defs>
    <g id="Page-1" stroke="none" stroke-width="1" fill="none" fill-rule="evenodd">
        <g id="Powercode-Academy-Landing-Features-4" transform="translate(-1026.000000, -417.000000)" fill="#52489C" fill-rule="nonzero" stroke="#8DCEFF">
            <g id="FEATURES">
                <g id="icons" transform="translate(390.000000, 165.000000)">
                    <g id="online" transform="translate(601.000000, 0.000000)">
                        <g id="homework" transform="translate(36.000000, 253.000000)">
                            <path d="M42.4019062,36.1234688 C41.7548437,35.2184063 41.4027187,34.1329688 41.4027187,33.0098438 C41.4027187,31.689375 41.8877812,30.4202813 42.7684687,29.4364688 C43.1428125,29.0183438 43.2364687,28.4190938 43.0074375,27.90675 C42.7784062,27.3944063 42.269625,27.0645 41.7084375,27.0645 L35.2472812,27.0645 C36.8835937,25.3783125 37.8927187,23.0804063 37.8927187,20.5508438 L37.8927187,12.3031875 C37.8927187,11.517375 37.2555937,10.88025 36.4697812,10.88025 L16.3566562,10.88025 C15.5708437,10.88025 14.9337187,11.517375 14.9337187,12.3031875 L14.9337187,13.18575 L14.5092187,13.18575 C11.3969062,13.18575 8.86490625,15.7176563 8.86490625,18.8300625 C8.86490625,21.9424688 11.3969062,24.474375 14.5092187,24.474375 L15.7969687,24.474375 C16.2434062,25.4371875 16.8485625,26.311875 17.5791562,27.0645938 L5.9878125,27.0645938 C2.70946875,27.0645938 0.04246875,29.7315938 0.04246875,33.0099375 C0.04246875,36.157125 2.50096875,38.7395625 5.59809375,38.9410313 C6.24515625,39.846 6.59728125,40.9314375 6.59728125,42.0546563 C6.59728125,43.3750313 6.11221875,44.644125 5.2314375,45.628125 C4.8571875,46.04625 4.76353125,46.6454063 4.9925625,47.15775 C5.22159375,47.6700938 5.730375,48 6.2915625,48 L42.0121875,48 C45.2905312,48 47.9575312,45.333 47.9575312,42.0546563 C47.9575312,38.907375 45.4989375,36.325125 42.4019062,36.1234688 Z M14.5092187,21.6285 C12.9660937,21.6285 11.7107812,20.3731875 11.7107812,18.8300625 C11.7107812,17.2869375 12.9660937,16.031625 14.5092187,16.031625 L14.9337187,16.031625 L14.9337187,20.5508438 C14.9337187,20.9153438 14.955375,21.2746875 14.9961562,21.6285 L14.5092187,21.6285 Z M17.7795,13.726125 L35.0466562,13.726125 L35.0466562,20.5508438 C35.0466562,24.1425 32.1246563,27.0645 28.533,27.0645 L24.2931563,27.0645 C20.7015,27.0645 17.7795,24.1425 17.7795,20.5508438 L17.7795,13.726125 Z M6.29165625,36.1094063 L5.9878125,36.1094063 C4.27865625,36.1093125 2.88834375,34.7189063 2.88834375,33.0099375 C2.88834375,31.3007813 4.27875,29.9104688 5.9878125,29.9104688 L24.2931563,29.9104688 L28.533,29.9104688 L39.1641563,29.9104688 C38.7660938,30.88575 38.5568438,31.9367813 38.5568438,33.0099375 C38.5568438,34.0830938 38.7660938,35.134125 39.1641563,36.1094063 L6.29165625,36.1094063 Z M42.0121875,45.154125 L8.8359375,45.154125 C9.234,44.17875 9.44325,43.1279063 9.44325,42.0546563 C9.44325,40.9815 9.234,39.930375 8.8359375,38.9551875 L41.7083438,38.9551875 L42.0121875,38.9551875 C43.7213438,38.9551875 45.1116562,40.3455938 45.1116562,42.0546563 C45.1116562,43.7637188 43.72125,45.154125 42.0121875,45.154125 Z" id="Shape" stroke-width="0.6"></path>
                            <path d="M28.3577812,0 C27.5719687,0 26.9348437,0.637125 26.9348437,1.4229375 L26.9348437,7.68375 C26.9348437,8.4695625 27.5719687,9.1066875 28.3577812,9.1066875 C29.1435937,9.1066875 29.7807187,8.4695625 29.7807187,7.68375 L29.7807187,1.4229375 C29.7807187,0.637125 29.1435937,0 28.3577812,0 Z" id="Shape"></path>
                            <path d="M24.4684687,3.13040625 C23.6826562,3.13040625 23.0455312,3.76753125 23.0455312,4.55334375 L23.0455312,7.68375 C23.0455312,8.4695625 23.6826562,9.1066875 24.4684687,9.1066875 C25.2542812,9.1066875 25.8914062,8.4695625 25.8914062,7.68375 L25.8914062,4.55334375 C25.8913125,3.76753125 25.2542812,3.13040625 24.4684687,3.13040625 Z" id="Shape"></path>
                        </g>
                    </g>
                </g>
            </g>
        </g>
    </g>
</svg>