<svg xmlns="http://www.w3.org/2000/svg" width="21" height="28" viewBox="0 0 21 28">
    <g fill="#D8F6F6" fill-rule="nonzero">
        <path d="M10.383 4.244a6.107 6.107 0 0 0-6.1 6.1c0 3.363 2.736 6.099 6.1 6.099 3.363 0 6.1-2.736 6.1-6.1 0-3.363-2.737-6.1-6.1-6.1zm0 10.558c-2.459 0-4.46-2-4.46-4.459 0-2.458 2.001-4.459 4.46-4.459 2.458 0 4.459 2 4.459 4.46 0 2.458-2 4.458-4.46 4.458z"/>
        <path d="M10.383 0C4.68 0 .04 4.64.04 10.343c0 3.29 2.758 8.19 4.402 10.818 1.082 1.729 2.245 3.375 3.274 4.633 1.651 2.021 2.242 2.19 2.667 2.19.43 0 .989-.17 2.635-2.19 1.032-1.267 2.195-2.912 3.275-4.632 1.656-2.635 4.433-7.544 4.433-10.819C20.726 4.64 16.086 0 10.383 0zm4.773 19.885c-2.121 3.443-4.07 5.77-4.783 6.364-.718-.576-2.634-2.847-4.785-6.353-2.483-4.049-3.908-7.53-3.908-9.553 0-4.798 3.904-8.702 8.703-8.702 4.798 0 8.702 3.904 8.702 8.702 0 2.01-1.432 5.488-3.929 9.542z"/>
    </g>
</svg>
