<svg xmlns="http://www.w3.org/2000/svg" width="24" height="18" viewBox="0 0 24 18">
    <path fill="#D8F6F6" fill-rule="nonzero" d="M21 0H3a3 3 0 0 0-3 3v12a3 3 0 0 0 3 3h18a3 3 0 0 0 3-3V3a3 3 0 0 0-3-3zm-4.938 8.005l6.35-5.442c.044.141.088.282.088.437v12c0 .104-.04.196-.06.294l-6.378-7.289zM21 1.5c.1 0 .188.038.281.057L12 9.513 2.719 1.557C2.813 1.538 2.9 1.5 3 1.5h18zM1.56 15.293c-.021-.098-.06-.189-.06-.293V3c0-.155.045-.296.089-.437l6.348 5.44-6.378 7.29zM3 16.5c-.152 0-.29-.044-.428-.086L9.076 8.98l2.436 2.087a.742.742 0 0 0 .976 0l2.436-2.087 6.504 7.433c-.138.042-.276.086-.428.086H3z"/>
</svg>
