<svg xmlns="http://www.w3.org/2000/svg" width="40" height="40" viewBox="0 0 40 40">
    <defs>
        <linearGradient id="a" x1="88.764%" x2="16.148%" y1="13.007%" y2="86.714%">
            <stop offset="0%" stop-color="#7F1CDA"/>
            <stop offset="47.706%" stop-color="#F12222"/>
            <stop offset="100%" stop-color="#D8770C"/>
        </linearGradient>
    </defs>
    <g fill="none" fill-rule="evenodd">
        <circle cx="20" cy="20" r="20" fill="#FFF"/>
        <path fill="url(#a)" d="M26.44 20.162a6.405 6.405 0 0 0-6.406-6.404 6.412 6.412 0 0 0-6.404 6.404 6.405 6.405 0 0 0 6.404 6.405 6.398 6.398 0 0 0 6.406-6.405zm-.121-7.271a1.03 1.03 0 1 0 0 2.062 1.03 1.03 0 1 0 0-2.062zm-11.516-1.48h10.474c1.941 0 3.52 1.579 3.52 3.52v10.474c0 1.941-1.579 3.52-3.52 3.52H14.803a3.524 3.524 0 0 1-3.52-3.52V14.93a3.524 3.524 0 0 1 3.52-3.52zm10.474-1.174H14.803a4.706 4.706 0 0 0-4.694 4.694v10.474c0 2.577 2.117 4.694 4.694 4.694h10.474a4.706 4.706 0 0 0 4.694-4.694V14.93a4.7 4.7 0 0 0-4.694-4.694zm-10.31 9.925c0-2.796 2.271-5.078 5.067-5.078a5.08 5.08 0 0 1 5.078 5.078 5.072 5.072 0 1 1-10.145 0z"/>
    </g>
</svg>
