<?xml version="1.0" encoding="UTF-8" standalone="no"?>
<svg width="40px" height="40px" viewBox="0 0 40 40" version="1.1" xmlns="http://www.w3.org/2000/svg" xmlns:xlink="http://www.w3.org/1999/xlink">
    <!-- Generator: Sketch 50 (54983) - http://www.bohemiancoding.com/sketch -->
    <title>JavaScript_220x140</title>
    <desc>Created with Sketch.</desc>
    <defs></defs>
    <g id="Page-1" stroke="none" stroke-width="1" fill="none" fill-rule="evenodd">
        <g id="Powercode-Academy-Landing-Test" transform="translate(-400.000000, -3221.000000)">
            <g id="Group-2" transform="translate(400.000000, 3210.000000)">
                <g id="JavaScript_220x140" transform="translate(0.000000, 11.000000)">
                    <g id="javascript">
                        <rect id="Rectangle" x="0" y="0" width="40" height="40"></rect>
                        <g id="Group" fill-rule="nonzero">
                            <polygon id="Shape" fill="#F7DF1E" points="0 0 40 0 40 40 0 40"></polygon>
                            <path d="M10.5174603,33.4269206 L13.5785397,31.5744126 C14.1690794,32.6214603 14.7062857,33.5073651 15.9948572,33.5073651 C17.2300317,33.5073651 18.0087619,33.0241904 18.0087619,31.1448254 L18.0087619,18.3638729 L21.7677461,18.3638729 L21.7677461,31.1979682 C21.7677461,35.0913016 19.4855873,36.8634286 16.156,36.8634286 C13.1489524,36.8634286 11.4034286,35.3060317 10.5173968,33.4266031" id="Shape" fill="#000000"></path>
                            <path d="M23.8095237,33.0241271 L26.8702222,31.252 C27.6759366,32.5678096 28.7231111,33.5343492 30.5756825,33.5343492 C32.1332064,33.5343492 33.1264126,32.7556191 33.1264126,31.6815874 C33.1264126,30.3927619 32.1061587,29.9362539 30.3876825,29.1846984 L29.4481904,28.7816508 C26.736127,27.6273016 24.9370794,26.1773969 24.9370794,23.1163809 C24.9370794,20.2970794 27.0850794,18.1489524 30.4415237,18.1489524 C32.8312381,18.1489524 34.5496507,18.9813969 35.7846348,21.1563175 L32.8579047,23.0357461 C32.2134603,21.8812699 31.5155556,21.4248889 30.4415873,21.4248889 C29.3406984,21.4248889 28.6425397,22.1229841 28.6425397,23.0357461 C28.6425397,24.1634921 29.3406984,24.6200634 30.9515556,25.3182222 L31.8912381,25.7209524 C35.0864762,27.0904127 36.8855237,28.4864762 36.8855237,31.627873 C36.8855237,35.0112381 34.2273651,36.8637461 30.6563175,36.8637461 C27.1657778,36.8637461 24.9102857,35.1991111 23.8095873,33.0241271" id="Shape" fill="#000000"></path>
                        </g>
                    </g>
                </g>
            </g>
        </g>
    </g>
</svg>