<?xml version="1.0" encoding="UTF-8" standalone="no"?>
<svg width="120px" height="120px" viewBox="0 0 120 120" version="1.1" xmlns="http://www.w3.org/2000/svg" xmlns:xlink="http://www.w3.org/1999/xlink">
    <!-- Generator: Sketch 50.2 (55047) - http://www.bohemiancoding.com/sketch -->
    <title>king</title>
    <desc>Created with Sketch.</desc>
    <defs></defs>
    <g id="Page-1" stroke="none" stroke-width="1" fill="none" fill-rule="evenodd">
        <g id="Powercode-Academy-Landing-333" transform="translate(-590.000000, -2390.000000)">
            <g id="FEATURES" transform="translate(0.000000, 2105.000000)">
                <g id="icons" transform="translate(390.000000, 165.000000)">
                    <g id="king" transform="translate(200.000000, 120.000000)">
                        <circle id="Oval-2-Copy-9" stroke="#8DCEFF" stroke-width="2" cx="60" cy="60" r="59"></circle>
                        <path d="M65.2665333,56.7997333 L56.7332,56.7997333 C50.2562667,56.8073333 45.0074667,62.0561333 44.9998667,68.5330667 L44.9998667,90.9330667 C44.9998667,91.5221333 45.4774667,91.9997333 46.0665333,91.9997333 L75.9332,91.9997333 C76.5222667,91.9997333 76.9998667,91.5221333 76.9998667,90.9330667 L76.9998667,68.5330667 C76.9922667,62.0561333 71.7434667,56.8074667 65.2665333,56.7997333 Z M60.8878667,61.6584 L59.5257333,58.9330667 L62.474,58.9330667 L61.1065333,61.6562667 C61.0345333,61.8048 60.998,61.968 60.9998667,62.1330667 C60.9994667,62.1765333 61.0024,62.2201333 61.0084,62.2632 L63.0766667,78.8146667 L60.9998667,80.8914667 L58.9230667,78.8146667 L60.9913333,62.2653333 C60.9974667,62.2214667 61.0002667,62.1773333 60.9998667,62.1330667 C60.9997333,61.9684 60.9613333,61.8058667 60.8878667,61.6584 Z M74.8665333,89.8664 L47.1332,89.8664 L47.1332,68.5330667 C47.1397333,63.2338667 51.434,58.9394667 56.7332,58.9330667 L57.1406667,58.9330667 L58.8345333,62.3208 L56.7417333,79.0674667 C56.7009333,79.394 56.8130667,79.7210667 57.0457333,79.9538667 L60.2457333,83.1538667 C60.6622667,83.5702667 61.3374667,83.5702667 61.754,83.1538667 L64.954,79.9538667 C65.1866667,79.7210667 65.2988,79.394 65.258,79.0674667 L63.1652,62.3208 L64.8590667,58.9330667 L65.2665333,58.9330667 C70.5657333,58.9394667 74.8601333,63.2338667 74.8665333,68.5330667 L74.8665333,89.8664 Z" id="Shape" fill="#FFFFFF" fill-rule="nonzero"></path>
                        <path d="M71.6664,30.1333333 C71.4729333,30.1333333 71.2830667,30.186 71.1173333,30.2856 L66.4986667,33.0589333 L61.7541333,28.3122667 C61.3376,27.8958667 60.6624,27.8958667 60.2458667,28.3122667 L55.5013333,33.0568 L50.8826667,30.2834667 C50.3777333,29.9801333 49.7224,30.1434667 49.4189333,30.6484 C49.3189333,30.8148 49.2662667,31.0054667 49.2666667,31.1997333 L49.2666667,40.7997333 C49.2666667,41.3888 49.7442667,41.8664 50.3333333,41.8664 L51.4,41.8664 L51.4,46.1330667 C51.4,51.4349333 55.6981333,55.7330667 61,55.7330667 C66.302,55.7330667 70.6,51.4349333 70.6,46.1330667 L70.6,41.8664 L71.6666667,41.8664 C72.2557333,41.8664 72.7333333,41.3888 72.7333333,40.7997333 L72.7333333,31.1997333 C72.7330667,30.6106667 72.2554667,30.1332 71.6664,30.1333333 Z M68.4665333,46.1330667 C68.4665333,50.2568 65.1236,53.5997333 60.9998667,53.5997333 C56.8761333,53.5997333 53.5332,50.2568 53.5332,46.1330667 L53.5332,41.8664 L68.4665333,41.8664 L68.4665333,46.1330667 Z M70.5998667,39.7330667 L51.3998667,39.7330667 L51.3998667,33.0834667 L55.1172,35.3138667 C55.5369333,35.566 56.0744,35.5 56.4206667,35.1538667 L60.9998667,30.5746667 L65.5790667,35.1538667 C65.9253333,35.5 66.4628,35.566 66.8825333,35.3138667 L70.5998667,33.0834667 L70.5998667,39.7330667 Z" id="Shape" fill="#FFFFFF" fill-rule="nonzero"></path>
                        <path d="M88.7332,45.0664 C86.9658667,45.0664 85.5332,43.6337333 85.5332,41.8664 C85.5332,41.2773333 85.0556,40.7997333 84.4665333,40.7997333 C83.8774667,40.7997333 83.3998667,41.2773333 83.3998667,41.8664 C83.3998667,43.6337333 81.9672,45.0664 80.1998667,45.0664 C79.6108,45.0664 79.1332,45.544 79.1332,46.1330667 C79.1332,46.7221333 79.6108,47.1997333 80.1998667,47.1997333 C81.9672,47.1997333 83.3998667,48.6324 83.3998667,50.3997333 C83.3998667,50.9888 83.8774667,51.4664 84.4665333,51.4664 C85.0556,51.4664 85.5332,50.9888 85.5332,50.3997333 C85.5332,48.6324 86.9658667,47.1997333 88.7332,47.1997333 C89.3222667,47.1997333 89.7998667,46.7221333 89.7998667,46.1330667 C89.7998667,45.544 89.3222667,45.0664 88.7332,45.0664 Z M84.4665333,47.2328 C84.1558667,46.8144 83.7853333,46.4438667 83.3668,46.1330667 C83.7852,45.8222667 84.1558667,45.4518667 84.4665333,45.0333333 C84.7773333,45.4517333 85.1477333,45.8222667 85.5662667,46.1330667 C85.1478667,46.4438667 84.7773333,46.8144 84.4665333,47.2328 Z" id="Shape" fill="#FFFFFF" fill-rule="nonzero"></path>
                        <path d="M43.9332,56.7997333 C42.1658667,56.7997333 40.7332,55.3670667 40.7332,53.5997333 C40.7332,53.0106667 40.2556,52.5330667 39.6665333,52.5330667 C39.0774667,52.5330667 38.5998667,53.0106667 38.5998667,53.5997333 C38.5998667,55.3670667 37.1672,56.7997333 35.3998667,56.7997333 C34.8108,56.7997333 34.3332,57.2773333 34.3332,57.8664 C34.3332,58.4554667 34.8108,58.9330667 35.3998667,58.9330667 C37.1672,58.9330667 38.5998667,60.3657333 38.5998667,62.1330667 C38.5998667,62.7221333 39.0774667,63.1997333 39.6665333,63.1997333 C40.2556,63.1997333 40.7332,62.7221333 40.7332,62.1330667 C40.7332,60.3657333 42.1658667,58.9330667 43.9332,58.9330667 C44.5222667,58.9330667 44.9998667,58.4554667 44.9998667,57.8664 C44.9998667,57.2773333 44.5222667,56.7997333 43.9332,56.7997333 Z M39.6665333,58.9661333 C39.3557333,58.5477333 38.9853333,58.1772 38.5668,57.8664 C38.9852,57.5556 39.3557333,57.1852 39.6665333,56.7666667 C39.9773333,57.1850667 40.3477333,57.5556 40.7662667,57.8664 C40.3478667,58.1772 39.9773333,58.5477333 39.6665333,58.9661333 Z" id="Shape" fill="#FFFFFF" fill-rule="nonzero"></path>
                        <path d="M40.7332,37.5997333 C38.9658667,37.5997333 37.5332,36.1670667 37.5332,34.3997333 C37.5332,33.8106667 37.0556,33.3330667 36.4665333,33.3330667 C35.8774667,33.3330667 35.3998667,33.8106667 35.3998667,34.3997333 C35.3998667,36.1670667 33.9672,37.5997333 32.1998667,37.5997333 C31.6108,37.5997333 31.1332,38.0773333 31.1332,38.6664 C31.1332,39.2554667 31.6108,39.7330667 32.1998667,39.7330667 C33.9672,39.7330667 35.3998667,41.1657333 35.3998667,42.9330667 C35.3998667,43.5221333 35.8774667,43.9997333 36.4665333,43.9997333 C37.0556,43.9997333 37.5332,43.5221333 37.5332,42.9330667 C37.5332,41.1657333 38.9658667,39.7330667 40.7332,39.7330667 C41.3222667,39.7330667 41.7998667,39.2554667 41.7998667,38.6664 C41.7998667,38.0773333 41.3222667,37.5997333 40.7332,37.5997333 Z M36.4665333,39.7661333 C36.1557333,39.3477333 35.7853333,38.9772 35.3668,38.6664 C35.7852,38.3556 36.1557333,37.9852 36.4665333,37.5666667 C36.7773333,37.9850667 37.1477333,38.3556 37.5662667,38.6664 C37.1478667,38.9772 36.7773333,39.3477333 36.4665333,39.7661333 Z" id="Shape" fill="#FFFFFF" fill-rule="nonzero"></path>
                    </g>
                </g>
            </g>
        </g>
    </g>
</svg>