<svg xmlns="http://www.w3.org/2000/svg" width="529" height="600" viewBox="0 0 529 600">
    <defs>
        <linearGradient id="a" x1="66.056%" x2="0%" y1="14.562%" y2="74.23%">
            <stop offset="0%" stop-color="#7BDAF1" stop-opacity=".519"/>
            <stop offset="100%" stop-color="#82DAFF"/>
        </linearGradient>
    </defs>
    <path fill="url(#a)" fill-rule="nonzero" d="M1530.335 352.066h6.434c4.717 0 8.148-.858 9.864-3.002 1.715-2.145 3.002-5.576 3.43-11.151 0-2.145.43-3.86.43-5.576v-2.573c0-2.144-1.287-3.86-2.574-4.718-1.715-1.286-4.288-1.715-7.72-1.715h-6.862l-3.002 28.735zm161.687 7.72c-4.717-3.86-9.435-7.72-14.582-11.58-3.86-3.002-8.148-6.004-12.008-9.007-3.431-21.443-11.58-41.172-23.588-58.327 0 7.72-.858 21.444-3.003 39.457-.857 6.004-1.715 12.866-3.002 19.728a498.543 498.543 0 0 1-10.722 46.319c-1.286 4.718-2.573 9.435-4.288 14.153v-5.147-6.433c.428-9.864.428-19.728.428-29.592 0-9.865 0-19.729-.428-29.164 0-7.29-.43-15.01-.858-22.302-.858-18.87-2.573-36.883-4.289-54.467 0 0-.429-3.86-.858-5.576l-1.286-9.006 27.877-9.435c8.577 15.44 24.446 26.59 42.887 28.306 1.716 0 3.86.429 5.576.429 26.59 0 48.892-18.442 54.467-43.317.858-3.86 1.287-8.149 1.287-12.438 0-3.86-.429-7.72-1.287-11.15-3.86-19.3-18.013-35.168-36.883-41.602-5.576-1.715-11.58-3.002-18.013-3.002-30.88 0-55.754 24.875-55.754 55.754 0 3.431.429 6.862.858 10.293-7.72 2.574-15.44 5.576-23.589 8.578-15.01-95.64-45.46-161.258-80.2-161.258-34.739 0-65.19 65.19-80.2 160.83-90.064-34.74-161.687-41.173-179.27-11.152-17.585 30.022 23.587 88.778 99.07 150.108.858.428 1.715 1.286 2.144 1.715-.857-.429-1.715-1.287-2.144-1.715-75.483 60.9-116.655 119.228-99.5 149.678 17.584 30.45 89.207 24.017 179.7-10.722 15.01 95.64 45.461 161.258 80.2 161.258 34.74 0 65.19-65.19 80.2-160.83 90.065 34.74 161.687 41.173 179.271 11.152 18.442-30.88-23.16-89.636-98.213-150.536zm-23.16-146.677l2.574-24.446c.429-3.86.858-6.862 2.145-9.864.857-2.573 2.144-5.146 3.86-7.29 1.715-2.145 3.86-3.432 6.861-4.718 2.574-.858 6.005-1.716 9.865-1.716 3.43 0 6.433.429 9.006 1.287 2.573.857 4.289 2.144 5.575 4.288 1.287 1.716 2.145 3.86 2.574 6.005.429 1.286.429 2.573.429 4.289v3.86l-.858 6.004h-13.724l.858-6.433v-1.716-1.715-1.716-1.287c0-.428 0-.857-.43-1.286 0-.43-.428-.43-.428-.858l-.858-.858c-.429 0-.858-.429-1.287-.429h-1.715c-.858 0-1.716 0-2.573.43-.858.428-1.287.428-1.716 1.286-.429.429-.858.858-1.287 1.715-.428.43-.428 1.287-.857 2.145-.43.858-.43 1.715-.43 2.573 0 .858-.428 1.716-.428 2.573l-3.002 30.45v3.432c0 1.715.429 3.43.858 4.288.857 1.716 2.144 2.574 4.717 2.574.858 0 1.716 0 2.574-.43.857-.428 1.286-.428 1.715-1.286.429-.429.858-.858 1.287-1.715.429-.43.429-1.287.857-2.145 0-.857.43-1.715.43-2.144 0-.429 0-1.716.428-2.573l.858-6.434h13.295l-.429 5.576c-.429 3.002-.858 6.004-1.715 8.577-.858 2.574-2.145 4.718-3.86 6.434-1.716 2.144-3.86 3.43-6.433 4.288-2.574.858-6.005 1.716-9.436 1.716-3.002 0-5.575-.429-7.72-1.287C1670 231 1668.5 221.5 1668.863 213.11zm-367.976 12.438c13.724-23.16 72.051-16.726 147.963 12.866-.858 5.147-1.287 9.864-1.716 15.01-16.297 13.296-29.593 30.022-38.599 49.322 6.862-3.86 18.87-9.864 35.597-16.726 5.575-2.574 12.008-4.718 18.442-7.291 13.295-4.718 28.734-9.865 45.46-14.153 4.718-1.287 9.436-2.145 14.154-3.431 0 0 3.002-1.716 9.435-4.718l2.573-1.287-2.573 1.287c-6.433 3.431-12.866 6.862-19.728 10.293-3.431 1.716-6.862 3.86-10.722 5.575-.858.43-1.716.858-3.002 1.716-4.29 2.144-8.15 4.718-12.438 6.862-8.577 5.147-17.155 9.864-25.304 15.01-1.715.859-3.002 1.716-4.717 3.003l-3.86 2.573-10.293 6.433c-14.153 9.007-29.593 19.729-44.604 30.88-3.002 2.144-6.004 4.288-8.577 6.433-.43 0-.43.429-.858.429-.858.857-1.715 1.286-2.573 2.144.858.858 2.144 1.715 3.002 2.573-.858-.858-2.144-1.715-3.002-2.573-62.616-51.036-97.784-98.642-84.06-122.23zm250.464 41.172c-6.433 3.002-12.866 6.433-19.728 9.864-3.86 2.145-8.149 4.29-12.009 6.433 3.86-2.144 8.15-4.288 12.009-6.433 6.862-3.43 13.295-6.862 19.728-9.864 12.438-6.004 24.875-12.008 36.884-17.155-12.009 5.147-24.446 11.15-36.884 17.155zm18.442 65.618c0 1.716 0 3.86-.429 6.005-.429 5.146-1.715 9.864-3.43 13.295-1.716 3.86-3.86 6.433-6.863 8.577-3.002 2.145-6.004 3.86-9.435 4.718-3.431.858-7.291 1.287-11.58 1.287h-9.435l-4.718 44.603h-20.586l10.722-102.073h31.308c16.726 0 24.446 7.72 24.446 23.588zm-127.377-3.002c-.428 0-.428.43-.857.43-.43.428-.858.857-1.716 1.286.429-.43.858-.858 1.716-1.287 0 0 .429-.429.857-.429zm89.207 296.784c-27.02 0-50.608-54.468-63.045-134.668 4.289-1.715 9.006-3.86 13.295-5.575-5.146-2.145-10.293-4.29-15.44-7.291-2.144-1.287-3.86-2.145-6.004-3.431-4.289 1.715-8.148 3.43-12.008 4.717-75.912 29.164-134.668 36.026-148.392 12.438-13.295-23.588 21.873-70.765 85.347-121.373 3.86 3.003 8.148 6.005 12.008 9.007 5.147 34.31 23.16 64.76 49.321 85.346 4.289 3.432 9.007 6.863 13.724 9.865 2.145 1.286 3.86 2.144 6.005 3.43 5.146 2.574 9.864 5.147 15.44 7.292 15.439 6.004 32.165 9.435 49.749 9.435 4.289 0 8.578 0 12.866-.429-6.862-4.289-18.441-11.58-32.594-22.302-4.718-3.86-10.293-7.72-15.869-12.437-10.722-9.006-22.73-19.728-34.739-32.166-3.431-3.43-6.862-6.862-9.864-10.722 0 0 3.43 2.145 9.864 6.004.858.43 1.287.858 2.144 1.287 7.291 4.718 15.011 9.007 22.73 13.724a382.616 382.616 0 0 0 25.734 14.153c6.433 3.431 13.295 6.862 19.728 10.293 9.864 5.147 19.728 9.864 29.593 14.582 6.433 3.002 13.295 6.004 19.728 9.007 4.289 1.715 9.006 3.43 13.724 5.575-12.437 80.2-36.026 134.239-63.045 134.239zm64.76-385.561c-.428-4.29-1.286-8.578-1.715-12.867-4.289 1.716-9.006 3.86-13.295 5.576-6.433 2.573-12.867 5.575-19.3 8.577 6.433-3.002 12.867-6.004 19.3-8.577-15.44-6.005-32.166-9.436-49.75-9.436-17.155 0-33.881 3.431-48.892 9.007-5.575 2.144-10.722 4.717-15.869 7.29.43-4.717 1.287-9.006 2.145-13.295 12.437-80.2 36.026-134.238 63.045-134.238 27.02 0 50.607 54.467 63.045 134.667.429 4.29.858 8.578 1.287 13.296 0 .857.428 1.715.428 3.002 0-1.287 0-2.145-.428-3.002zm165.976 252.609c-13.724 23.159-72.051 16.726-147.963-12.867.858-5.146 1.287-9.864 1.716-15.01 25.733-20.587 43.745-50.608 49.32-84.918.859-5.576 1.287-11.58 1.716-17.584 3.431 3.002 7.291 5.575 10.722 8.148 63.045 51.466 98.213 98.642 84.49 122.23zm.43-266.334c13.294 23.589-21.874 70.765-85.348 121.373 5.147 3.86 9.865 7.72 14.582 11.58 75.483-60.901 116.655-119.228 99.5-149.679-6.004-10.293-18.013-16.297-34.74-18.442.859 4.29 1.716 8.578 1.716 13.296 0 5.146-.857 10.293-2.144 15.01 3.002 1.716 5.146 3.86 6.433 6.862z" opacity=".3" transform="translate(-1267 -60)"/>
</svg>
