<svg xmlns="http://www.w3.org/2000/svg" xmlns:xlink="http://www.w3.org/1999/xlink" width="613" height="721" viewBox="0 0 613 721">
    <defs>
        <linearGradient id="a" x1=".112%" x2="100.036%" y1="49.898%" y2="49.898%">
            <stop offset="0%" stop-color="#60B0D8"/>
            <stop offset="100%" stop-color="#63D6E7"/>
        </linearGradient>
        <linearGradient id="c" x1="4.211%" x2="72.824%" y1="6.733%" y2="77.221%">
            <stop offset="0%" stop-color="#FFF"/>
            <stop offset="100%" stop-color="#FFF" stop-opacity=".029"/>
            <stop offset="100%" stop-color="#FFF" stop-opacity="0"/>
        </linearGradient>
        <path id="b" d="M1623.441 428.966h7.73c5.67 0 9.793-1.031 11.854-3.608 2.062-2.577 3.608-6.7 4.123-13.4 0-2.576.516-4.638.516-6.7v-3.091c0-2.577-1.546-4.639-3.093-5.67-2.061-1.546-5.153-2.061-9.276-2.061h-8.246l-3.608 34.53zm194.294 9.276c-5.669-4.638-11.338-9.276-17.522-13.915-4.639-3.607-9.792-7.215-14.43-10.822-4.124-25.769-13.916-49.476-28.346-70.09 0 9.276-1.03 25.768-3.608 47.413-1.03 7.216-2.061 15.461-3.607 23.707a599.082 599.082 0 0 1-12.884 55.66c-1.546 5.67-3.093 11.338-5.154 17.007v-6.184-7.73c.515-11.854.515-23.708.515-35.561 0-11.854 0-23.707-.515-35.045 0-8.761-.515-18.038-1.03-26.8-1.031-22.675-3.093-44.32-5.154-65.451 0 0-.516-4.638-1.031-6.7l-1.546-10.822 33.499-11.339c10.307 18.554 29.376 31.953 51.536 34.015 2.062 0 4.639.515 6.7.515 31.953 0 58.752-22.16 65.452-52.052 1.03-4.638 1.546-9.792 1.546-14.946 0-4.638-.515-9.276-1.546-13.4-4.638-23.19-21.645-42.26-44.322-49.99-6.7-2.062-13.915-3.608-21.645-3.608-37.107 0-66.998 29.892-66.998 66.998 0 4.123.515 8.246 1.03 12.37-9.276 3.091-18.552 6.699-28.344 10.306C1702.293 156.851 1665.7 78 1623.957 78c-41.745 0-78.336 78.336-96.374 193.263-108.227-41.745-194.294-49.475-215.424-13.4-21.13 36.076 28.345 106.682 119.05 180.38 1.03.515 2.061 1.545 2.577 2.06-1.03-.515-2.062-1.545-2.577-2.06-90.705 73.182-140.18 143.272-119.565 179.863 21.13 36.59 107.196 28.86 215.939-12.884C1545.62 720.149 1582.212 799 1623.957 799c41.744 0 78.336-78.336 96.374-193.263 108.227 41.745 194.293 49.475 215.423 13.4 22.161-37.107-27.83-107.712-118.019-180.895zm-27.83-176.256l3.092-29.376c.516-4.638 1.031-8.245 2.577-11.853 1.031-3.092 2.577-6.184 4.639-8.761 2.061-2.577 4.638-4.123 8.245-5.67 3.093-1.03 7.216-2.06 11.854-2.06 4.123 0 7.73.515 10.823 1.545 3.092 1.031 5.153 2.577 6.7 5.154 1.546 2.061 2.576 4.638 3.092 7.215.515 1.546.515 3.092.515 5.154v4.638l-1.03 7.215h-16.493l1.031-7.73v-2.062-2.061-2.062-1.546c0-.515 0-1.03-.515-1.546 0-.515-.515-.515-.515-1.03l-1.031-1.031c-.516 0-1.031-.516-1.546-.516h-2.062c-1.03 0-2.061 0-3.092.516-1.03.515-1.546.515-2.061 1.546-.516.515-1.031 1.03-1.547 2.061-.515.516-.515 1.546-1.03 2.577-.516 1.03-.516 2.062-.516 3.092 0 1.031-.515 2.062-.515 3.092l-3.608 36.592v4.123c0 2.061.516 4.123 1.031 5.153 1.03 2.062 2.577 3.092 5.67 3.092 1.03 0 2.06 0 3.091-.515 1.031-.515 1.546-.515 2.062-1.546.515-.515 1.03-1.03 1.546-2.061.515-.516.515-1.547 1.03-2.577 0-1.031.516-2.062.516-2.577 0-.516 0-2.062.515-3.092l1.031-7.73h15.977l-.516 6.699c-.515 3.607-1.03 7.215-2.061 10.307-1.031 3.092-2.577 5.67-4.639 7.73-2.061 2.578-4.638 4.124-7.73 5.154-3.092 1.031-7.215 2.062-11.338 2.062-3.608 0-6.7-.515-9.277-1.546-2.577-1.03-4.638-2.062-6.7-3.608-1.546-1.546-3.092-3.607-3.607-5.669-1.03-2.061-1.546-4.638-1.546-7.73v-2.577c-2.062-1.546-2.062-3.608-2.062-6.185zm-442.186 14.946c16.492-27.83 86.582-20.1 177.802 15.461-1.03 6.185-1.546 11.854-2.061 18.038-19.584 15.976-35.56 36.076-46.383 59.267 8.246-4.638 22.676-11.853 42.775-20.099 6.7-3.092 14.43-5.669 22.161-8.761 15.977-5.67 34.53-11.854 54.63-17.007 5.668-1.547 11.337-2.577 17.006-4.123 0 0 3.608-2.062 11.338-5.67l3.093-1.546-3.093 1.547c-7.73 4.123-15.46 8.245-23.707 12.368-4.122 2.062-8.245 4.639-12.884 6.7-1.03.516-2.061 1.031-3.607 2.062-5.154 2.577-9.792 5.669-14.946 8.246-10.307 6.184-20.615 11.853-30.407 18.037-2.061 1.031-3.607 2.062-5.669 3.608l-4.638 3.092-12.369 7.73c-17.007 10.824-35.56 23.708-53.598 37.107-3.608 2.577-7.215 5.154-10.308 7.73-.515 0-.515.516-1.03.516-1.031 1.03-2.062 1.546-3.092 2.577 1.03 1.03 2.576 2.061 3.607 3.092-1.03-1.03-2.577-2.061-3.607-3.092-75.244-61.329-117.504-118.535-101.013-146.88zm300.975 49.475c-7.73 3.608-15.46 7.731-23.707 11.854-4.638 2.577-9.792 5.154-14.43 7.73 4.638-2.576 9.792-5.153 14.43-7.73 8.246-4.123 15.977-8.246 23.707-11.854 14.946-7.215 29.892-14.43 44.322-20.614-14.43 6.184-29.376 13.4-44.322 20.614zm22.161 78.852c0 2.061 0 4.638-.515 7.215-.516 6.184-2.062 11.853-4.123 15.976-2.062 4.639-4.638 7.73-8.246 10.308-3.608 2.577-7.215 4.638-11.338 5.669-4.123 1.03-8.761 1.546-13.915 1.546h-11.338l-5.67 53.598h-24.737l12.884-122.657h37.622c20.1 0 29.376 9.276 29.376 28.345zm-153.064-3.608c-.516 0-.516.516-1.03.516-.516.515-1.032 1.03-2.062 1.546.515-.516 1.03-1.031 2.061-1.546 0 0 .515-.516 1.03-.516zm107.196 356.635c-32.468 0-60.813-65.452-75.759-161.826 5.154-2.061 10.823-4.638 15.977-6.7-6.185-2.576-12.37-5.153-18.554-8.76-2.576-1.547-4.638-2.578-7.215-4.124-5.153 2.062-9.792 4.123-14.43 5.67-91.22 35.044-161.826 43.29-178.317 14.945-15.977-28.345 26.283-85.036 102.558-145.85 4.638 3.608 9.792 7.216 14.43 10.824 6.185 41.23 27.83 77.82 59.268 102.558 5.153 4.123 10.822 8.246 16.491 11.853 2.577 1.546 4.639 2.577 7.215 4.123 6.185 3.092 11.854 6.185 18.554 8.762 18.553 7.215 38.652 11.338 59.782 11.338 5.154 0 10.308 0 15.461-.516-8.245-5.153-22.16-13.915-39.168-26.799-5.669-4.638-12.368-9.276-19.068-14.946-12.884-10.822-27.315-23.706-41.745-38.652-4.123-4.123-8.246-8.246-11.853-12.884 0 0 4.123 2.576 11.853 7.215 1.03.515 1.546 1.03 2.577 1.546 8.761 5.669 18.038 10.823 27.314 16.492 10.308 6.184 20.615 11.853 30.922 17.007 7.731 4.123 15.977 8.246 23.707 12.369 11.854 6.184 23.707 11.853 35.56 17.522 7.731 3.608 15.977 7.215 23.708 10.823 5.153 2.061 10.822 4.123 16.492 6.7-14.946 96.374-43.291 161.31-75.76 161.31zm77.821-463.316c-.515-5.154-1.546-10.307-2.061-15.461-5.154 2.061-10.823 4.638-15.977 6.7-7.73 3.092-15.46 6.7-23.191 10.307 7.73-3.607 15.46-7.215 23.191-10.307-18.553-7.215-38.652-11.338-59.783-11.338-20.614 0-40.714 4.123-58.752 10.822-6.7 2.577-12.884 5.67-19.068 8.762.515-5.67 1.546-10.823 2.577-15.977 14.945-96.374 43.29-161.31 75.759-161.31 32.468 0 60.813 65.452 75.759 161.826.515 5.153 1.03 10.307 1.546 15.976 0 1.03.515 2.061.515 3.608 0-1.547 0-2.577-.515-3.608zm199.447 303.552c-16.491 27.83-86.581 20.1-177.802-15.461 1.031-6.185 1.547-11.854 2.062-18.038 30.922-24.738 52.567-60.814 59.267-102.043 1.031-6.7 1.546-13.915 2.062-21.13 4.123 3.607 8.761 6.7 12.884 9.792 75.759 61.844 118.02 118.535 101.527 146.88zm.516-320.044c15.976 28.345-26.284 85.036-102.558 145.85 6.184 4.638 11.853 9.276 17.522 13.914 90.705-73.182 140.18-143.272 119.565-179.863-7.215-12.369-21.645-19.584-41.744-22.161 1.03 5.154 2.061 10.307 2.061 15.976 0 6.185-1.03 12.37-2.577 18.038 3.608 2.062 6.185 4.639 7.73 8.246z"/>
    </defs>
    <g fill="none" fill-rule="evenodd" opacity=".3" transform="translate(-1307 -78)">
        <use fill="url(#a)" xlink:href="#b"/>
        <use fill="url(#c)" xlink:href="#b"/>
    </g>
</svg>
