<svg xmlns="http://www.w3.org/2000/svg" width="40" height="40" viewBox="0 0 40 40">
    <g fill="none" fill-rule="evenodd">
        <circle cx="20" cy="20" r="20" fill="#FFF"/>
        <path fill="#275182" d="M13.284 11.586a2.083 2.083 0 1 0 0 4.168 2.083 2.083 0 0 0 2.084-2.084 2.083 2.083 0 0 0-2.084-2.084zm15.694 9.618c-.274-2.26-1.304-3.663-4.354-3.663-1.788 0-2.994.658-3.498 1.613h-.055V17.54h-3.324v11.922h3.477v-5.911c0-1.558.307-3.06 2.216-3.06 1.919 0 2.061 1.776 2.061 3.169v5.802h3.576v-6.548c0-.614-.033-1.184-.099-1.71zM11.2 20.711v8.752h4.168V17.54H11.2v3.17z"/>
    </g>
</svg>
