<?xml version="1.0" encoding="UTF-8" standalone="no"?>
<svg width="113px" height="122px" viewBox="0 0 113 122" version="1.1" xmlns="http://www.w3.org/2000/svg" xmlns:xlink="http://www.w3.org/1999/xlink">
    <!-- Generator: Sketch 50.2 (55047) - http://www.bohemiancoding.com/sketch -->
    <title>marker</title>
    <desc>Created with Sketch.</desc>
    <defs>
        <linearGradient x1="0.112355604%" y1="49.8979271%" x2="100.035775%" y2="49.8979271%" id="linearGradient-1">
            <stop stop-color="#5E79CF" offset="0%"></stop>
            <stop stop-color="#54B5C3" offset="100%"></stop>
        </linearGradient>
        <path d="M486.600241,313.047891 L487.372221,313.047891 C487.93834,313.047891 488.350063,312.944961 488.555924,312.687634 C488.761785,312.430307 488.916181,312.018585 488.967647,311.349535 C488.967647,311.092209 489.019112,310.886347 489.019112,310.680486 C489.019112,310.577555 489.019112,310.474625 489.019112,310.371694 C489.019112,310.114367 488.864716,309.908506 488.71032,309.805575 C488.504459,309.651179 488.195667,309.599714 487.783944,309.599714 L486.960499,309.599714 L486.600241,313.047891 Z M506.002672,313.974267 C505.436553,313.511079 504.870434,313.047891 504.25285,312.584703 C503.789662,312.224446 503.275009,311.864189 502.811821,311.503931 C502.400098,308.930665 501.422257,306.563259 499.981228,304.504646 C499.981228,305.431022 499.878297,307.077913 499.62097,309.239457 C499.51804,309.959971 499.415109,310.783417 499.260713,311.606862 C498.951921,313.305218 498.540198,315.15797 497.97408,317.165118 C497.819684,317.731237 497.665288,318.297355 497.459426,318.863474 C497.459426,318.863474 497.459426,318.657613 497.459426,318.24589 C497.459426,317.988563 497.459426,317.731237 497.459426,317.47391 C497.510892,316.290207 497.510892,315.106505 497.510892,313.922802 C497.510892,312.739099 497.510892,311.555397 497.459426,310.423159 C497.459426,309.548249 497.407961,308.621873 497.356496,307.746962 C497.253565,305.482487 497.047704,303.320944 496.841842,301.210865 C496.841842,301.210865 496.790377,300.747677 496.738912,300.541816 C496.687446,300.181558 496.635981,299.821301 496.584516,299.461044 L499.929762,298.328806 C500.959069,300.181558 502.863286,301.519657 505.076296,301.725518 C505.282157,301.725518 505.539484,301.776984 505.745345,301.776984 C508.936196,301.776984 511.612393,299.563974 512.281442,296.578985 C512.384373,296.115797 512.435838,295.601144 512.435838,295.08649 C512.435838,294.623302 512.384373,294.160114 512.281442,293.748392 C511.818254,291.432452 510.119898,289.528234 507.855424,288.756254 C507.186374,288.550393 506.46586,288.395997 505.69388,288.395997 C501.988376,288.395997 499.003386,291.380986 499.003386,295.08649 C499.003386,295.498213 499.054852,295.909936 499.106317,296.321658 C498.179941,296.63045 497.253565,296.990708 496.275724,297.350965 C494.474437,285.874196 490.820399,278 486.651707,278 C482.483015,278 478.828976,285.822731 477.027689,297.2995 C466.21997,293.130808 457.625259,292.358828 455.515181,295.961401 C453.405102,299.563974 458.345774,306.614725 467.403672,313.974267 C467.506603,314.025733 467.609534,314.128663 467.660999,314.180129 C467.558068,314.128663 467.455138,314.025733 467.403672,313.974267 C458.345774,321.282345 453.405102,328.28163 455.463715,331.935668 C457.573794,335.589707 466.168504,334.817727 477.027689,330.649035 C478.828976,342.125804 482.483015,350 486.651707,350 C490.820399,350 494.474437,342.177269 496.275724,330.7005 C507.083444,334.869192 515.678154,335.641172 517.788233,332.038599 C520.001242,328.333095 515.009105,321.282345 506.002672,313.974267 Z M503.223544,296.373124 L503.532336,293.4396 C503.583801,292.976412 503.635266,292.616154 503.789662,292.255897 C503.892593,291.947105 504.046989,291.638313 504.25285,291.380986 C504.458712,291.12366 504.716038,290.969264 505.076296,290.814868 C505.385088,290.711937 505.79681,290.609006 506.259998,290.609006 C506.671721,290.609006 507.031978,290.660472 507.34077,290.763402 C507.649562,290.866333 507.855424,291.020729 508.00982,291.278056 C508.164216,291.483917 508.267146,291.741244 508.318612,291.99857 C508.370077,292.152966 508.370077,292.307362 508.370077,292.513224 C508.370077,292.66762 508.370077,292.822016 508.370077,292.976412 L508.267146,293.696926 L506.620256,293.696926 L506.723186,292.924946 C506.723186,292.822016 506.723186,292.77055 506.723186,292.719085 C506.723186,292.66762 506.723186,292.616154 506.723186,292.513224 C506.723186,292.410293 506.723186,292.358828 506.723186,292.307362 C506.723186,292.255897 506.723186,292.204432 506.723186,292.152966 C506.723186,292.101501 506.723186,292.050036 506.671721,291.99857 C506.671721,291.947105 506.620256,291.947105 506.620256,291.89564 C506.56879,291.844174 506.56879,291.844174 506.517325,291.792709 C506.46586,291.792709 506.414394,291.741244 506.362929,291.741244 C506.311464,291.741244 506.208533,291.741244 506.157068,291.741244 C506.054137,291.741244 505.951206,291.741244 505.848276,291.792709 C505.745345,291.844174 505.69388,291.844174 505.642414,291.947105 C505.590949,291.99857 505.539484,292.050036 505.488018,292.152966 C505.436553,292.204432 505.436553,292.307362 505.385088,292.410293 C505.333622,292.513224 505.333622,292.616154 505.333622,292.719085 C505.333622,292.822016 505.282157,292.924946 505.282157,293.027877 L504.9219,296.681916 C504.9219,296.836312 504.9219,296.939242 504.9219,297.093638 C504.9219,297.2995 504.973365,297.505361 505.02483,297.608292 C505.127761,297.814153 505.282157,297.917084 505.590949,297.917084 C505.69388,297.917084 505.79681,297.917084 505.899741,297.865618 C506.002672,297.814153 506.054137,297.814153 506.105602,297.711222 C506.157068,297.659757 506.208533,297.608292 506.259998,297.505361 C506.311464,297.453896 506.311464,297.350965 506.362929,297.248034 C506.362929,297.145104 506.414394,297.042173 506.414394,296.990708 C506.414394,296.939242 506.414394,296.784846 506.46586,296.681916 L506.56879,295.909936 L508.164216,295.909936 L508.11275,296.578985 C508.061285,296.939242 508.00982,297.2995 507.906889,297.608292 C507.803958,297.917084 507.649562,298.17441 507.443701,298.380272 C507.23784,298.637598 506.980513,298.791994 506.671721,298.894925 C506.362929,298.997856 505.951206,299.100786 505.539484,299.100786 C505.179226,299.100786 504.870434,299.049321 504.613108,298.94639 C504.355781,298.84346 504.14992,298.740529 503.944058,298.586133 C503.789662,298.431737 503.635266,298.225876 503.583801,298.020014 C503.48087,297.814153 503.429405,297.556826 503.429405,297.248034 C503.429405,297.145104 503.429405,297.093638 503.429405,296.990708 C503.223544,296.836312 503.223544,296.63045 503.223544,296.373124 Z M459.066288,297.865618 C460.713179,295.08649 467.712464,295.85847 476.821828,299.409578 C476.718897,300.027162 476.667432,300.593281 476.615967,301.210865 C474.660284,302.80629 473.064859,304.813438 471.984087,307.129378 C472.807532,306.66619 474.248562,305.945675 476.255709,305.12223 C476.924759,304.813438 477.696739,304.556112 478.468719,304.24732 C480.064144,303.681201 481.916896,303.063617 483.924044,302.548964 C484.490163,302.394568 485.056281,302.291637 485.6224,302.137241 C485.6224,302.137241 485.982657,301.93138 486.754637,301.571122 C486.857568,301.519657 486.960499,301.468192 487.063429,301.416726 C486.960499,301.468192 486.857568,301.519657 486.754637,301.571122 C485.982657,301.982845 485.210677,302.394568 484.387232,302.80629 C483.975509,303.012152 483.563787,303.269478 483.100599,303.47534 C482.997668,303.526805 482.894737,303.57827 482.740341,303.681201 C482.225688,303.938528 481.7625,304.24732 481.247847,304.504646 C480.21854,305.12223 479.189233,305.688349 478.211392,306.305933 C478.005531,306.408863 477.851135,306.511794 477.645273,306.66619 C477.490877,306.769121 477.336481,306.872051 477.182085,306.974982 C476.770363,307.232309 476.35864,307.489635 475.946917,307.746962 C474.248562,308.827734 472.39581,310.114367 470.594523,311.452466 C470.234266,311.709793 469.874008,311.967119 469.565216,312.224446 C469.513751,312.224446 469.513751,312.275911 469.462286,312.275911 C469.359355,312.378842 469.256424,312.430307 469.153494,312.533238 C469.256424,312.636169 469.41082,312.739099 469.513751,312.84203 C469.41082,312.739099 469.256424,312.636169 469.153494,312.533238 C461.639555,306.408863 457.419398,300.696212 459.066288,297.865618 Z M489.122043,302.80629 C488.350063,303.166548 487.578083,303.57827 486.754637,303.989993 C486.291449,304.24732 485.776796,304.504646 485.313608,304.761973 C485.776796,304.504646 486.291449,304.24732 486.754637,303.989993 C487.578083,303.57827 488.350063,303.166548 489.122043,302.80629 C490.614537,302.085776 492.107032,301.365261 493.548061,300.747677 C492.107032,301.365261 490.614537,302.085776 489.122043,302.80629 Z M491.335052,310.680486 C491.335052,310.886347 491.335052,311.143674 491.283587,311.401001 C491.232121,312.018585 491.077725,312.584703 490.871864,312.996426 C490.666003,313.459614 490.408676,313.768406 490.048419,314.025733 C489.688161,314.283059 489.327904,314.488921 488.916181,314.591851 C488.504459,314.694782 488.041271,314.746247 487.526617,314.746247 L486.39438,314.746247 L485.828261,320.098642 L483.357925,320.098642 L484.644559,307.849893 L488.401528,307.849893 C490.408676,307.849893 491.335052,308.776269 491.335052,310.680486 Z M476.049848,310.320229 C475.998383,310.320229 475.998383,310.371694 475.946917,310.371694 C475.895452,310.423159 475.843987,310.474625 475.741056,310.52609 C475.792521,310.474625 475.843987,310.423159 475.946917,310.371694 C475.946917,310.371694 475.998383,310.320229 476.049848,310.320229 Z M486.754637,345.934239 C483.512321,345.934239 480.681728,339.398142 479.189233,329.774124 C479.703887,329.568263 480.270005,329.310936 480.784659,329.105075 C480.167075,328.847748 479.549491,328.590422 478.931907,328.230164 C478.67458,328.075768 478.468719,327.972838 478.211392,327.818442 C477.696739,328.024303 477.233551,328.230164 476.770363,328.38456 C467.660999,331.884203 460.610248,332.707648 458.963358,329.877055 C457.367933,327.046462 461.58809,321.385275 469.204959,315.312366 C469.668147,315.672623 470.1828,316.032881 470.645988,316.393138 C471.263572,320.510365 473.425116,324.164403 476.564501,326.634739 C477.079155,327.046462 477.645273,327.458184 478.211392,327.818442 C478.468719,327.972838 478.67458,328.075768 478.931907,328.230164 C479.549491,328.538956 480.115609,328.847748 480.784659,329.105075 C482.637411,329.82559 484.644559,330.237312 486.754637,330.237312 C487.269291,330.237312 487.783944,330.237312 488.298597,330.185847 C487.475152,329.671194 486.085588,328.796283 484.387232,327.50965 C483.821113,327.046462 483.152064,326.583274 482.483015,326.017155 C481.196381,324.936383 479.755352,323.64975 478.314323,322.157255 C477.9026,321.745533 477.490877,321.33381 477.13062,320.870622 C477.13062,320.870622 477.542343,321.127949 478.314323,321.591137 C478.417253,321.642602 478.468719,321.694067 478.571649,321.745533 C479.44656,322.311651 480.372936,322.826305 481.299312,323.392423 C482.328619,324.010007 483.357925,324.576126 484.387232,325.090779 C485.159212,325.502502 485.982657,325.914224 486.754637,326.325947 C487.93834,326.943531 489.122043,327.50965 490.305745,328.075768 C491.077725,328.436026 491.901171,328.796283 492.673151,329.15654 C493.187804,329.362402 493.753922,329.568263 494.320041,329.82559 C492.827547,339.449607 489.996953,345.934239 486.754637,345.934239 Z M494.525902,299.666905 C494.474437,299.152252 494.371506,298.637598 494.320041,298.122945 C493.805388,298.328806 493.239269,298.586133 492.724616,298.791994 C491.952636,299.100786 491.180656,299.461044 490.408676,299.821301 C491.180656,299.461044 491.952636,299.100786 492.724616,298.791994 C490.871864,298.07148 488.864716,297.659757 486.754637,297.659757 C484.696024,297.659757 482.688876,298.07148 480.887589,298.740529 C480.21854,298.997856 479.600956,299.306648 478.983372,299.61544 C479.034837,299.049321 479.137768,298.534668 479.240699,298.020014 C480.733193,288.395997 483.563787,281.911365 486.806103,281.911365 C490.048419,281.911365 492.879012,288.447462 494.371506,298.07148 C494.422972,298.586133 494.474437,299.100786 494.525902,299.666905 C494.525902,299.769836 494.577368,299.872766 494.577368,300.027162 C494.577368,299.872766 494.577368,299.769836 494.525902,299.666905 Z M514.442986,329.979986 C512.796095,332.759114 505.79681,331.987134 496.687446,328.436026 C496.790377,327.818442 496.841842,327.252323 496.893308,326.634739 C499.981228,324.164403 502.142772,320.56183 502.811821,316.444603 C502.914752,315.775554 502.966217,315.055039 503.017682,314.334525 C503.429405,314.694782 503.892593,315.003574 504.304316,315.312366 C511.869719,321.488206 516.089877,327.149392 514.442986,329.979986 Z M514.494451,298.020014 C516.089877,300.850608 511.869719,306.511794 504.25285,312.584703 C504.870434,313.047891 505.436553,313.511079 506.002672,313.974267 C515.06057,306.66619 520.001242,299.666905 517.942629,296.012866 C517.222114,294.777698 515.781085,294.057184 513.773937,293.799857 C513.876867,294.31451 513.979798,294.829164 513.979798,295.395282 C513.979798,296.012866 513.876867,296.63045 513.722471,297.196569 C514.082729,297.40243 514.340055,297.659757 514.494451,298.020014 Z" id="path-2"></path>
        <filter x="-59.1%" y="-52.1%" width="218.3%" height="204.2%" filterUnits="objectBoundingBox" id="filter-3">
            <feMorphology radius="5" operator="dilate" in="SourceAlpha" result="shadowSpreadOuter1"></feMorphology>
            <feOffset dx="0" dy="0" in="shadowSpreadOuter1" result="shadowOffsetOuter1"></feOffset>
            <feGaussianBlur stdDeviation="7.5" in="shadowOffsetOuter1" result="shadowBlurOuter1"></feGaussianBlur>
            <feColorMatrix values="0 0 0 0 1   0 0 0 0 1   0 0 0 0 1  0 0 0 0.795884284 0" type="matrix" in="shadowBlurOuter1"></feColorMatrix>
        </filter>
    </defs>
    <g id="Page-1" stroke="none" stroke-width="1" fill="none" fill-rule="evenodd">
        <g id="Powercode-Academy-Landing-333" transform="translate(-430.000000, -6538.000000)" fill-rule="nonzero">
            <g id="CONTACTS" transform="translate(0.000000, 6285.000000)">
                <g id="marker">
                    <use fill="black" fill-opacity="1" filter="url(#filter-3)" xlink:href="#path-2"></use>
                    <use fill="url(#linearGradient-1)" fill-rule="evenodd" xlink:href="#path-2"></use>
                </g>
            </g>
        </g>
    </g>
</svg>