<?xml version="1.0" encoding="UTF-8" standalone="no"?>
<svg width="120px" height="120px" viewBox="0 0 120 120" version="1.1" xmlns="http://www.w3.org/2000/svg" xmlns:xlink="http://www.w3.org/1999/xlink">
    <!-- Generator: Sketch 50.2 (55047) - http://www.bohemiancoding.com/sketch -->
    <title>online</title>
    <desc>Created with Sketch.</desc>
    <defs></defs>
    <g id="Page-1" stroke="none" stroke-width="1" fill="none" fill-rule="evenodd">
        <g id="Powercode-Academy-Landing-333" transform="translate(-991.000000, -2630.000000)">
            <g id="FEATURES" transform="translate(0.000000, 2105.000000)">
                <g id="icons" transform="translate(390.000000, 165.000000)">
                    <g id="online" transform="translate(601.000000, 360.000000)">
                        <circle id="Oval-2-Copy-12" stroke="#8DCEFF" stroke-width="2" cx="60" cy="60" r="59"></circle>
                        <path d="M86.6666667,31 L33.3333333,31 C30.3925333,31 28,33.3925333 28,36.3333333 L28,76.8666667 C28,79.8074667 30.3925333,82.2 33.3333333,82.2 L53.3002667,82.2 L51.7002667,88.6 L50.4,88.6 C47.4592,88.6 45.0666667,90.9925333 45.0666667,93.9333333 C45.0666667,94.5232 45.5445333,95 46.1333333,95 L73.8666667,95 C74.4554667,95 74.9333333,94.5232 74.9333333,93.9333333 C74.9333333,90.9925333 72.5408,88.6 69.6,88.6 L68.2997333,88.6 L66.6997333,82.2 L86.6666667,82.2 C89.6074667,82.2 92,79.8074667 92,76.8666667 L92,36.3333333 C92,33.3925333 89.6074667,31 86.6666667,31 Z M67.4666667,90.7333333 L69.6,90.7333333 C70.9909333,90.7333333 72.1770667,91.6250667 72.6176,92.8666667 L47.3824,92.8666667 C47.8229333,91.6250667 49.0090667,90.7333333 50.4,90.7333333 L52.5333333,90.7333333 L67.4666667,90.7333333 Z M53.8997333,88.6 L55.4997333,82.2 L64.5002667,82.2 L66.1002667,88.6 L53.8997333,88.6 Z M89.8666667,76.8666667 C89.8666667,78.6309333 88.4309333,80.0666667 86.6666667,80.0666667 L65.3333333,80.0666667 L54.6666667,80.0666667 L33.3333333,80.0666667 C31.5690667,80.0666667 30.1333333,78.6309333 30.1333333,76.8666667 L30.1333333,74.7333333 L89.8666667,74.7333333 L89.8666667,76.8666667 Z M89.8666667,72.6 L30.1333333,72.6 L30.1333333,36.3333333 C30.1333333,34.5690667 31.5690667,33.1333333 33.3333333,33.1333333 L86.6666667,33.1333333 C88.4309333,33.1333333 89.8666667,34.5690667 89.8666667,36.3333333 L89.8666667,72.6 Z" id="Shape" fill="#FFFFFF" fill-rule="nonzero"></path>
                        <path d="M81.6394667,41.7114667 L60.3061333,35.3114667 C60.1066667,35.2506667 59.8922667,35.2506667 59.6938667,35.3114667 L38.3605333,41.7114667 C37.9093333,41.8469333 37.6,42.2629333 37.6,42.7333333 C37.6,43.2037333 37.9093333,43.6197333 38.3605333,43.7552 L38.6666667,43.8469333 L38.6666667,61.2741333 L37.1232,62.0464 C36.7616,62.2266667 36.5333333,62.5957333 36.5333333,63 L36.5333333,69.4 C36.5333333,69.9898667 37.0112,70.4666667 37.6,70.4666667 L41.8666667,70.4666667 C42.4554667,70.4666667 42.9333333,69.9898667 42.9333333,69.4 L42.9333333,63 C42.9333333,62.5957333 42.7050667,62.2266667 42.3434667,62.0453333 L40.8,61.2741333 L40.8,44.4869333 L45.0666667,45.7669333 L45.0666667,55.5333333 C45.0666667,56.0016 45.3717333,56.4154667 45.8197333,56.5530667 L59.6864,60.8197333 C59.7888,60.8506667 59.8944,60.8666667 60,60.8666667 C60.1056,60.8666667 60.2112,60.8506667 60.3136,60.8197333 L74.1802667,56.5530667 C74.6282667,56.4154667 74.9333333,56.0016 74.9333333,55.5333333 L74.9333333,45.7669333 L81.6394667,43.7552 C82.0906667,43.6197333 82.4,43.2037333 82.4,42.7333333 C82.4,42.2629333 82.0906667,41.8469333 81.6394667,41.7114667 Z M40.8,68.3333333 L38.6666667,68.3333333 L38.6666667,63.6592 L39.7333333,63.1258667 L40.8,63.6592 L40.8,68.3333333 Z M72.8,54.7461333 L60,58.6842667 L47.2,54.7461333 L47.2,46.4069333 L59.6938667,50.1552 C59.7930667,50.1850667 59.8965333,50.2 60,50.2 C60.1034667,50.2 60.2069333,50.1850667 60.3061333,50.1552 L72.8,46.4069333 L72.8,54.7461333 Z M60,48.0197333 L42.3786667,42.7333333 L60,37.4469333 L77.6213333,42.7333333 L60,48.0197333 Z" id="Shape" fill="#FFFFFF" fill-rule="nonzero"></path>
                        <rect id="Rectangle-path" fill="#FFFFFF" fill-rule="nonzero" x="85.6" y="68.3333333" width="2.13333333" height="2.13333333"></rect>
                        <rect id="Rectangle-path" fill="#FFFFFF" fill-rule="nonzero" x="81.3333333" y="68.3333333" width="2.13333333" height="2.13333333"></rect>
                        <rect id="Rectangle-path" fill="#FFFFFF" fill-rule="nonzero" x="77.0666667" y="68.3333333" width="2.13333333" height="2.13333333"></rect>
                    </g>
                </g>
            </g>
        </g>
    </g>
</svg>