<svg xmlns="http://www.w3.org/2000/svg" width="60" height="30" viewBox="0 0 60 30">
    <defs>
        <linearGradient id="a" x1="7.78%" x2="92.221%" y1="10.622%" y2="89.396%">
            <stop offset="0%" stop-color="#FFF" stop-opacity=".2"/>
            <stop offset="100%" stop-color="#FFF" stop-opacity="0"/>
        </linearGradient>
    </defs>
    <g fill="none" fill-rule="nonzero">
        <path fill="#303C42" d="M30 0C13.178 0 0 6.59 0 15s13.178 15 30 15 30-6.59 30-15S46.822 0 30 0z"/>
        <path fill="#82B1FF" d="M30 27.5c-7.188 0-13.82-1.34-18.78-3.477L12.227 20h4.384a7.183 7.183 0 0 0 6.978-5.448l.218-.88a4.933 4.933 0 0 0-.902-4.262A4.935 4.935 0 0 0 18.99 7.5h-5.24a1.25 1.25 0 0 0-1.212.947L8.919 22.922C4.932 20.748 2.5 17.976 2.5 15 2.5 8.224 15.094 2.5 30 2.5S57.5 8.224 57.5 15 44.906 27.5 30 27.5z"/>
        <path fill="#FFF" d="M3.75 16.25c0-6.776 12.594-12.5 27.5-12.5 10.439 0 19.725 2.812 24.365 6.821C51.583 5.908 41.492 2.5 30 2.5 15.094 2.5 2.5 8.224 2.5 15c0 1.995 1.112 3.893 3.033 5.586-1.146-1.358-1.783-2.82-1.783-4.336z" opacity=".2"/>
        <path fill="#82B1FF" d="M12.852 17.5l1.875-7.5h4.263c.765 0 1.474.345 1.944.948.471.604.635 1.375.448 2.118l-.219.88a4.686 4.686 0 0 1-4.552 3.554h-3.76z"/>
        <path fill="#82B1FF" d="M12.852 17.5l1.875-7.5h4.263c.765 0 1.474.345 1.944.948.471.604.635 1.375.448 2.118l-.219.88a4.686 4.686 0 0 1-4.552 3.554h-3.76z"/>
        <g fill="#303C42">
            <path d="M47.74 7.5H42.5a1.25 1.25 0 0 0-1.212.947l-2.494 9.972-.014.053-1.242 4.975A1.248 1.248 0 0 0 38.75 25c.56 0 1.07-.378 1.211-.947L40.976 20h4.385a7.183 7.183 0 0 0 6.978-5.448l.218-.88a4.933 4.933 0 0 0-.902-4.262A4.934 4.934 0 0 0 47.74 7.5zm2.392 5.566l-.219.88a4.686 4.686 0 0 1-4.552 3.554h-3.76l1.876-7.5h4.263c.765 0 1.474.345 1.944.948.471.604.635 1.375.448 2.118zM36.738 9.026a4.125 4.125 0 0 0-3.21-1.526h-3.963l.414-2.277a1.25 1.25 0 1 0-2.458-.447l-2.5 13.75A1.248 1.248 0 0 0 26.25 20c.593 0 1.12-.422 1.228-1.027L29.111 10h4.417c.495 0 .958.22 1.27.604.313.385.435.883.334 1.369l-1.356 6.523a1.252 1.252 0 0 0 2.448.508l1.357-6.523a4.13 4.13 0 0 0-.843-3.455z"/>
        </g>
        <path fill="url(#a)" d="M30 0C13.178 0 0 6.59 0 15s13.178 15 30 15 30-6.59 30-15S46.822 0 30 0z"/>
    </g>
</svg>
