<?xml version="1.0" encoding="UTF-8" standalone="no"?>
<svg width="48px" height="42px" viewBox="0 0 48 42" version="1.1" xmlns="http://www.w3.org/2000/svg" xmlns:xlink="http://www.w3.org/1999/xlink">
    <!-- Generator: Sketch 50.2 (55047) - http://www.bohemiancoding.com/sketch -->
    <title>question-speech-bubble</title>
    <desc>Created with Sketch.</desc>
    <defs>
        <linearGradient x1="0.112355604%" y1="49.8979271%" x2="100.035775%" y2="49.8979271%" id="linearGradient-1">
            <stop stop-color="#5E79CF" offset="0%"></stop>
            <stop stop-color="#54B5C3" offset="100%"></stop>
        </linearGradient>
    </defs>
    <g id="Page-1" stroke="none" stroke-width="1" fill="none" fill-rule="evenodd">
        <g id="Powercode-Academy-Landing-333" transform="translate(-390.000000, -5838.000000)">
            <g id="FAQ" transform="translate(0.000000, 5652.000000)">
                <g id="question" transform="translate(390.000000, 186.000000)">
                    <g id="question-speech-bubble">
                        <path d="M25.6883431,0.0668532731 C13.3799729,0.0668532731 3.40247404,9.27245147 3.40247404,20.6281896 C3.40247404,23.7133002 4.14024379,26.6388081 5.45964786,29.2650474 L0.188099323,38.7970023 C-0.104993228,39.3265192 -0.0519006772,39.9797743 0.322239278,40.4555485 C0.611756208,40.8235124 1.05047404,41.0297065 1.50457788,41.0297065 C1.63709255,41.0297065 1.7707991,41.0121535 1.90266366,40.9757472 L13.4428172,37.8083973 C16.9568939,39.9449932 21.1646411,41.189526 25.6883431,41.189526 C37.9964966,41.189526 47.9742122,31.9840361 47.9742122,20.6281896 C47.9742122,9.27245147 37.9964966,0.0668532731 25.6883431,0.0668532731 Z" id="Shape" fill="url(#linearGradient-1)" fill-rule="nonzero"></path>
                        <path d="M25.6509616,31.1916569 C24.4344921,31.1916569 23.4453454,30.2021851 23.4453454,28.9859323 C23.4453454,27.7696795 24.4347088,26.7802077 25.6509616,26.7802077 C26.8674312,26.7802077 27.8566862,27.7697878 27.8566862,28.9859323 C27.8569029,30.2020767 26.8675395,31.1916569 25.6509616,31.1916569 Z" id="Path" fill="#FFFFFF"></path>
                        <path d="M27.9617878,20.6989436 C27.6720542,20.8970113 27.4718194,21.0429616 27.3634673,21.1346275 L27.3634673,23.4394944 C27.3634673,24.3834582 26.5951422,25.1514582 25.6512867,25.1514582 C24.7069977,25.1514582 23.9391061,24.3834582 23.9391061,23.4394944 L23.9391061,20.9562799 C23.9391061,19.3005508 25.1474492,18.4746907 26.0298691,17.8718194 C26.9821761,17.2211648 27.6112686,16.7913318 27.6112686,15.4489571 C27.6112686,14.3681445 26.7322077,13.4888668 25.6512867,13.4888668 C24.5702573,13.4888668 23.6913047,14.3681445 23.6913047,15.4489571 C23.6913047,16.3930293 22.923088,17.1610293 21.9790158,17.1610293 C21.0349436,17.1610293 20.2667269,16.3930293 20.2667269,15.4489571 C20.2667269,12.4801084 22.6822212,10.0647223 25.6511783,10.0647223 C28.6198104,10.0647223 31.0353047,12.4801084 31.0353047,15.4489571 C31.0355214,18.5989707 29.1114041,19.9137156 27.9617878,20.6989436 Z" id="Path" fill="#FFFFFF"></path>
                    </g>
                </g>
            </g>
        </g>
    </g>
</svg>