<?xml version="1.0" encoding="UTF-8" standalone="no"?>
<svg width="48px" height="48px" viewBox="0 0 48 48" version="1.1" xmlns="http://www.w3.org/2000/svg" xmlns:xlink="http://www.w3.org/1999/xlink">
    <!-- Generator: Sketch 50.2 (55047) - http://www.bohemiancoding.com/sketch -->
    <title>rocket</title>
    <desc>Created with Sketch.</desc>
    <defs></defs>
    <g id="Page-1" stroke="none" stroke-width="1" fill="none" fill-rule="evenodd">
        <g id="Powercode-Academy-Landing-333" transform="translate(-425.000000, -2579.000000)" fill="#52489C" fill-rule="nonzero">
            <g id="FEATURES" transform="translate(0.000000, 2105.000000)">
                <g id="icons" transform="translate(390.000000, 165.000000)">
                    <g id="grow-hover">
                        <g id="rocket" transform="translate(35.000000, 309.000000)">
                            <path d="M6.59209357,34.7219649 C6.14278363,34.2728421 5.41426901,34.2728421 4.9648655,34.7219649 L2.60182456,37.0850058 C2.15251462,37.5343158 2.15251462,38.2628304 2.60182456,38.7122339 C2.82647953,38.9367953 3.12093567,39.0492632 3.41539181,39.0492632 C3.70994152,39.0492632 4.00449123,38.9368889 4.22905263,38.7122339 L6.59209357,36.349193 C7.04140351,35.899883 7.04140351,35.1713684 6.59209357,34.7219649 Z" id="Shape"></path>
                            <path d="M9.93459649,38.0644678 C9.48547368,37.615345 8.75677193,37.615345 8.30755556,38.0644678 L0.430502924,45.941614 C-0.0188070175,46.390924 -0.0188070175,47.1194386 0.430502924,47.5688421 C0.655064327,47.7934035 0.949614035,47.9058713 1.24407018,47.9058713 C1.53852632,47.9058713 1.83298246,47.7934971 2.05763743,47.5688421 L9.93459649,39.6916959 C10.384,39.2422924 10.3839064,38.5137778 9.93459649,38.0644678 Z" id="Shape"></path>
                            <path d="M13.2772865,41.4072515 C12.827883,40.9579415 12.099462,40.957848 11.6502456,41.4071579 L7.7117193,45.3456842 C7.26240936,45.7949942 7.26231579,46.5235088 7.7117193,46.9729123 C7.93637427,47.1974737 8.23083041,47.3099415 8.52528655,47.3099415 C8.81974269,47.3099415 9.11419883,47.1975673 9.3388538,46.9729123 L13.2773801,43.0345731 C13.7265029,42.5851696 13.7266901,41.856655 13.2772865,41.4072515 Z" id="Shape"></path>
                            <path d="M34.9751579,13.024655 C33.6352749,11.6847719 31.8536608,10.9467135 29.9586433,10.9467135 C28.0635322,10.9467135 26.2820117,11.6846784 24.9419415,13.024655 C23.6020585,14.364538 22.864,16.1462456 22.864,18.0413567 C22.864,19.9364678 23.6020585,21.7179883 24.9419415,23.0580585 C26.2818246,24.3979415 28.0634386,25.1359064 29.9586433,25.1359064 C31.8536608,25.1359064 33.6351813,24.3979415 34.9751579,23.0580585 C37.7412865,20.2916491 37.7412865,15.7908772 34.9751579,13.024655 Z M33.3479298,21.4308304 C32.4426667,22.3361871 31.238924,22.834807 29.9585497,22.834807 C28.6780819,22.834807 27.4743392,22.3361871 26.569076,21.4308304 C25.6636257,20.5254737 25.1650994,19.3218246 25.1650994,18.0413567 C25.1650994,16.7608889 25.6636257,15.5572398 26.569076,14.651883 C27.4743392,13.7465263 28.6780819,13.2479064 29.9585497,13.2479064 C31.2388304,13.2479064 32.4426667,13.7465263 33.3479298,14.651883 C35.2168421,16.5207953 35.2168421,19.5619181 33.3479298,21.4308304 Z" id="Shape"></path>
                            <path d="M47.1980351,1.61684211 C47.0917427,1.21918129 46.781193,0.908725146 46.3835322,0.802339181 C42.4490292,-0.249450292 38.2839766,-0.266760234 34.3389006,0.752187135 C33.7239766,0.911064327 33.117848,1.09773099 32.5196725,1.30526316 C32.4679298,1.31939181 32.4169357,1.33716959 32.3671579,1.35859649 C29.0821988,2.52435088 26.0774737,4.41291228 23.5875556,6.8957193 C23.5860585,6.89712281 23.584655,6.89852632 23.583345,6.89983626 C23.5768889,6.9062924 23.5702456,6.91237427 23.5637895,6.91883041 C23.5532164,6.92940351 23.5441404,6.94081871 23.5341287,6.95157895 C23.5244912,6.96205848 23.5141053,6.97160234 23.504655,6.98254971 L19.980538,11.0840702 C14.4366784,11.0228772 9.04898246,13.2133801 5.12074854,17.141614 C3.84346199,18.4189006 2.74133333,19.850386 1.84505263,21.3963041 C1.66418713,21.7082573 1.64004678,22.086924 1.77983626,22.4193684 C1.91962573,22.7519064 2.20715789,22.9994854 2.55653801,23.0882807 L8.95157895,24.7162573 L7.70030409,28.1144327 C7.08238596,29.7927485 7.50025731,31.6942222 8.76481871,32.9587836 L15.0417778,39.2357427 C15.9184094,40.1121871 17.1007251,40.5819883 18.3028772,40.5819883 C18.8350877,40.5819883 19.3712281,40.4898246 19.8863158,40.3002573 L23.2847719,39.0489825 L24.9130292,45.4443041 C25.0018246,45.7936842 25.2495906,46.0813099 25.5819415,46.2210994 C25.7249123,46.2811696 25.8766784,46.310924 26.027883,46.310924 C26.2279298,46.310924 26.4273216,46.258807 26.6050058,46.1556959 C28.1506433,45.2595088 29.5820351,44.1574737 30.8596959,42.88 C34.7882105,38.9514854 36.9776842,33.5629474 36.9171462,28.0193684 L41.0181988,24.4956257 C41.0288655,24.4864561 41.0382222,24.4762573 41.0486082,24.4667135 C41.0596491,24.4565146 41.071345,24.4471579 41.0821053,24.4364912 C41.088655,24.4299415 41.0947368,24.4231111 41.1012865,24.4167485 C41.1025029,24.415345 41.1039064,24.4141287 41.1052164,24.4127251 C43.5880234,21.9229006 45.4765848,18.9183626 46.6423392,15.6334971 C46.6634854,15.5834386 46.6814503,15.5322573 46.6955789,15.4802339 C46.9031111,14.8823392 47.0897778,14.2762105 47.2485614,13.6613801 C48.2672281,9.71639766 48.2498246,5.5514386 47.1980351,1.61684211 Z M4.66516959,21.2507135 C5.28205848,20.3683743 5.97922807,19.5374971 6.74788304,18.7687485 C9.75700585,15.7596257 13.7296842,13.899883 17.9243977,13.4772398 L10.0644678,22.6252164 L4.66516959,21.2507135 Z M9.85936842,28.9095673 L10.9302456,26.0014035 L12.4144094,27.4855673 L10.1711345,31.0756491 C9.71471345,30.4592281 9.58980117,29.6419181 9.85936842,28.9095673 Z M11.8273684,32.7674386 L14.0843977,29.155462 L15.6511813,30.722152 L12.7166316,33.6566082 L11.8273684,32.7674386 Z M14.3436725,35.2837427 L17.2782222,32.3492865 L18.8449123,33.9159766 L15.2329357,36.1730058 L14.3436725,35.2837427 Z M19.090807,38.1410058 C18.3583626,38.4104795 17.5412398,38.2856608 16.9248187,37.8292398 L20.514807,35.5859649 L21.9989708,37.0701287 L19.090807,38.1410058 Z M29.2321871,41.2530526 C28.4634386,42.0217076 27.6324678,42.7186901 26.7502222,43.3357661 L25.3754386,37.936 L34.5236959,30.0756959 C34.1013333,34.2703158 32.2412164,38.2436491 29.2321871,41.2530526 Z M39.4788304,22.7843743 L24.1436257,35.9605146 L12.0399532,23.8568421 L21.3480234,13.0235322 C21.3570994,13.0135205 21.3657076,13.0030409 21.3745029,12.992655 L25.216,8.52173099 C27.3097544,6.43490058 29.8059415,4.81403509 32.5332398,3.75157895 L44.2487953,15.4672281 C43.1865263,18.1945263 41.5656608,20.6907135 39.4788304,22.7843743 Z M45.0401871,13.0043509 L34.9963041,2.9602807 C38.3168187,2.1165848 41.8069708,2.08355556 45.1382456,2.86212865 C45.9168187,6.19330994 45.883883,9.68355556 45.0401871,13.0043509 Z" id="Shape"></path>
                        </g>
                    </g>
                </g>
            </g>
        </g>
    </g>
</svg>