<?xml version="1.0" encoding="UTF-8" standalone="no"?>
<svg width="48px" height="48px" viewBox="0 0 48 48" version="1.1" xmlns="http://www.w3.org/2000/svg" xmlns:xlink="http://www.w3.org/1999/xlink">
    <!-- Generator: Sketch 50 (54983) - http://www.bohemiancoding.com/sketch -->
    <title>rocket (2)</title>
    <desc>Created with Sketch.</desc>
    <defs></defs>
    <g id="Page-1" stroke="none" stroke-width="1" fill="none" fill-rule="evenodd">
        <g id="Powercode-Academy-Landing-Test" transform="translate(-1007.000000, -2940.000000)" fill="#D8F6F6" fill-rule="nonzero">
            <g id="Group-7" transform="translate(403.000000, 2912.000000)">
                <g id="rocket-(2)" transform="translate(604.000000, 28.000000)">
                    <path d="M36.5946199,11.314152 C35.7109708,10.4305029 34.5361404,9.94385965 33.2865497,9.94385965 C32.0369591,9.94385965 30.8621287,10.4305029 29.9784795,11.314152 C29.094924,12.1978012 28.6081871,13.3726316 28.6081871,14.6222222 C28.6081871,15.8718129 29.0948304,17.0467368 29.9784795,17.9302924 C30.8621287,18.8139415 32.0369591,19.3005848 33.2865497,19.3005848 C34.5361404,19.3005848 35.7109708,18.8139415 36.5946199,17.9302924 C37.4781754,17.0466433 37.9649123,15.8718129 37.9649123,14.6222222 C37.9649123,13.372538 37.478269,12.1977076 36.5946199,11.314152 Z M35.2712982,16.6070643 C34.7411462,17.1373099 34.0362105,17.4292398 33.2864561,17.4292398 C32.5367018,17.4292398 31.8317661,17.1372164 31.301614,16.6070643 C30.771462,16.0769123 30.4794386,15.3719766 30.4794386,14.6222222 C30.4794386,13.8724678 30.7713684,13.1675322 31.301614,12.6373801 C31.8317661,12.1071345 32.5367018,11.8152047 33.2864561,11.8152047 C34.0362105,11.8152047 34.7411462,12.1072281 35.2712982,12.6373801 C35.8015439,13.1675322 36.0934737,13.8724678 36.0934737,14.6222222 C36.0934737,15.3719766 35.8014503,16.0769123 35.2712982,16.6070643 Z" id="Shape"></path>
                    <path d="M46.4029006,1.50587135 C45.4036959,0.506666667 43.9990643,0 42.228117,0 C36.7826901,0 28.4305029,4.83349708 20.9500819,12.3139181 C20.4715789,12.7924211 20.0024327,13.277193 19.5426433,13.7664561 L12.2649825,13.7664561 C11.9750175,13.7664561 11.7015205,13.9009123 11.5243041,14.1304327 L0.197333333,28.8043041 C-0.0541754386,29.1301053 -0.063251462,29.5819415 0.175064327,29.9176608 C0.35405848,30.169731 0.640842105,30.3117661 0.93819883,30.3117661 C1.03663158,30.3117661 1.13618713,30.2961404 1.23340351,30.2638596 L11.718269,26.7754854 L12.0948772,27.1520936 L11.3774035,27.8695673 C10.9035789,28.3434854 10.6425263,28.9752515 10.6425263,29.6484678 C10.6425263,30.3216842 10.9035789,30.9533567 11.3774035,31.4273684 L12.2092164,32.2590877 L9.07368421,35.3946199 C8.61539181,35.8529123 8.36294737,36.4638129 8.36294737,37.1148538 C8.36294737,37.7658012 8.61529825,38.3767953 9.07377778,38.8351813 C9.53207018,39.2934737 10.1430643,39.5458246 10.7940117,39.5458246 C11.4449591,39.5458246 12.0558596,39.2933801 12.5142456,38.8350877 L15.6497778,35.6995556 L16.4814971,36.5313684 C16.9555088,37.0052865 17.5871813,37.2662456 18.2603977,37.2662456 C18.9335205,37.2662456 19.5652865,37.0052865 20.0392982,36.5313684 L20.7567719,35.8138947 L21.1333801,36.1905029 L17.6450058,46.675462 C17.5150409,47.0660117 17.6555789,47.4955789 17.9912047,47.7338012 C18.1535439,47.849076 18.3432982,47.9065263 18.5326784,47.9065263 C18.7346901,47.9065263 18.9363275,47.8413099 19.1044678,47.7115322 L33.7785263,36.384655 C34.0080468,36.2074386 34.1425029,35.9339415 34.1425029,35.6439766 L34.1425029,28.3663158 C34.6317661,27.9065263 35.116538,27.4373801 35.5949474,26.9588772 C40.3395556,22.2141754 44.1018012,17.0354152 46.1886316,12.3765146 C46.3935439,11.9189708 46.5800234,11.4707836 46.7481637,11.0322339 C46.749848,11.0279298 46.7515322,11.0236257 46.7531228,11.0194152 C48.3953216,6.73272515 48.2820117,3.38498246 46.4029006,1.50587135 Z M11.3183626,24.9362339 L3.55265497,27.52 L12.7247719,15.6377076 L17.8516959,15.6377076 C15.174269,18.7211228 12.9191111,21.9226199 11.3183626,24.9362339 Z M12.7007251,29.1928889 L13.4181988,28.4754152 L14.7055906,29.762807 L13.532538,30.9358596 L12.7007251,30.1040468 C12.4537076,29.8571228 12.4537076,29.4398129 12.7007251,29.1928889 Z M11.190924,37.5117661 C11.0861287,37.616655 10.9451228,37.674386 10.7940117,37.674386 C10.6429006,37.674386 10.5018012,37.6165614 10.3970058,37.5117661 C10.292117,37.4068772 10.234386,37.2659649 10.234386,37.1147602 C10.234386,36.9636491 10.292117,36.8226433 10.3970058,36.717848 L25.1214035,21.9933567 C25.2262924,21.8885614 25.3672047,21.8308304 25.5183158,21.8308304 C25.6693333,21.8308304 25.8103392,21.8885614 25.9152281,21.9934503 C26.130152,22.2083743 26.1303392,22.5711345 25.9161637,22.7864327 C25.9157895,22.7867135 25.9155088,22.7870877 25.9152281,22.7873684 L11.190924,37.5117661 Z M18.715883,35.2080468 C18.595462,35.3285614 18.4335906,35.3949006 18.2603041,35.3949006 C18.086924,35.3949006 17.9251462,35.3285614 17.8047251,35.2081404 L16.9730058,34.3763275 L18.1460585,33.2032749 L19.4333567,34.4905731 L18.715883,35.2080468 Z M32.2710643,35.1840936 L20.3886784,44.3560234 L22.9722573,36.5905029 C25.9859649,34.9897544 29.1876491,32.7345029 32.2710643,30.0569825 L32.2710643,35.1840936 Z M44.4805614,11.6113216 C42.4847719,16.067462 38.8590409,21.0479532 34.2716257,25.6353684 C30.4540819,29.4529123 26.2549708,32.6807018 22.3763275,34.7869006 L22.0799064,34.4904795 L24.1331462,32.4372398 C24.4985263,32.0718596 24.4985263,31.4793918 24.1331462,31.1140117 C23.7676725,30.7486316 23.1753918,30.7486316 22.8098246,31.1140117 L20.7565848,33.1672515 L19.469193,31.8799532 L27.2385497,24.1105965 C27.2468772,24.102269 27.2545497,24.0935673 27.2627836,24.0851462 C27.2831813,24.0640936 27.3035789,24.0432281 27.3232281,24.0215205 C27.3323977,24.0114152 27.3408187,24.0009357 27.3498012,23.9907368 C27.3678596,23.9700585 27.3861053,23.9493801 27.4034152,23.9281404 C27.4106199,23.919345 27.4171696,23.9103626 27.4242807,23.9014737 C27.442807,23.8781754 27.4612398,23.8549708 27.4787368,23.8311111 C27.4835088,23.8247485 27.4878129,23.8181988 27.4924912,23.8117427 C27.5117661,23.7849825 27.5307602,23.7580351 27.5489123,23.7306199 C27.5512515,23.7269708 27.5534971,23.7233216 27.5558363,23.7196725 C27.5757661,23.6892632 27.5950409,23.6585731 27.6134737,23.6274152 C27.6142222,23.6261988 27.6148772,23.6249825 27.6155322,23.6237661 C27.7152749,23.4542222 27.7936842,23.2735439 27.8494503,23.0849123 C27.8507602,23.0806082 27.8516959,23.076117 27.8530058,23.0718129 C27.8624561,23.0394386 27.871345,23.0068772 27.8792982,22.9740351 C27.8827602,22.9601871 27.8854737,22.9460585 27.8887485,22.932117 C27.8939883,22.9089123 27.8993216,22.8858947 27.9039064,22.8625029 C27.9098947,22.8318129 27.9149474,22.8010292 27.9198129,22.7702456 C27.9209357,22.7635088 27.922152,22.7568655 27.9231813,22.7501287 C27.9585497,22.5119064 27.9585497,22.2693801 27.9232749,22.0310643 C27.9219649,22.0228304 27.9203743,22.0146901 27.9190643,22.0063626 C27.914386,21.9771696 27.9097076,21.9479766 27.904,21.9188772 C27.8990409,21.8934269 27.8932398,21.8683509 27.8874386,21.8430877 C27.8847251,21.8312047 27.8822924,21.8191345 27.8793918,21.8072515 C27.8709708,21.7723509 27.8615205,21.7378246 27.8514152,21.7034854 C27.8507602,21.7011462 27.8501988,21.698807 27.8495439,21.6965614 C27.7825497,21.4694737 27.6827135,21.2538012 27.5520936,21.055345 C27.5510643,21.053848 27.5501287,21.0523509 27.5492865,21.0508538 C27.5295439,21.0210058 27.5089591,20.9917193 27.4879064,20.9627135 C27.4850058,20.9585965 27.4821988,20.9544795 27.4791111,20.9503626 C27.4595556,20.9236959 27.4390643,20.8975906 27.4182924,20.8717661 C27.4134269,20.8656842 27.4088421,20.8593216 27.403883,20.8532398 C27.3832047,20.827883 27.3616842,20.8031813 27.339883,20.7786667 C27.3343626,20.7724912 27.3293099,20.7660351 27.3236959,20.7599532 C27.2960936,20.7294503 27.2676491,20.6995088 27.2384561,20.6703158 C27.0952047,20.5270643 26.937076,20.4040234 26.7675322,20.3024094 C26.394386,20.0788772 25.965848,19.9595789 25.5182222,19.9595789 C25.5181287,19.9595789 25.5181287,19.9595789 25.5181287,19.9595789 C24.8671813,19.9595789 24.2562807,20.2119298 23.7979883,20.6702222 L16.0287251,28.4395789 L14.7413333,27.1521871 L16.7946667,25.0989474 C17.1600468,24.7335673 17.1600468,24.1410994 16.7946667,23.7757193 C16.4292865,23.4103392 15.8370058,23.4103392 15.471345,23.7756257 L13.4180117,25.8288655 L13.1216842,25.532538 C15.2276959,21.6539883 18.4555789,17.4547836 22.2732164,13.6371462 C26.9413801,8.96907602 32.0411696,5.3177076 36.3756725,3.38760234 C36.6463626,5.43756725 37.5885848,7.37412865 39.0614269,8.84706433 C40.5331462,10.3187836 42.467462,11.260538 44.5153684,11.5319766 C44.5035789,11.5585497 44.4924444,11.5847485 44.4805614,11.6113216 Z M45.2355556,9.72332164 C43.4209123,9.60009357 41.6784094,8.81749708 40.3848421,7.52383626 C39.0895906,6.22867836 38.3080234,4.48617544 38.1853567,2.66722807 C39.6766316,2.14849123 41.0438363,1.87134503 42.228117,1.87134503 C43.4847251,1.87134503 44.4441637,2.19359064 45.0796725,2.82909942 C46.3110175,4.06044444 46.3517193,6.52154386 45.2355556,9.72332164 Z" id="Shape"></path>
                    <path d="M26.0494971,29.1973801 C25.684117,28.832 25.0918363,28.832 24.726269,29.1973801 L24.7106433,29.2130058 C24.3452632,29.578386 24.3452632,30.1708538 24.7106433,30.5362339 C24.8933801,30.7189708 25.1328187,30.8102924 25.3722573,30.8102924 C25.6117895,30.8102924 25.8511345,30.7188772 26.0338713,30.5362339 L26.0494971,30.5206082 C26.4148772,30.1552281 26.4148772,29.5627602 26.0494971,29.1973801 Z" id="Shape"></path>
                    <path d="M18.7111111,21.8589006 C18.3456374,21.4935205 17.7533567,21.4935205 17.387883,21.8589006 L17.3722573,21.8745263 C17.0068772,22.2399064 17.0068772,22.8323743 17.3722573,23.1977544 C17.5549942,23.3804912 17.7944327,23.4718129 18.0338713,23.4718129 C18.2734035,23.4718129 18.5127485,23.3803977 18.6954854,23.1977544 L18.7111111,23.1821287 C19.0764912,22.8167485 19.0764912,22.2242807 18.7111111,21.8589006 Z" id="Shape"></path>
                </g>
            </g>
        </g>
    </g>
</svg>