<svg xmlns="http://www.w3.org/2000/svg" width="40" height="40" viewBox="0 0 40 40">
    <g fill="none" fill-rule="evenodd">
        <circle cx="20" cy="20" r="20" fill="#FFF"/>
        <path fill="#60A5F6" fill-rule="nonzero" d="M8.389 19.185l5.069 1.892 1.962 6.31c.125.404.62.553.948.285l2.825-2.303a.843.843 0 0 1 1.028-.03l5.097 3.701c.35.255.848.063.936-.361l3.733-17.959a.598.598 0 0 0-.8-.679L8.383 18.067a.598.598 0 0 0 .006 1.118zm6.715.884l9.907-6.101c.178-.11.361.131.208.273l-8.176 7.6a1.695 1.695 0 0 0-.525 1.014l-.279 2.064c-.037.276-.424.303-.5.036l-1.071-3.763a.998.998 0 0 1 .436-1.123z"/>
    </g>
</svg>
