<svg xmlns="http://www.w3.org/2000/svg" width="40" height="40" viewBox="0 0 40 40">
    <g fill="none" fill-rule="evenodd">
        <circle cx="20" cy="20" r="20" fill="#FFF"/>
        <path fill="#6CAFE7" d="M30.05 14.01a8.85 8.85 0 0 1-2.38.646 4.091 4.091 0 0 0 1.832-2.27c-.8.472-1.7.812-2.643.998a4.135 4.135 0 0 0-3.038-1.294c-2.281 0-4.146 1.832-4.146 4.08 0 .329.055.636.121.932a11.778 11.778 0 0 1-8.555-4.266c-.35.614-.57 1.305-.57 2.05 0 1.426.746 2.677 1.842 3.4a4.02 4.02 0 0 1-1.875-.504v.055c0 .526.1 1.009.285 1.47a4.137 4.137 0 0 0 3.05 2.522 4.08 4.08 0 0 1-1.097.153c-.264 0-.527-.032-.78-.087a4.184 4.184 0 0 0 3.873 2.851 8.39 8.39 0 0 1-5.144 1.744c-.34 0-.658-.022-.998-.055a11.974 11.974 0 0 0 6.361 1.832c6.482 0 10.485-4.486 11.526-9.147a11.22 11.22 0 0 0 .274-2.468v-.526a8.58 8.58 0 0 0 2.062-2.117"/>
    </g>
</svg>
