<?xml version="1.0" encoding="UTF-8" standalone="no"?>
<svg width="44px" height="38px" viewBox="0 0 44 38" version="1.1" xmlns="http://www.w3.org/2000/svg" xmlns:xlink="http://www.w3.org/1999/xlink">
    <!-- Generator: Sketch 50.2 (55047) - http://www.bohemiancoding.com/sketch -->
    <title>video-camera</title>
    <desc>Created with Sketch.</desc>
    <defs></defs>
    <g id="Page-1" stroke="none" stroke-width="1" fill="none" fill-rule="evenodd">
        <g id="Powercode-Academy-Landing-Features-4" transform="translate(-1031.000000, -184.000000)" fill="#52489C" fill-rule="nonzero">
            <g id="FEATURES">
                <g id="icons" transform="translate(390.000000, 165.000000)">
                    <g id="online" transform="translate(601.000000, 0.000000)">
                        <g id="video-camera" transform="translate(40.000000, 19.000000)">
                            <path d="M0,21.6468861 L0,32.7905823 C0,35.3999494 2.40162025,37.3103291 5.01043038,37.3103291 L27.8503291,37.3103291 C30.4596962,37.3103291 32.3037975,35.3993924 32.3037975,32.7905823 L32.3037975,32.6413165 L40.7139241,36.8190886 C40.8698734,36.8981772 40.9723544,36.9388354 41.1466835,36.9388354 C42.7858228,36.9388354 44,35.6043544 44,33.9011646 L44,19.4803038 C44,17.7771139 42.855443,16.4437468 41.2163038,16.4437468 C41.0425316,16.4437468 40.9411646,16.4844051 40.7857722,16.5623797 L32.4619747,20.7635443 C32.0598481,18.6459747 30.2619747,17.0291139 28.0547342,16.9260759 C30.3755949,15.2184304 31.899443,12.4765063 31.899443,9.38035443 C31.899443,4.21174684 27.6993924,0.00612658228 22.5302278,0.00612658228 C18.3078987,0.00612658228 14.7338734,2.81432911 13.5648101,6.65959494 C12.2787848,5.36632911 10.500962,4.56318987 8.53711392,4.56318987 C4.62501266,4.56318987 1.44253165,7.74622785 1.44253165,11.6577722 C1.44253165,13.8115443 2.2718481,15.7408608 3.79235443,17.043038 C1.70151899,17.5337215 0,19.4090127 0,21.6468861 Z M41.2825823,18.7011139 C41.6178734,18.803038 41.7721519,19.1522532 41.7721519,19.4803038 L41.7721519,33.9011646 C41.7721519,34.2297722 41.6178734,34.5795443 41.2836962,34.6814684 L32.3037975,30.1455696 L32.3037975,23.2130633 L41.2825823,18.7011139 Z M14.8942785,14.579038 C15.472962,15.3944304 16.1791899,16.1457722 16.9828861,16.7027342 L13.2863291,16.7027342 C13.947443,16.1457722 14.4943797,15.3860759 14.8942785,14.579038 Z M15.3888608,9.38091139 C15.3888608,5.44040506 18.5941772,2.23453165 22.5341266,2.23453165 C26.4746329,2.23453165 29.6799494,5.44040506 29.6799494,9.38091139 C29.6799494,13.3203038 26.4746329,16.5256203 22.5341266,16.5256203 C19.183443,16.5256203 16.3724557,14.2042025 15.6038481,11.087443 C15.5726582,10.7014684 15.5091646,10.325519 15.4183797,9.95959494 C15.4027848,9.768 15.3888608,9.5758481 15.3888608,9.38091139 Z M8.53822785,6.79159494 C10.7493671,6.79159494 12.6174177,8.27534177 13.2077975,10.2982278 C13.2451139,10.6819747 13.3108354,11.0573671 13.3932658,11.4266329 C13.3966076,11.5040506 13.404962,11.5797975 13.404962,11.6583291 C13.404962,14.3417722 11.2216709,16.5250633 8.53822785,16.5250633 C5.85422785,16.5250633 3.67093671,14.3417722 3.67093671,11.6583291 C3.67093671,8.97488608 5.85422785,6.79159494 8.53822785,6.79159494 Z M30.0759494,32.5783797 C30.0759494,33.9613165 28.9547848,35.082481 27.5718481,35.082481 L4.73194937,35.082481 C3.34901266,35.082481 2.2278481,33.9613165 2.2278481,32.5783797 L2.2278481,21.4346835 C2.2278481,20.0517468 3.34901266,18.9305823 4.73194937,18.9305823 L27.5718481,18.9305823 C28.9547848,18.9305823 30.0759494,20.0517468 30.0759494,21.4346835 L30.0759494,32.5783797 Z" id="Shape"></path>
                        </g>
                    </g>
                </g>
            </g>
        </g>
    </g>
</svg>