<?xml version="1.0" encoding="UTF-8" standalone="no"?>
<svg width="46px" height="37px" viewBox="0 0 46 37" version="1.1" xmlns="http://www.w3.org/2000/svg" xmlns:xlink="http://www.w3.org/1999/xlink">
    <!-- Generator: Sketch 50.2 (55047) - http://www.bohemiancoding.com/sketch -->
    <title>webinar</title>
    <desc>Created with Sketch.</desc>
    <defs></defs>
    <g id="Page-1" stroke="none" stroke-width="1" fill="none" fill-rule="evenodd">
        <g id="Powercode-Academy-Landing-Features-5" transform="translate(-1229.000000, -306.000000)" fill="#52489C" fill-rule="nonzero" stroke="#52489C" stroke-width="0.4">
            <g id="FEATURES">
                <g id="icons" transform="translate(390.000000, 165.000000)">
                    <g id="community" transform="translate(802.000000, 0.000000)">
                        <g id="webinar" transform="translate(38.000000, 142.000000)">
                            <path d="M43.048666,0 L9.7036071,0 C9.1781703,0 8.75227307,0.425897224 8.75227307,0.95133403 L8.75227307,9.08664195 C5.27389544,9.55329633 2.58212084,12.5385825 2.58212084,16.1426364 C2.58212084,18.6829987 3.92009705,20.9155293 5.92741185,22.1761971 C2.44733183,23.6520666 0,27.1030058 0,31.1149316 L0,34.3262347 C0,34.8516715 0.425897224,35.2775688 0.95133403,35.2775688 C1.47677084,35.2775688 1.90266806,34.8516715 1.90266806,34.3262347 L1.90266806,31.1149316 C1.90266806,26.8134998 5.40207518,23.3140927 9.70340682,23.3140927 C14.0048386,23.3140927 17.5042457,26.8134998 17.5042457,31.1149316 L17.5042457,34.3262347 C17.5042457,34.8516715 17.930143,35.2775688 18.4555798,35.2775688 C18.9810166,35.2775688 19.4069138,34.8516715 19.4069138,34.3262347 L19.4069138,31.1149316 C19.4069138,29.2900727 18.9002032,27.5815769 18.0206699,26.1219301 L25.424452,26.1219301 L25.424452,27.9516959 L21.4617953,27.9516959 C20.9363585,27.9516959 20.5104613,28.3775931 20.5104613,28.9030299 C20.5104613,29.4284667 20.9363585,29.854364 21.4617953,29.854364 L31.2898769,29.854364 C31.8153137,29.854364 32.241211,29.4284667 32.241211,28.9030299 C32.241211,28.3775931 31.8153137,27.9516959 31.2898769,27.9516959 L27.3273204,27.9516959 L27.3273204,26.1219301 L43.048666,26.1219301 C43.5741028,26.1219301 44,25.6960328 44,25.170596 L44,0.95133403 C44,0.425997364 43.5741028,0 43.048666,0 Z M42.0973319,1.90266806 L42.0973319,20.3580475 L32.3891184,20.3580475 L32.3891184,19.1562623 C32.3891184,16.8371102 31.1015128,14.8137729 29.2041522,13.761197 C30.2101629,12.9117057 30.850661,11.6424259 30.850661,10.2257393 C30.850661,7.67426141 28.7748502,5.59845055 26.2232722,5.59845055 C23.6716942,5.59845055 21.5958833,7.67426141 21.5958833,10.2257393 C21.5958833,11.6424259 22.2364816,12.9117057 23.2423922,13.761197 C21.3450316,14.8137729 20.057426,16.8370101 20.057426,19.1562623 L20.057426,20.3580475 L15.4386492,20.3580475 C16.3090698,19.1769914 16.8248931,17.7190469 16.8248931,16.1426364 C16.8248931,12.5386827 14.1332186,9.55349661 10.6550413,9.08674209 L10.6550413,1.90266806 L42.0973319,1.90266806 Z M26.2232722,12.9505602 C24.7208654,12.9505602 23.4985514,11.7282462 23.4985514,10.2258394 C23.4985514,8.72343263 24.7208654,7.50121875 26.2232722,7.50121875 C27.725679,7.50121875 28.947993,8.72353277 28.947993,10.2258394 C28.947993,11.7281461 27.725679,12.9505602 26.2232722,12.9505602 Z M30.4864503,19.1563624 L30.4864503,20.3581477 L21.9601942,20.3581477 L21.9601942,19.1563624 C21.9601942,16.8056661 23.872676,14.8932844 26.2232722,14.8932844 C28.5738684,14.8932844 30.4864503,16.8056661 30.4864503,19.1563624 Z M4.4847889,16.1426364 C4.4847889,13.2650011 6.82587173,10.9239183 9.70340682,10.9239183 C12.5810421,10.9239183 14.9221249,13.2650011 14.9221249,16.1426364 C14.9221249,19.0202716 12.5810421,21.3613544 9.70340682,21.3613544 C6.82587173,21.3613544 4.4847889,19.0202716 4.4847889,16.1426364 Z M16.5232701,24.219262 C15.7025192,23.4075237 14.7383672,22.7404884 13.6722723,22.2608157 L42.0972318,22.2608157 L42.0972318,24.219262 L16.5232701,24.219262 Z" id="Shape"></path>
                        </g>
                    </g>
                </g>
            </g>
        </g>
    </g>
</svg>