<svg xmlns="http://www.w3.org/2000/svg" width="40" height="40" viewBox="0 0 40 40">
    <g fill="none" fill-rule="evenodd">
        <circle cx="20" cy="20" r="20" fill="#FFF"/>
        <path fill="#E83232" d="M23.501 20.195l-5.473 2.95v-5.922l2.48 1.349 2.993 1.623zm6.537-3.992s-.208-1.459-.812-2.095c-.767-.834-1.634-.844-2.018-.9C24.378 13 20.134 13 20.134 13h-.022s-4.233 0-7.063.208c-.405.056-1.261.066-2.029.9-.603.636-.81 2.095-.81 2.095s-.21 1.71-.21 3.4v1.612c0 1.71.21 3.4.21 3.4s.207 1.459.81 2.105c.768.845 1.778.812 2.238.9 1.612.164 6.876.22 6.876.22s4.245-.023 7.074-.22c.384-.055 1.25-.055 2.018-.9.604-.646.812-2.105.812-2.105s.197-1.69.197-3.4v-1.613c0-1.688-.197-3.4-.197-3.4z"/>
    </g>
</svg>
