<?xml version="1.0" encoding="UTF-8" standalone="no"?>
<svg width="702px" height="422px" viewBox="0 0 702 422" version="1.1" xmlns="http://www.w3.org/2000/svg" xmlns:xlink="http://www.w3.org/1999/xlink">
    <!-- Generator: Sketch 50.2 (55047) - http://www.bohemiancoding.com/sketch -->
    <title>path</title>
    <desc>Created with Sketch.</desc>
    <defs></defs>
    <g id="Page-1" stroke="none" stroke-width="1" fill="none" fill-rule="evenodd">
        <g id="Powercode-Academy-Landing-333" transform="translate(-500.000000, -2359.000000)" stroke="#8DCEFF">
            <g id="FEATURES" transform="translate(0.000000, 2105.000000)">
                <g id="icons" transform="translate(390.000000, 165.000000)">
                    <path d="M810.76763,508.754524 C810.593866,509.038831 810.422403,509.324697 810.253265,509.612096 L712.365811,451.026089 C712.538356,450.741042 712.708595,450.454443 712.876502,450.166318 L810.76763,508.754524 Z M609.902014,388.535702 C609.727032,388.819269 609.554344,389.104402 609.383977,389.391076 L512.23237,331.245476 C512.406134,330.961169 512.577597,330.675303 512.746735,330.387904 L609.902014,388.535702 Z M409.76763,268.754524 C409.593866,269.038831 409.422403,269.324697 409.253265,269.612096 L311.365811,211.026089 C311.538356,210.741042 311.708595,210.454443 311.876502,210.166318 L409.76763,268.754524 Z M208.902014,148.535702 C208.727032,148.819269 208.554344,149.104402 208.383977,149.391076 L111.23237,91.2454758 C111.406134,90.9611686 111.577597,90.6753026 111.746735,90.3879036 L208.902014,148.535702 Z" id="path"></path>
                </g>
            </g>
        </g>
    </g>
</svg>