<svg xmlns="http://www.w3.org/2000/svg" width="34" height="40" viewBox="0 0 34 40">
    <g fill="#AAC148" fill-rule="nonzero">
        <path d="M26.991 13.178H6.741a.816.816 0 0 0-.815.816v16.98c0 .45.365.816.816.816h3.61v5.722a2.404 2.404 0 0 0 4.808 0V31.79h3.363v5.722a2.404 2.404 0 0 0 4.808 0V31.79h3.66c.45 0 .816-.365.816-.816v-16.98a.816.816 0 0 0-.816-.816zM2.498 13.174a2.404 2.404 0 0 0-2.404 2.404v9.765a2.404 2.404 0 0 0 4.808 0v-9.765a2.404 2.404 0 0 0-2.404-2.404zM31.235 13.174a2.404 2.404 0 0 0-2.404 2.404v9.765a2.404 2.404 0 0 0 4.808 0v-9.765a2.404 2.404 0 0 0-2.404-2.404zM6.906 11.987h19.873a.817.817 0 0 0 .8-.985 10.985 10.985 0 0 0-5.36-7.299l1.7-3.065a.43.43 0 0 0-.753-.416L21.455 3.31a10.928 10.928 0 0 0-4.612-1.014c-1.648 0-3.21.363-4.612 1.014L10.519.221a.43.43 0 0 0-.752.417l1.7 3.065a10.986 10.986 0 0 0-5.36 7.3.817.817 0 0 0 .799.984zM22.773 7.42a.924.924 0 1 1-1.849 0 .924.924 0 0 1 1.849 0zm-10.936-.924a.924.924 0 1 1 0 1.848.924.924 0 0 1 0-1.848z"/>
    </g>
</svg>
