<?xml version="1.0" encoding="UTF-8" standalone="no"?>
<svg width="212px" height="63px" viewBox="0 0 212 63" version="1.1" xmlns="http://www.w3.org/2000/svg" xmlns:xlink="http://www.w3.org/1999/xlink">
    <!-- Generator: Sketch 50 (54983) - http://www.bohemiancoding.com/sketch -->
    <title>Group 8</title>
    <desc>Created with Sketch.</desc>
    <defs>
        <linearGradient x1="0.112355604%" y1="49.8979271%" x2="100.035775%" y2="49.8979271%" id="linearGradient-1">
            <stop stop-color="#7689C4" offset="0%"></stop>
            <stop stop-color="#54B5C3" offset="100%"></stop>
        </linearGradient>
        <path d="M27.6502111,30.6669049 L28.3256936,30.6669049 C28.8210474,30.6669049 29.1813048,30.5768406 29.3614334,30.3516798 C29.5415621,30.1265189 29.6766586,29.7662616 29.7216908,29.1808435 C29.7216908,28.9556826 29.7667229,28.775554 29.7667229,28.5954253 C29.7667229,28.505361 29.7667229,28.4152966 29.7667229,28.3252323 C29.7667229,28.1000715 29.6316264,27.9199428 29.4965299,27.8298785 C29.3164013,27.694782 29.0462083,27.6497498 28.6859509,27.6497498 L27.9654363,27.6497498 L27.6502111,30.6669049 Z M44.6273377,31.4774839 C44.1319838,31.0721944 43.63663,30.6669049 43.096244,30.2616154 C42.6909545,29.9463903 42.2406329,29.6311651 41.8353434,29.31594 C41.475086,27.0643317 40.6194749,24.992852 39.3585742,23.1915654 C39.3585742,24.0021444 39.2685099,25.4431737 39.0433491,27.3345247 C38.9532848,27.964975 38.8632204,28.6854896 38.7281239,29.4060043 C38.4579309,30.8920658 38.0976736,32.5132237 37.6023198,34.2694782 C37.4672233,34.764832 37.3321268,35.2601858 37.1519981,35.7555397 C37.1519981,35.7555397 37.1519981,35.575411 37.1519981,35.2151537 C37.1519981,34.9899929 37.1519981,34.764832 37.1519981,34.5396712 C37.1970303,33.5039314 37.1970303,32.4681916 37.1970303,31.4324518 C37.1970303,30.3967119 37.1970303,29.3609721 37.1519981,28.3702645 C37.1519981,27.6047177 37.106966,26.7941387 37.0619338,26.0285919 C36.9718695,24.0471766 36.7917408,22.1558256 36.6116121,20.3095068 C36.6116121,20.3095068 36.56658,19.9042173 36.5215478,19.7240886 C36.4765156,19.4088635 36.4314835,19.0936383 36.3864513,18.7784132 L39.3135421,17.7877055 C40.2141854,19.4088635 41.8803755,20.5796998 43.8167587,20.7598284 C43.9968873,20.7598284 44.2220482,20.8048606 44.4021768,20.8048606 C47.1941711,20.8048606 49.5358437,18.8684775 50.1212619,16.2566119 C50.2113262,15.8513224 50.2563584,15.4010007 50.2563584,14.9506791 C50.2563584,14.5453896 50.2113262,14.1401001 50.1212619,13.7798427 C49.7159724,11.7533953 48.2299109,10.0872051 46.2484956,9.41172266 C45.6630775,9.231594 45.0326271,9.0964975 44.3571447,9.0964975 C41.1148287,9.0964975 38.5029631,11.7083631 38.5029631,14.9506791 C38.5029631,15.3109364 38.5479953,15.6711937 38.5930274,16.031451 C37.7824484,16.301644 36.9718695,16.6168692 36.1162583,16.9320944 C34.5401325,6.88992137 31.3428487,0 27.6952433,0 C24.0476379,0 20.8503541,6.84488921 19.2742283,16.8870622 C9.81747346,13.2394568 2.29710177,12.5639743 0.45078297,15.7162259 C-1.39553583,18.8684775 2.92755209,25.0378842 10.8532133,31.4774839 C10.9432776,31.5225161 11.0333419,31.6125804 11.0783741,31.6576126 C10.9883098,31.6125804 10.8982454,31.5225161 10.8532133,31.4774839 C2.92755209,37.8720515 -1.39553583,43.996426 0.405750805,47.1937098 C2.2520696,50.3909936 9.7724413,49.7155111 19.2742283,46.0679056 C20.8503541,56.1100786 24.0476379,63 27.6952433,63 C31.3428487,63 34.5401325,56.1551108 36.1162583,46.1129378 C45.5730131,49.7605432 53.0933848,50.4360257 54.9397036,47.2837741 C56.8760868,44.0414582 52.5079667,37.8720515 44.6273377,31.4774839 Z M42.1956007,16.0764832 L42.4657937,13.5096497 C42.5108259,13.1043603 42.555858,12.7891351 42.6909545,12.4739099 C42.7810189,12.2037169 42.9161154,11.9335239 43.096244,11.7083631 C43.2763727,11.4832023 43.5015335,11.3481058 43.8167587,11.2130093 C44.0869517,11.122945 44.447209,11.0328806 44.8524985,11.0328806 C45.2127558,11.0328806 45.527981,11.0779128 45.798174,11.1679771 C46.068367,11.2580415 46.2484956,11.393138 46.3835921,11.6182988 C46.5186886,11.7984274 46.6087529,12.0235883 46.6537851,12.2487491 C46.6988173,12.3838456 46.6988173,12.5189421 46.6988173,12.6990708 C46.6988173,12.8341673 46.6988173,12.9692638 46.6988173,13.1043603 L46.6087529,13.7348106 L45.1677236,13.7348106 L45.257788,13.0593281 C45.257788,12.9692638 45.257788,12.9242316 45.257788,12.8791994 C45.257788,12.8341673 45.257788,12.7891351 45.257788,12.6990708 C45.257788,12.6090064 45.257788,12.5639743 45.257788,12.5189421 C45.257788,12.4739099 45.257788,12.4288778 45.257788,12.3838456 C45.257788,12.3388134 45.257788,12.2937813 45.2127558,12.2487491 C45.2127558,12.2037169 45.1677236,12.2037169 45.1677236,12.1586848 C45.1226915,12.1136526 45.1226915,12.1136526 45.0776593,12.0686204 C45.0326271,12.0686204 44.987595,12.0235883 44.9425628,12.0235883 C44.8975306,12.0235883 44.8074663,12.0235883 44.7624341,12.0235883 C44.6723698,12.0235883 44.5823055,12.0235883 44.4922412,12.0686204 C44.4021768,12.1136526 44.3571447,12.1136526 44.3121125,12.2037169 C44.2670803,12.2487491 44.2220482,12.2937813 44.177016,12.3838456 C44.1319838,12.4288778 44.1319838,12.5189421 44.0869517,12.6090064 C44.0419195,12.6990708 44.0419195,12.7891351 44.0419195,12.8791994 C44.0419195,12.9692638 43.9968873,13.0593281 43.9968873,13.1493924 L43.6816622,16.3466762 C43.6816622,16.4817727 43.6816622,16.571837 43.6816622,16.7069335 C43.6816622,16.8870622 43.7266943,17.0671909 43.7717265,17.1572552 C43.8617908,17.3373838 43.9968873,17.4274482 44.2670803,17.4274482 C44.3571447,17.4274482 44.447209,17.4274482 44.5372733,17.382416 C44.6273377,17.3373838 44.6723698,17.3373838 44.717402,17.2473195 C44.7624341,17.2022873 44.8074663,17.1572552 44.8524985,17.0671909 C44.8975306,17.0221587 44.8975306,16.9320944 44.9425628,16.84203 C44.9425628,16.7519657 44.987595,16.6619014 44.987595,16.6168692 C44.987595,16.571837 44.987595,16.4367405 45.0326271,16.3466762 L45.1226915,15.6711937 L46.5186886,15.6711937 L46.4736565,16.2566119 C46.4286243,16.571837 46.3835921,16.8870622 46.2935278,17.1572552 C46.2034635,17.4274482 46.068367,17.652609 45.8882383,17.8327377 C45.7081096,18.0578985 45.4829488,18.192995 45.2127558,18.2830593 C44.9425628,18.3731237 44.5823055,18.463188 44.2220482,18.463188 C43.906823,18.463188 43.63663,18.4181558 43.4114692,18.3280915 C43.1863083,18.2380272 43.0061797,18.1479628 42.826051,18.0128663 C42.6909545,17.8777698 42.555858,17.6976412 42.5108259,17.5175125 C42.4207615,17.3373838 42.3757294,17.112223 42.3757294,16.84203 C42.3757294,16.7519657 42.3757294,16.7069335 42.3757294,16.6168692 C42.1956007,16.4817727 42.1956007,16.301644 42.1956007,16.0764832 Z M3.55800241,17.382416 C4.99903172,14.9506791 11.1234063,15.6261615 19.0940996,18.733381 C19.0040353,19.273767 18.9590031,19.7691208 18.913971,20.3095068 C17.2027487,21.7055039 15.8067515,23.4617584 14.861076,25.4882059 C15.5815907,25.0829164 16.8424913,24.452466 18.5987458,23.7319514 C19.184164,23.4617584 19.8596464,23.2365976 20.5351289,22.9664046 C21.9311261,22.4710508 23.552284,21.9306648 25.3085385,21.4803431 C25.8038923,21.3452466 26.2992462,21.2551823 26.7946,21.1200858 C26.7946,21.1200858 27.1098251,20.9399571 27.7853076,20.624732 C27.875372,20.5796998 27.9654363,20.5346676 28.0555006,20.4896355 C27.9654363,20.5346676 27.875372,20.5796998 27.7853076,20.624732 C27.1098251,20.9849893 26.4343427,21.3452466 25.713828,21.7055039 C25.3535707,21.8856326 24.9933133,22.1107934 24.5880239,22.2909221 C24.4979595,22.3359543 24.4078952,22.3809864 24.2727987,22.4710508 C23.822477,22.6962116 23.4171875,22.9664046 22.9668659,23.1915654 C22.0662226,23.7319514 21.1655793,24.2273052 20.3099681,24.7676912 C20.1298394,24.8577555 19.9947429,24.9478199 19.8146143,25.0829164 C19.6795178,25.1729807 19.5444213,25.263045 19.4093248,25.3531094 C19.0490675,25.5782702 18.6888101,25.803431 18.3285528,26.0285919 C16.8424913,26.9742673 15.2213334,28.1000715 13.6452076,29.2709078 C13.3299824,29.4960686 13.0147572,29.7212294 12.7445642,29.9463903 C12.6995321,29.9463903 12.6995321,29.9914224 12.6544999,29.9914224 C12.5644356,30.0814868 12.4743712,30.1265189 12.3843069,30.2165833 C12.4743712,30.3066476 12.6094677,30.3967119 12.6995321,30.4867763 C12.6094677,30.3967119 12.4743712,30.3066476 12.3843069,30.2165833 C5.8096107,24.8577555 2.11697311,19.8591851 3.55800241,17.382416 Z M29.8567873,21.7055039 C29.1813048,22.0207291 28.5058223,22.3809864 27.7853076,22.7412437 C27.3800181,22.9664046 26.9296965,23.1915654 26.524407,23.4167262 C26.9296965,23.1915654 27.3800181,22.9664046 27.7853076,22.7412437 C28.5058223,22.3809864 29.1813048,22.0207291 29.8567873,21.7055039 C31.1627201,21.0750536 32.4686529,20.4446033 33.7295535,19.9042173 C32.4686529,20.4446033 31.1627201,21.0750536 29.8567873,21.7055039 Z M31.7931704,28.5954253 C31.7931704,28.775554 31.7931704,29.0007148 31.7481382,29.2258756 C31.7031061,29.7662616 31.5680096,30.2616154 31.3878809,30.6218728 C31.2077522,31.0271623 30.9825914,31.2973553 30.6673662,31.5225161 C30.3521411,31.7476769 30.0369159,31.9278056 29.6766586,32.0178699 C29.3164013,32.1079342 28.9111118,32.1529664 28.4607901,32.1529664 L27.4700825,32.1529664 L26.9747286,36.8363117 L24.8131847,36.8363117 L25.9389888,26.1186562 L29.2263369,26.1186562 C30.9825914,26.1186562 31.7931704,26.9292352 31.7931704,28.5954253 Z M18.4186171,28.2802001 C18.373585,28.2802001 18.373585,28.3252323 18.3285528,28.3252323 C18.2835206,28.3702645 18.2384885,28.4152966 18.1484241,28.4603288 C18.1934563,28.4152966 18.2384885,28.3702645 18.3285528,28.3252323 C18.3285528,28.3252323 18.373585,28.2802001 18.4186171,28.2802001 Z M27.7853076,59.4424589 C24.9482812,59.4424589 22.4715121,53.7233738 21.1655793,45.3023588 C21.6159009,45.1222302 22.1112547,44.8970693 22.5615764,44.7169407 C22.0211904,44.4917798 21.4808044,44.266619 20.9404184,43.9513939 C20.7152576,43.8162974 20.5351289,43.726233 20.3099681,43.5911365 C19.8596464,43.7712652 19.454357,43.9513939 19.0490675,44.0864904 C11.0783741,47.1486776 4.90896739,47.8691923 3.46793808,45.3924232 C2.07194094,42.915654 5.76457854,37.9621158 12.4293391,32.6483202 C12.8346286,32.9635454 13.2849502,33.2787706 13.6902397,33.5939957 C14.2306257,37.196569 16.1219767,40.3938528 18.8689388,42.5553967 C19.3192605,42.915654 19.8146143,43.2759114 20.3099681,43.5911365 C20.5351289,43.726233 20.7152576,43.8162974 20.9404184,43.9513939 C21.4808044,44.2215868 21.9761582,44.4917798 22.5615764,44.7169407 C24.1827344,45.347391 25.9389888,45.7076483 27.7853076,45.7076483 C28.2356293,45.7076483 28.6859509,45.7076483 29.1362726,45.6626162 C28.415758,45.2122945 27.1998895,44.4467477 25.713828,43.3209435 C25.2184742,42.915654 24.633056,42.5103645 24.0476379,42.0150107 C22.9218337,41.0693352 21.6609331,39.9435311 20.4000324,38.6375983 C20.0397751,38.277341 19.6795178,37.9170836 19.3642926,37.5117941 C19.3642926,37.5117941 19.7245499,37.736955 20.4000324,38.1422445 C20.4900968,38.1872766 20.5351289,38.2323088 20.6251933,38.277341 C21.3907401,38.7726948 22.2013191,39.2230164 23.0118981,39.7183703 C23.9125414,40.2587563 24.8131847,40.7541101 25.713828,41.2044317 C26.3893105,41.5646891 27.1098251,41.9249464 27.7853076,42.2852037 C28.8210474,42.8255897 29.8567873,43.3209435 30.8925271,43.8162974 C31.5680096,44.1315225 32.2885242,44.4467477 32.9640067,44.7619728 C33.4143284,44.9421015 33.9096822,45.1222302 34.405036,45.347391 C33.0991032,53.768406 30.6223341,59.4424589 27.7853076,59.4424589 Z M34.5851647,18.9585418 C34.5401325,18.5082202 34.4500682,18.0578985 34.405036,17.6075768 C33.9547144,17.7877055 33.4593605,18.0128663 33.0090389,18.192995 C32.3335564,18.463188 31.6580739,18.7784132 30.9825914,19.0936383 C31.6580739,18.7784132 32.3335564,18.463188 33.0090389,18.192995 C31.3878809,17.5625447 29.6316264,17.2022873 27.7853076,17.2022873 C25.984021,17.2022873 24.2277665,17.5625447 22.6516407,18.1479628 C22.0662226,18.3731237 21.5258366,18.6433167 20.9854506,18.9135096 C21.0304828,18.4181558 21.1205471,17.9678342 21.2106114,17.5175125 C22.5165442,9.0964975 24.9933133,3.4224446 27.8303398,3.4224446 C30.6673662,3.4224446 33.1441354,9.14152966 34.4500682,17.5625447 C34.4951003,18.0128663 34.5401325,18.463188 34.5851647,18.9585418 C34.5851647,19.0486061 34.6301968,19.1386705 34.6301968,19.273767 C34.6301968,19.1386705 34.6301968,19.0486061 34.5851647,18.9585418 Z M52.0126128,45.4824875 C50.5715835,47.9142244 44.447209,47.238742 36.4765156,44.1315225 C36.56658,43.5911365 36.6116121,43.0957827 36.6566443,42.5553967 C39.3585742,40.3938528 41.2499252,37.2416011 41.8353434,33.6390279 C41.9254077,33.0536097 41.9704399,32.4231594 42.015472,31.7927091 C42.3757294,32.1079342 42.7810189,32.3781272 43.1412762,32.6483202 C49.7610046,38.0521801 53.4536422,43.0057184 52.0126128,45.4824875 Z M52.057645,17.5175125 C53.4536422,19.9942816 49.7610046,24.9478199 43.096244,30.2616154 C43.63663,30.6669049 44.1319838,31.0721944 44.6273377,31.4774839 C52.5529988,25.0829164 56.8760868,18.9585418 55.0748001,15.761258 C54.4443498,14.6804861 53.1834492,14.0500357 51.4271947,13.8248749 C51.517259,14.2751966 51.6073234,14.7255182 51.6073234,15.2208721 C51.6073234,15.761258 51.517259,16.301644 51.3821625,16.7969979 C51.6973877,16.9771265 51.9225485,17.2022873 52.057645,17.5175125 Z" id="path-2"></path>
    </defs>
    <g id="Page-1" stroke="none" stroke-width="1" fill="none" fill-rule="evenodd">
        <g id="Powercode-Academy-Landing-Test-Copy" transform="translate(-390.000000, -38.000000)">
            <g id="Group-8" transform="translate(390.000000, 38.000000)">
                <g id="Shape" fill-rule="nonzero">
                    <use fill="url(#linearGradient-1)" fill-rule="evenodd" xlink:href="#path-2"></use>
                    <use fill="#FFFFFF" fill-rule="evenodd" xlink:href="#path-2"></use>
                </g>
                <path d="M89.9868792,46.0329602 L83.5177596,46.0329602 L82.3747197,49 L76.53792,49 L83.9798396,31.976001 L89.6220792,31.976001 L97.0639988,49 L91.1299192,49 L89.9868792,46.0329602 Z M88.4060793,41.8985604 L86.7523194,37.6182407 L85.0985595,41.8985604 L88.4060793,41.8985604 Z M101.684799,48.25824 C100.241805,47.5043163 99.1109361,46.4504603 98.2921587,45.0966402 C97.4733814,43.7428202 97.0639988,42.2066223 97.0639988,40.4880005 C97.0639988,38.7693787 97.4733814,37.2331808 98.2921587,35.8793608 C99.1109361,34.5255408 100.241805,33.4716847 101.684799,32.717761 C103.127792,31.9638372 104.749109,31.586881 106.548798,31.586881 C108.202566,31.586881 109.677965,31.8787181 110.975038,32.462401 C112.272111,33.0460839 113.34218,33.8891687 114.185278,34.9916808 L110.561598,38.2262406 C109.507726,36.8967407 108.267419,36.2320008 106.840638,36.2320008 C105.640846,36.2320008 104.676162,36.6170636 103.946558,37.3872007 C103.216955,38.1573378 102.852158,39.1909274 102.852158,40.4880005 C102.852158,41.7850736 103.216955,42.8186632 103.946558,43.5888003 C104.676162,44.3589375 105.640846,44.7440003 106.840638,44.7440003 C108.267419,44.7440003 109.507726,44.0792603 110.561598,42.7497604 L114.185278,45.9843202 C113.34218,47.0868323 112.272111,47.9299171 110.975038,48.5136 C109.677965,49.0972829 108.202566,49.38912 106.548798,49.38912 C104.749109,49.38912 103.127792,49.0121638 101.684799,48.25824 Z M127.196477,46.0329602 L120.727357,46.0329602 L119.584317,49 L113.747518,49 L121.189437,31.976001 L126.831677,31.976001 L134.273597,49 L128.339517,49 L127.196477,46.0329602 Z M125.615677,41.8985604 L123.961917,37.6182407 L122.308157,41.8985604 L125.615677,41.8985604 Z M135.197757,31.976001 L143.588156,31.976001 C145.485125,31.976001 147.159135,32.3205309 148.610236,33.009601 C150.061336,33.698671 151.188152,34.6836211 151.990716,35.9644808 C152.793279,37.2453404 153.194555,38.7531653 153.194555,40.4880005 C153.194555,42.2228357 152.793279,43.7306606 151.990716,45.0115202 C151.188152,46.2923799 150.061336,47.27733 148.610236,47.9664001 C147.159135,48.6554701 145.485125,49 143.588156,49 L135.197757,49 L135.197757,31.976001 Z M143.344956,44.5251203 C144.577175,44.5251203 145.562126,44.1724838 146.299836,43.4672003 C147.037546,42.7619168 147.406396,41.7688602 147.406396,40.4880005 C147.406396,39.2071408 147.037546,38.2140842 146.299836,37.5088007 C145.562126,36.8035172 144.577175,36.4508807 143.344956,36.4508807 L140.937276,36.4508807 L140.937276,44.5251203 L143.344956,44.5251203 Z M169.440314,44.6710403 L169.440314,49 L155.286075,49 L155.286075,31.976001 L169.124155,31.976001 L169.124155,36.3049608 L160.928315,36.3049608 L160.928315,38.2992006 L168.127035,38.2992006 L168.127035,42.4336004 L160.928315,42.4336004 L160.928315,44.6710403 L169.440314,44.6710403 Z M186.853433,49 L186.804793,41.2419205 L183.108154,47.4678401 L180.578874,47.4678401 L176.882234,41.5094404 L176.882234,49 L171.653434,49 L171.653434,31.976001 L176.371514,31.976001 L181.916474,41.0473605 L187.315513,31.976001 L192.033593,31.976001 L192.082233,49 L186.853433,49 Z M204.971832,42.8227204 L204.971832,49 L199.232313,49 L199.232313,42.7497604 L192.811833,31.976001 L198.867513,31.976001 L202.345273,37.8614407 L205.847352,31.976001 L211.392312,31.976001 L204.971832,42.8227204 Z" id="ACADEMY" fill="#FFFFFF"></path>
                <path d="M86.2511993,13.7888007 C87.2240041,14.6080048 87.7103992,15.7343934 87.7103992,17.1680005 C87.7103992,18.6016076 87.2240041,19.7247963 86.2511993,20.5376003 C85.2783945,21.3504043 83.934408,21.7568003 82.2191996,21.7568003 L78.6095998,21.7568003 L78.6095998,26 L77.1887999,26 L77.1887999,12.5600008 L82.2191996,12.5600008 C83.934408,12.5600008 85.2783945,12.9695967 86.2511993,13.7888007 Z M85.2335994,19.6352004 C85.9376029,19.0527975 86.2895993,18.2304058 86.2895993,17.1680005 C86.2895993,16.0799952 85.9376029,15.2448036 85.2335994,14.6624007 C84.5295959,14.0799978 83.5120061,13.7888007 82.1807996,13.7888007 L78.6095998,13.7888007 L78.6095998,20.5088003 L82.1807996,20.5088003 C83.5120061,20.5088003 84.5295959,20.2176033 85.2335994,19.6352004 Z M93.2303989,25.2224 C92.1487936,24.6271971 91.3040021,23.8112053 90.6959991,22.7744002 C90.0879961,21.7375951 89.7839991,20.5728068 89.7839991,19.2800004 C89.7839991,17.987194 90.0879961,16.8224057 90.6959991,15.7856006 C91.3040021,14.7487955 92.1487936,13.9328037 93.2303989,13.3376008 C94.3120043,12.7423978 95.5183921,12.4448008 96.8495987,12.4448008 C98.1808053,12.4448008 99.3807932,12.7391978 100.449598,13.3280008 C101.518404,13.9168037 102.359995,14.7327955 102.974398,15.7760006 C103.588801,16.8192058 103.895998,17.987194 103.895998,19.2800004 C103.895998,20.5728068 103.588801,21.740795 102.974398,22.7840002 C102.359995,23.8272053 101.518404,24.6431971 100.449598,25.232 C99.3807932,25.820803 98.1808053,26.1152 96.8495987,26.1152 C95.5183921,26.1152 94.3120043,25.817603 93.2303989,25.2224 Z M99.7295985,24.1280001 C100.587203,23.6479977 101.259196,22.9824044 101.745598,22.1312002 C102.232001,21.279996 102.475198,20.3296056 102.475198,19.2800004 C102.475198,18.2303952 102.232001,17.2800048 101.745598,16.4288006 C101.259196,15.5775964 100.587203,14.9120031 99.7295985,14.4320007 C98.8719943,13.9519983 97.9120039,13.7120007 96.8495987,13.7120007 C95.7871934,13.7120007 94.8240031,13.9519983 93.9599989,14.4320007 C93.0959946,14.9120031 92.4176014,15.5775964 91.924799,16.4288006 C91.4319966,17.2800048 91.185599,18.2303952 91.185599,19.2800004 C91.185599,20.3296056 91.4319966,21.279996 91.924799,22.1312002 C92.4176014,22.9824044 93.0959946,23.6479977 93.9599989,24.1280001 C94.8240031,24.6080025 95.7871934,24.8480001 96.8495987,24.8480001 C97.9120039,24.8480001 98.8719943,24.6080025 99.7295985,24.1280001 Z M125.131197,12.5600008 L120.599997,26 L119.102397,26 L115.166398,14.5376007 L111.211198,26 L109.732798,26 L105.201598,12.5600008 L106.660798,12.5600008 L110.539198,24.1184001 L114.551998,12.5600008 L115.876798,12.5600008 L119.831997,24.1760001 L123.767997,12.5600008 L125.131197,12.5600008 Z M137.227196,24.7712001 L137.227196,26 L127.723197,26 L127.723197,12.5600008 L136.939196,12.5600008 L136.939196,13.7888007 L129.143997,13.7888007 L129.143997,18.5696004 L136.094396,18.5696004 L136.094396,19.7792004 L129.143997,19.7792004 L129.143997,24.7712001 L137.227196,24.7712001 Z M149.745596,26 L146.673596,21.6800003 C146.327994,21.7184004 145.969598,21.7376003 145.598396,21.7376003 L141.988796,21.7376003 L141.988796,26 L140.567996,26 L140.567996,12.5600008 L145.598396,12.5600008 C147.313604,12.5600008 148.657591,12.9695967 149.630396,13.7888007 C150.6032,14.6080048 151.089595,15.7343934 151.089595,17.1680005 C151.089595,18.2176057 150.823998,19.1039968 150.292796,19.8272004 C149.761593,20.5504039 149.003201,21.0719987 148.017596,21.3920003 L151.300795,26 L149.745596,26 Z M148.612796,19.6448004 C149.316799,19.0559975 149.668796,18.2304058 149.668796,17.1680005 C149.668796,16.0799952 149.316799,15.2448036 148.612796,14.6624007 C147.908792,14.0799978 146.891202,13.7888007 145.559996,13.7888007 L141.988796,13.7888007 L141.988796,20.5280003 L145.559996,20.5280003 C146.891202,20.5280003 147.908792,20.2336033 148.612796,19.6448004 Z M156.686395,25.232 C155.61759,24.6431971 154.779198,23.8272053 154.171195,22.7840002 C153.563192,21.740795 153.259195,20.5728068 153.259195,19.2800004 C153.259195,17.987194 153.563192,16.8192058 154.171195,15.7760006 C154.779198,14.7327955 155.62079,13.9168037 156.695995,13.3280008 C157.7712,12.7391978 158.974388,12.4448008 160.305595,12.4448008 C161.304,12.4448008 162.225591,12.6111991 163.070395,12.9440008 C163.915199,13.2768024 164.631992,13.7631975 165.220795,14.4032007 L164.318395,15.3056006 C163.268789,14.2431954 161.944003,13.7120007 160.343995,13.7120007 C159.28159,13.7120007 158.315199,13.9551983 157.444795,14.4416007 C156.574391,14.9280031 155.892798,15.5935964 155.399995,16.4384006 C154.907193,17.2832047 154.660795,18.2303952 154.660795,19.2800004 C154.660795,20.3296056 154.907193,21.2767961 155.399995,22.1216002 C155.892798,22.9664044 156.574391,23.6319977 157.444795,24.1184001 C158.315199,24.6048025 159.28159,24.8480001 160.343995,24.8480001 C161.956803,24.8480001 163.28159,24.3104055 164.318395,23.2352002 L165.220795,24.1376001 C164.631992,24.7776033 163.911999,25.2671983 163.060795,25.6064 C162.209591,25.9456017 161.2848,26.1152 160.286395,26.1152 C158.955188,26.1152 157.7552,25.820803 156.686395,25.232 Z M170.222394,25.2224 C169.140789,24.6271971 168.295997,23.8112053 167.687994,22.7744002 C167.079991,21.7375951 166.775995,20.5728068 166.775995,19.2800004 C166.775995,17.987194 167.079991,16.8224057 167.687994,15.7856006 C168.295997,14.7487955 169.140789,13.9328037 170.222394,13.3376008 C171.304,12.7423978 172.510388,12.4448008 173.841594,12.4448008 C175.172801,12.4448008 176.372789,12.7391978 177.441594,13.3280008 C178.510399,13.9168037 179.351991,14.7327955 179.966394,15.7760006 C180.580797,16.8192058 180.887994,17.987194 180.887994,19.2800004 C180.887994,20.5728068 180.580797,21.740795 179.966394,22.7840002 C179.351991,23.8272053 178.510399,24.6431971 177.441594,25.232 C176.372789,25.820803 175.172801,26.1152 173.841594,26.1152 C172.510388,26.1152 171.304,25.817603 170.222394,25.2224 Z M176.721594,24.1280001 C177.579198,23.6479977 178.251191,22.9824044 178.737594,22.1312002 C179.223996,21.279996 179.467194,20.3296056 179.467194,19.2800004 C179.467194,18.2303952 179.223996,17.2800048 178.737594,16.4288006 C178.251191,15.5775964 177.579198,14.9120031 176.721594,14.4320007 C175.86399,13.9519983 174.903999,13.7120007 173.841594,13.7120007 C172.779189,13.7120007 171.815999,13.9519983 170.951994,14.4320007 C170.08799,14.9120031 169.409597,15.5775964 168.916794,16.4288006 C168.423992,17.2800048 168.177594,18.2303952 168.177594,19.2800004 C168.177594,20.3296056 168.423992,21.279996 168.916794,22.1312002 C169.409597,22.9824044 170.08799,23.6479977 170.951994,24.1280001 C171.815999,24.6080025 172.779189,24.8480001 173.841594,24.8480001 C174.903999,24.8480001 175.86399,24.6080025 176.721594,24.1280001 Z M184.075193,12.5600008 L189.547193,12.5600008 C190.968,12.5600008 192.222388,12.8447979 193.310393,13.4144008 C194.398398,13.9840036 195.24319,14.7775956 195.844793,15.7952006 C196.446396,16.8128056 196.747193,17.974394 196.747193,19.2800004 C196.747193,20.5856069 196.446396,21.7471952 195.844793,22.7648002 C195.24319,23.7824052 194.398398,24.5759972 193.310393,25.1456001 C192.222388,25.7152029 190.968,26 189.547193,26 L184.075193,26 L184.075193,12.5600008 Z M189.470393,24.7712001 C190.647999,24.7712001 191.678389,24.5376024 192.561593,24.0704001 C193.444797,23.6031978 194.12959,22.9568043 194.615993,22.1312002 C195.102395,21.3055962 195.345593,20.3552057 195.345593,19.2800004 C195.345593,18.2047951 195.102395,17.2544046 194.615993,16.4288006 C194.12959,15.6031965 193.444797,14.956803 192.561593,14.4896007 C191.678389,14.0223984 190.647999,13.7888007 189.470393,13.7888007 L185.495993,13.7888007 L185.495993,24.7712001 L189.470393,24.7712001 Z M209.438392,24.7712001 L209.438392,26 L199.934393,26 L199.934393,12.5600008 L209.150392,12.5600008 L209.150392,13.7888007 L201.355192,13.7888007 L201.355192,18.5696004 L208.305592,18.5696004 L208.305592,19.7792004 L201.355192,19.7792004 L201.355192,24.7712001 L209.438392,24.7712001 Z" id="POWERCODE" fill="#D6F1FF"></path>
            </g>
        </g>
    </g>
</svg>