<svg xmlns="http://www.w3.org/2000/svg" xmlns:xlink="http://www.w3.org/1999/xlink" width="202" height="64" viewBox="0 0 202 64">
    <defs>
        <linearGradient id="a" x1=".112%" x2="100.036%" y1="49.898%" y2="49.898%">
            <stop offset="0%" stop-color="#7689C4"/>
            <stop offset="100%" stop-color="#54B5C3"/>
        </linearGradient>
        <path id="b" d="M27.75 30.777h.678c.497 0 .858-.09 1.039-.316.18-.226.316-.588.362-1.175 0-.226.045-.407.045-.588v-.27a.613.613 0 0 0-.271-.498c-.181-.136-.452-.18-.814-.18h-.723l-.316 3.027zm17.038.814a45.66 45.66 0 0 0-1.537-1.22c-.407-.317-.859-.633-1.265-.95a14.732 14.732 0 0 0-2.486-6.146c0 .813-.09 2.26-.316 4.158-.09.633-.181 1.356-.317 2.079a52.535 52.535 0 0 1-1.13 4.88c-.135.498-.27.995-.451 1.492v-.542-.678c.045-1.04.045-2.08.045-3.119 0-1.039 0-2.078-.045-3.073 0-.768-.046-1.582-.09-2.35-.091-1.988-.272-3.887-.453-5.74 0 0-.045-.406-.09-.587l-.136-.95 2.938-.993c.904 1.627 2.576 2.802 4.52 2.982.18 0 .406.046.587.046a5.87 5.87 0 0 0 5.74-4.565c.09-.407.135-.859.135-1.31 0-.407-.045-.814-.136-1.176-.406-2.033-1.898-3.706-3.886-4.383-.588-.181-1.22-.317-1.898-.317a5.864 5.864 0 0 0-5.876 5.875c0 .362.046.724.09 1.085-.813.271-1.626.588-2.485.904C34.664 6.915 31.456 0 27.795 0c-3.66 0-6.87 6.87-8.451 16.948-9.491-3.66-17.039-4.339-18.892-1.175-1.853 3.163 2.486 9.355 10.44 15.818.09.045.181.135.226.18-.09-.045-.18-.135-.226-.18C2.938 38.008-1.4 44.155.407 47.363c1.853 3.21 9.4 2.531 18.937-1.13 1.581 10.079 4.79 16.993 8.45 16.993 3.662 0 6.87-6.869 8.452-16.947 9.49 3.66 17.038 4.338 18.891 1.175 1.944-3.254-2.44-9.446-10.35-15.863zm-2.44-15.457l.27-2.576c.046-.407.09-.723.226-1.04.09-.27.226-.542.407-.768.18-.226.407-.361.723-.497.271-.09.633-.18 1.04-.18.361 0 .678.045.949.135.271.09.452.226.587.452.136.18.226.407.271.633.046.135.046.27.046.452v.406l-.09.633H45.33l.09-.678v-.18-.181-.181-.136c0-.045 0-.09-.045-.135 0-.045-.045-.045-.045-.09l-.09-.091c-.045 0-.09-.045-.136-.045h-.18c-.091 0-.181 0-.272.045-.09.045-.135.045-.18.136a.624.624 0 0 0-.136.18c-.045.046-.045.136-.09.226-.046.09-.046.181-.046.271 0 .09-.045.181-.045.272l-.316 3.208v.362c0 .18.045.362.09.452.09.18.226.271.497.271.09 0 .181 0 .271-.045.09-.045.136-.045.181-.136a.624.624 0 0 0 .136-.18c.045-.046.045-.136.09-.226 0-.09.045-.181.045-.226 0-.046 0-.181.046-.272l.09-.677h1.4l-.044.587c-.045.316-.09.633-.181.904-.09.271-.226.497-.407.678-.18.226-.407.361-.678.452a3.25 3.25 0 0 1-.994.18 2.19 2.19 0 0 1-.813-.135 2.435 2.435 0 0 1-.588-.316c-.136-.136-.271-.317-.316-.498a1.51 1.51 0 0 1-.136-.677v-.226c-.18-.136-.18-.317-.18-.543zM3.57 17.444c1.446-2.44 7.592-1.762 15.592 1.357-.09.542-.136 1.04-.181 1.582a14.778 14.778 0 0 0-4.068 5.197c.724-.407 1.989-1.04 3.752-1.763.587-.27 1.265-.497 1.943-.768 1.401-.497 3.028-1.04 4.79-1.491.498-.136.995-.226 1.492-.362 0 0 .316-.18.994-.497l.271-.136-.27.136c-.679.361-1.357.723-2.08 1.085-.361.18-.723.406-1.13.587-.09.045-.18.09-.316.18-.452.227-.859.498-1.31.724-.904.542-1.808 1.04-2.667 1.582-.18.09-.316.18-.497.316l-.407.271-1.085.678a81.055 81.055 0 0 0-4.7 3.254c-.316.226-.632.452-.904.678-.045 0-.045.045-.09.045-.09.09-.18.136-.271.226.09.09.226.181.316.271-.09-.09-.226-.18-.316-.27C5.83 24.946 2.125 19.93 3.57 17.444zm26.393 4.34c-.678.316-1.356.677-2.079 1.039-.407.226-.858.452-1.265.678.407-.226.858-.452 1.265-.678.723-.362 1.401-.723 2.08-1.04 1.31-.632 2.62-1.265 3.886-1.807-1.266.542-2.576 1.175-3.887 1.808zm1.943 6.914c0 .181 0 .407-.045.633-.045.542-.18 1.04-.361 1.401a2.08 2.08 0 0 1-.723.904c-.317.226-.633.407-.995.497a5.04 5.04 0 0 1-1.22.136h-.994l-.497 4.7h-2.17l1.13-10.756h3.3c1.762 0 2.575.813 2.575 2.485zm-13.422-.316c-.045 0-.045.045-.09.045a.624.624 0 0 1-.181.136.624.624 0 0 1 .18-.136s.046-.045.09-.045zm9.4 31.274c-2.847 0-5.333-5.74-6.643-14.19.452-.182.949-.408 1.4-.588-.542-.226-1.084-.452-1.626-.769-.226-.135-.407-.226-.633-.361-.452.18-.859.361-1.265.497-8 3.073-14.191 3.796-15.638 1.31-1.4-2.485 2.305-7.456 8.994-12.79.407.317.859.633 1.265.95.543 3.615 2.44 6.824 5.198 8.993.452.362.949.723 1.446 1.04.226.135.407.226.633.361.542.272 1.04.543 1.627.769a14.42 14.42 0 0 0 5.242.994c.452 0 .904 0 1.356-.045a44.435 44.435 0 0 1-3.435-2.35c-.497-.407-1.084-.814-1.672-1.311a47.812 47.812 0 0 1-3.66-3.39c-.362-.361-.724-.723-1.04-1.13 0 0 .361.227 1.04.633.09.046.135.09.225.136.769.497 1.582.949 2.396 1.446a40.32 40.32 0 0 0 2.711 1.492c.678.361 1.401.723 2.08 1.084 1.039.543 2.078 1.04 3.118 1.537.677.316 1.4.633 2.079.949.451.18.949.361 1.446.587-1.31 8.452-3.797 14.146-6.644 14.146zm6.824-40.63c-.045-.451-.135-.903-.18-1.355-.452.18-.95.407-1.401.587a14.42 14.42 0 0 0-5.243-.994c-1.808 0-3.57.362-5.152.95-.587.225-1.13.496-1.672.768.045-.498.135-.95.226-1.402 1.31-8.45 3.796-14.145 6.643-14.145 2.848 0 5.333 5.74 6.644 14.19.045.453.09.905.135 1.402 0 .09.046.18.046.316 0-.136 0-.226-.046-.316zm17.49 26.62c-1.446 2.44-7.592 1.763-15.591-1.356.09-.542.135-1.04.18-1.582a14.405 14.405 0 0 0 5.198-8.948c.09-.588.135-1.22.18-1.853.362.316.769.588 1.13.859 6.644 5.423 10.35 10.394 8.904 12.88zm.046-28.066c1.4 2.486-2.305 7.458-8.994 12.79.542.407 1.04.814 1.537 1.22 7.954-6.417 12.293-12.563 10.485-15.772-.633-1.085-1.898-1.717-3.66-1.943.09.452.18.903.18 1.4 0 .543-.09 1.085-.226 1.582.316.181.542.407.678.723z"/>
    </defs>
    <g fill="none" fill-rule="evenodd">
        <g fill-rule="evenodd">
            <use fill="url(#a)" xlink:href="#b"/>
            <use fill="#FFF" xlink:href="#b"/>
        </g>
        <text fill="#FFF" font-family="Montserrat-Black, Montserrat" font-size="24.32" font-weight="700">
            <tspan x="67.84" y="46.4">ACADEMY</tspan>
        </text>
        <text fill="#D6F1FF" font-family="Montserrat-Regular, Montserrat" font-size="19.2">
            <tspan x="66.56" y="22.48">POWERCODE</tspan>
        </text>
    </g>
</svg>
