<?xml version="1.0" encoding="UTF-8" standalone="no"?>
<svg width="211px" height="63px" viewBox="0 0 211 63" version="1.1" xmlns="http://www.w3.org/2000/svg" xmlns:xlink="http://www.w3.org/1999/xlink">
    <!-- Generator: Sketch 50 (54983) - http://www.bohemiancoding.com/sketch -->
    <title>Group 8</title>
    <desc>Created with Sketch.</desc>
    <defs>
        <linearGradient x1="0.112355604%" y1="49.8979271%" x2="100.035775%" y2="49.8979271%" id="linearGradient-1">
            <stop stop-color="#7689C4" offset="0%"></stop>
            <stop stop-color="#54B5C3" offset="100%"></stop>
        </linearGradient>
        <path d="M27.6502111,30.6669049 L28.3256936,30.6669049 C28.8210474,30.6669049 29.1813048,30.5768406 29.3614334,30.3516798 C29.5415621,30.1265189 29.6766586,29.7662616 29.7216908,29.1808435 C29.7216908,28.9556826 29.7667229,28.775554 29.7667229,28.5954253 C29.7667229,28.505361 29.7667229,28.4152966 29.7667229,28.3252323 C29.7667229,28.1000715 29.6316264,27.9199428 29.4965299,27.8298785 C29.3164013,27.694782 29.0462083,27.6497498 28.6859509,27.6497498 L27.9654363,27.6497498 L27.6502111,30.6669049 Z M44.6273377,31.4774839 C44.1319838,31.0721944 43.63663,30.6669049 43.096244,30.2616154 C42.6909545,29.9463903 42.2406329,29.6311651 41.8353434,29.31594 C41.475086,27.0643317 40.6194749,24.992852 39.3585742,23.1915654 C39.3585742,24.0021444 39.2685099,25.4431737 39.0433491,27.3345247 C38.9532848,27.964975 38.8632204,28.6854896 38.7281239,29.4060043 C38.4579309,30.8920658 38.0976736,32.5132237 37.6023198,34.2694782 C37.4672233,34.764832 37.3321268,35.2601858 37.1519981,35.7555397 C37.1519981,35.7555397 37.1519981,35.575411 37.1519981,35.2151537 C37.1519981,34.9899929 37.1519981,34.764832 37.1519981,34.5396712 C37.1970303,33.5039314 37.1970303,32.4681916 37.1970303,31.4324518 C37.1970303,30.3967119 37.1970303,29.3609721 37.1519981,28.3702645 C37.1519981,27.6047177 37.106966,26.7941387 37.0619338,26.0285919 C36.9718695,24.0471766 36.7917408,22.1558256 36.6116121,20.3095068 C36.6116121,20.3095068 36.56658,19.9042173 36.5215478,19.7240886 C36.4765156,19.4088635 36.4314835,19.0936383 36.3864513,18.7784132 L39.3135421,17.7877055 C40.2141854,19.4088635 41.8803755,20.5796998 43.8167587,20.7598284 C43.9968873,20.7598284 44.2220482,20.8048606 44.4021768,20.8048606 C47.1941711,20.8048606 49.5358437,18.8684775 50.1212619,16.2566119 C50.2113262,15.8513224 50.2563584,15.4010007 50.2563584,14.9506791 C50.2563584,14.5453896 50.2113262,14.1401001 50.1212619,13.7798427 C49.7159724,11.7533953 48.2299109,10.0872051 46.2484956,9.41172266 C45.6630775,9.231594 45.0326271,9.0964975 44.3571447,9.0964975 C41.1148287,9.0964975 38.5029631,11.7083631 38.5029631,14.9506791 C38.5029631,15.3109364 38.5479953,15.6711937 38.5930274,16.031451 C37.7824484,16.301644 36.9718695,16.6168692 36.1162583,16.9320944 C34.5401325,6.88992137 31.3428487,0 27.6952433,0 C24.0476379,0 20.8503541,6.84488921 19.2742283,16.8870622 C9.81747346,13.2394568 2.29710177,12.5639743 0.45078297,15.7162259 C-1.39553583,18.8684775 2.92755209,25.0378842 10.8532133,31.4774839 C10.9432776,31.5225161 11.0333419,31.6125804 11.0783741,31.6576126 C10.9883098,31.6125804 10.8982454,31.5225161 10.8532133,31.4774839 C2.92755209,37.8720515 -1.39553583,43.996426 0.405750805,47.1937098 C2.2520696,50.3909936 9.7724413,49.7155111 19.2742283,46.0679056 C20.8503541,56.1100786 24.0476379,63 27.6952433,63 C31.3428487,63 34.5401325,56.1551108 36.1162583,46.1129378 C45.5730131,49.7605432 53.0933848,50.4360257 54.9397036,47.2837741 C56.8760868,44.0414582 52.5079667,37.8720515 44.6273377,31.4774839 Z M42.1956007,16.0764832 L42.4657937,13.5096497 C42.5108259,13.1043603 42.555858,12.7891351 42.6909545,12.4739099 C42.7810189,12.2037169 42.9161154,11.9335239 43.096244,11.7083631 C43.2763727,11.4832023 43.5015335,11.3481058 43.8167587,11.2130093 C44.0869517,11.122945 44.447209,11.0328806 44.8524985,11.0328806 C45.2127558,11.0328806 45.527981,11.0779128 45.798174,11.1679771 C46.068367,11.2580415 46.2484956,11.393138 46.3835921,11.6182988 C46.5186886,11.7984274 46.6087529,12.0235883 46.6537851,12.2487491 C46.6988173,12.3838456 46.6988173,12.5189421 46.6988173,12.6990708 C46.6988173,12.8341673 46.6988173,12.9692638 46.6988173,13.1043603 L46.6087529,13.7348106 L45.1677236,13.7348106 L45.257788,13.0593281 C45.257788,12.9692638 45.257788,12.9242316 45.257788,12.8791994 C45.257788,12.8341673 45.257788,12.7891351 45.257788,12.6990708 C45.257788,12.6090064 45.257788,12.5639743 45.257788,12.5189421 C45.257788,12.4739099 45.257788,12.4288778 45.257788,12.3838456 C45.257788,12.3388134 45.257788,12.2937813 45.2127558,12.2487491 C45.2127558,12.2037169 45.1677236,12.2037169 45.1677236,12.1586848 C45.1226915,12.1136526 45.1226915,12.1136526 45.0776593,12.0686204 C45.0326271,12.0686204 44.987595,12.0235883 44.9425628,12.0235883 C44.8975306,12.0235883 44.8074663,12.0235883 44.7624341,12.0235883 C44.6723698,12.0235883 44.5823055,12.0235883 44.4922412,12.0686204 C44.4021768,12.1136526 44.3571447,12.1136526 44.3121125,12.2037169 C44.2670803,12.2487491 44.2220482,12.2937813 44.177016,12.3838456 C44.1319838,12.4288778 44.1319838,12.5189421 44.0869517,12.6090064 C44.0419195,12.6990708 44.0419195,12.7891351 44.0419195,12.8791994 C44.0419195,12.9692638 43.9968873,13.0593281 43.9968873,13.1493924 L43.6816622,16.3466762 C43.6816622,16.4817727 43.6816622,16.571837 43.6816622,16.7069335 C43.6816622,16.8870622 43.7266943,17.0671909 43.7717265,17.1572552 C43.8617908,17.3373838 43.9968873,17.4274482 44.2670803,17.4274482 C44.3571447,17.4274482 44.447209,17.4274482 44.5372733,17.382416 C44.6273377,17.3373838 44.6723698,17.3373838 44.717402,17.2473195 C44.7624341,17.2022873 44.8074663,17.1572552 44.8524985,17.0671909 C44.8975306,17.0221587 44.8975306,16.9320944 44.9425628,16.84203 C44.9425628,16.7519657 44.987595,16.6619014 44.987595,16.6168692 C44.987595,16.571837 44.987595,16.4367405 45.0326271,16.3466762 L45.1226915,15.6711937 L46.5186886,15.6711937 L46.4736565,16.2566119 C46.4286243,16.571837 46.3835921,16.8870622 46.2935278,17.1572552 C46.2034635,17.4274482 46.068367,17.652609 45.8882383,17.8327377 C45.7081096,18.0578985 45.4829488,18.192995 45.2127558,18.2830593 C44.9425628,18.3731237 44.5823055,18.463188 44.2220482,18.463188 C43.906823,18.463188 43.63663,18.4181558 43.4114692,18.3280915 C43.1863083,18.2380272 43.0061797,18.1479628 42.826051,18.0128663 C42.6909545,17.8777698 42.555858,17.6976412 42.5108259,17.5175125 C42.4207615,17.3373838 42.3757294,17.112223 42.3757294,16.84203 C42.3757294,16.7519657 42.3757294,16.7069335 42.3757294,16.6168692 C42.1956007,16.4817727 42.1956007,16.301644 42.1956007,16.0764832 Z M3.55800241,17.382416 C4.99903172,14.9506791 11.1234063,15.6261615 19.0940996,18.733381 C19.0040353,19.273767 18.9590031,19.7691208 18.913971,20.3095068 C17.2027487,21.7055039 15.8067515,23.4617584 14.861076,25.4882059 C15.5815907,25.0829164 16.8424913,24.452466 18.5987458,23.7319514 C19.184164,23.4617584 19.8596464,23.2365976 20.5351289,22.9664046 C21.9311261,22.4710508 23.552284,21.9306648 25.3085385,21.4803431 C25.8038923,21.3452466 26.2992462,21.2551823 26.7946,21.1200858 C26.7946,21.1200858 27.1098251,20.9399571 27.7853076,20.624732 C27.875372,20.5796998 27.9654363,20.5346676 28.0555006,20.4896355 C27.9654363,20.5346676 27.875372,20.5796998 27.7853076,20.624732 C27.1098251,20.9849893 26.4343427,21.3452466 25.713828,21.7055039 C25.3535707,21.8856326 24.9933133,22.1107934 24.5880239,22.2909221 C24.4979595,22.3359543 24.4078952,22.3809864 24.2727987,22.4710508 C23.822477,22.6962116 23.4171875,22.9664046 22.9668659,23.1915654 C22.0662226,23.7319514 21.1655793,24.2273052 20.3099681,24.7676912 C20.1298394,24.8577555 19.9947429,24.9478199 19.8146143,25.0829164 C19.6795178,25.1729807 19.5444213,25.263045 19.4093248,25.3531094 C19.0490675,25.5782702 18.6888101,25.803431 18.3285528,26.0285919 C16.8424913,26.9742673 15.2213334,28.1000715 13.6452076,29.2709078 C13.3299824,29.4960686 13.0147572,29.7212294 12.7445642,29.9463903 C12.6995321,29.9463903 12.6995321,29.9914224 12.6544999,29.9914224 C12.5644356,30.0814868 12.4743712,30.1265189 12.3843069,30.2165833 C12.4743712,30.3066476 12.6094677,30.3967119 12.6995321,30.4867763 C12.6094677,30.3967119 12.4743712,30.3066476 12.3843069,30.2165833 C5.8096107,24.8577555 2.11697311,19.8591851 3.55800241,17.382416 Z M29.8567873,21.7055039 C29.1813048,22.0207291 28.5058223,22.3809864 27.7853076,22.7412437 C27.3800181,22.9664046 26.9296965,23.1915654 26.524407,23.4167262 C26.9296965,23.1915654 27.3800181,22.9664046 27.7853076,22.7412437 C28.5058223,22.3809864 29.1813048,22.0207291 29.8567873,21.7055039 C31.1627201,21.0750536 32.4686529,20.4446033 33.7295535,19.9042173 C32.4686529,20.4446033 31.1627201,21.0750536 29.8567873,21.7055039 Z M31.7931704,28.5954253 C31.7931704,28.775554 31.7931704,29.0007148 31.7481382,29.2258756 C31.7031061,29.7662616 31.5680096,30.2616154 31.3878809,30.6218728 C31.2077522,31.0271623 30.9825914,31.2973553 30.6673662,31.5225161 C30.3521411,31.7476769 30.0369159,31.9278056 29.6766586,32.0178699 C29.3164013,32.1079342 28.9111118,32.1529664 28.4607901,32.1529664 L27.4700825,32.1529664 L26.9747286,36.8363117 L24.8131847,36.8363117 L25.9389888,26.1186562 L29.2263369,26.1186562 C30.9825914,26.1186562 31.7931704,26.9292352 31.7931704,28.5954253 Z M18.4186171,28.2802001 C18.373585,28.2802001 18.373585,28.3252323 18.3285528,28.3252323 C18.2835206,28.3702645 18.2384885,28.4152966 18.1484241,28.4603288 C18.1934563,28.4152966 18.2384885,28.3702645 18.3285528,28.3252323 C18.3285528,28.3252323 18.373585,28.2802001 18.4186171,28.2802001 Z M27.7853076,59.4424589 C24.9482812,59.4424589 22.4715121,53.7233738 21.1655793,45.3023588 C21.6159009,45.1222302 22.1112547,44.8970693 22.5615764,44.7169407 C22.0211904,44.4917798 21.4808044,44.266619 20.9404184,43.9513939 C20.7152576,43.8162974 20.5351289,43.726233 20.3099681,43.5911365 C19.8596464,43.7712652 19.454357,43.9513939 19.0490675,44.0864904 C11.0783741,47.1486776 4.90896739,47.8691923 3.46793808,45.3924232 C2.07194094,42.915654 5.76457854,37.9621158 12.4293391,32.6483202 C12.8346286,32.9635454 13.2849502,33.2787706 13.6902397,33.5939957 C14.2306257,37.196569 16.1219767,40.3938528 18.8689388,42.5553967 C19.3192605,42.915654 19.8146143,43.2759114 20.3099681,43.5911365 C20.5351289,43.726233 20.7152576,43.8162974 20.9404184,43.9513939 C21.4808044,44.2215868 21.9761582,44.4917798 22.5615764,44.7169407 C24.1827344,45.347391 25.9389888,45.7076483 27.7853076,45.7076483 C28.2356293,45.7076483 28.6859509,45.7076483 29.1362726,45.6626162 C28.415758,45.2122945 27.1998895,44.4467477 25.713828,43.3209435 C25.2184742,42.915654 24.633056,42.5103645 24.0476379,42.0150107 C22.9218337,41.0693352 21.6609331,39.9435311 20.4000324,38.6375983 C20.0397751,38.277341 19.6795178,37.9170836 19.3642926,37.5117941 C19.3642926,37.5117941 19.7245499,37.736955 20.4000324,38.1422445 C20.4900968,38.1872766 20.5351289,38.2323088 20.6251933,38.277341 C21.3907401,38.7726948 22.2013191,39.2230164 23.0118981,39.7183703 C23.9125414,40.2587563 24.8131847,40.7541101 25.713828,41.2044317 C26.3893105,41.5646891 27.1098251,41.9249464 27.7853076,42.2852037 C28.8210474,42.8255897 29.8567873,43.3209435 30.8925271,43.8162974 C31.5680096,44.1315225 32.2885242,44.4467477 32.9640067,44.7619728 C33.4143284,44.9421015 33.9096822,45.1222302 34.405036,45.347391 C33.0991032,53.768406 30.6223341,59.4424589 27.7853076,59.4424589 Z M34.5851647,18.9585418 C34.5401325,18.5082202 34.4500682,18.0578985 34.405036,17.6075768 C33.9547144,17.7877055 33.4593605,18.0128663 33.0090389,18.192995 C32.3335564,18.463188 31.6580739,18.7784132 30.9825914,19.0936383 C31.6580739,18.7784132 32.3335564,18.463188 33.0090389,18.192995 C31.3878809,17.5625447 29.6316264,17.2022873 27.7853076,17.2022873 C25.984021,17.2022873 24.2277665,17.5625447 22.6516407,18.1479628 C22.0662226,18.3731237 21.5258366,18.6433167 20.9854506,18.9135096 C21.0304828,18.4181558 21.1205471,17.9678342 21.2106114,17.5175125 C22.5165442,9.0964975 24.9933133,3.4224446 27.8303398,3.4224446 C30.6673662,3.4224446 33.1441354,9.14152966 34.4500682,17.5625447 C34.4951003,18.0128663 34.5401325,18.463188 34.5851647,18.9585418 C34.5851647,19.0486061 34.6301968,19.1386705 34.6301968,19.273767 C34.6301968,19.1386705 34.6301968,19.0486061 34.5851647,18.9585418 Z M52.0126128,45.4824875 C50.5715835,47.9142244 44.447209,47.238742 36.4765156,44.1315225 C36.56658,43.5911365 36.6116121,43.0957827 36.6566443,42.5553967 C39.3585742,40.3938528 41.2499252,37.2416011 41.8353434,33.6390279 C41.9254077,33.0536097 41.9704399,32.4231594 42.015472,31.7927091 C42.3757294,32.1079342 42.7810189,32.3781272 43.1412762,32.6483202 C49.7610046,38.0521801 53.4536422,43.0057184 52.0126128,45.4824875 Z M52.057645,17.5175125 C53.4536422,19.9942816 49.7610046,24.9478199 43.096244,30.2616154 C43.63663,30.6669049 44.1319838,31.0721944 44.6273377,31.4774839 C52.5529988,25.0829164 56.8760868,18.9585418 55.0748001,15.761258 C54.4443498,14.6804861 53.1834492,14.0500357 51.4271947,13.8248749 C51.517259,14.2751966 51.6073234,14.7255182 51.6073234,15.2208721 C51.6073234,15.761258 51.517259,16.301644 51.3821625,16.7969979 C51.6973877,16.9771265 51.9225485,17.2022873 52.057645,17.5175125 Z" id="path-2"></path>
    </defs>
    <g id="Page-1" stroke="none" stroke-width="1" fill="none" fill-rule="evenodd">
        <g id="Powercode-Academy-Landing-Test" transform="translate(-390.000000, -38.000000)">
            <g id="Group-8" transform="translate(390.000000, 38.000000)">
                <g id="Shape" fill-rule="nonzero">
                    <use fill="url(#linearGradient-1)" fill-rule="evenodd" xlink:href="#path-2"></use>
                    <use fill="#FFFFFF" fill-rule="evenodd" xlink:href="#path-2"></use>
                </g>
                <text id="ACADEMY" font-family="Montserrat-Black, Montserrat" font-size="24.3199986" font-weight="700" fill="#FFFFFF">
                    <tspan x="77" y="49">ACADEMY</tspan>
                </text>
                <text id="POWERCODE" font-family="Montserrat-Regular, Montserrat" font-size="19.1999989" font-weight="normal" fill="#D6F1FF">
                    <tspan x="75" y="26">POWERCODE</tspan>
                </text>
            </g>
        </g>
    </g>
</svg>