<?xml version="1.0" encoding="UTF-8" standalone="no"?>
<svg width="53px" height="90px" viewBox="0 0 53 90" version="1.1" xmlns="http://www.w3.org/2000/svg" xmlns:xlink="http://www.w3.org/1999/xlink">
    <!-- Generator: Sketch 50.2 (55047) - http://www.bohemiancoding.com/sketch -->
    <title>pattern</title>
    <desc>Created with Sketch.</desc>
    <defs></defs>
    <g id="Page-1" stroke="none" stroke-width="1" fill="none" fill-rule="evenodd" stroke-linecap="round" stroke-linejoin="round">
        <g id="Powercode-Academy-Landing-features" transform="translate(-157.000000, -576.000000)" stroke="#FFFFFF">
            <g id="pattern" transform="translate(157.000000, 577.000000)">
                <path d="M27,14 L27,74" id="Path-10"></path>
                <path d="M1,58 L1,88" id="Path-11"></path>
                <path d="M1,0 L1,30" id="Path-11-Copy"></path>
                <path d="M1,0 L27,14" id="Path-12"></path>
                <path d="M27,0 L53,14" id="Path-12-Copy-4" transform="translate(40.000000, 7.000000) scale(-1, 1) translate(-40.000000, -7.000000) "></path>
                <path d="M1,30 L27,44" id="Path-12-Copy"></path>
                <path d="M27,30 L53,44" id="Path-12-Copy-5" transform="translate(40.000000, 37.000000) scale(-1, 1) translate(-40.000000, -37.000000) "></path>
                <path d="M1,44 L27,58" id="Path-12-Copy-2" transform="translate(14.000000, 51.000000) scale(-1, 1) translate(-14.000000, -51.000000) "></path>
                <path d="M27,44 L53,58" id="Path-12-Copy-6"></path>
                <path d="M1,74 L27,88" id="Path-12-Copy-3" transform="translate(14.000000, 81.000000) scale(-1, 1) translate(-14.000000, -81.000000) "></path>
                <path d="M27,74 L53,88" id="Path-12-Copy-7"></path>
            </g>
        </g>
    </g>
</svg>