<svg xmlns="http://www.w3.org/2000/svg" width="46" height="47" viewBox="0 0 46 47">
    <g fill="#FFF" fill-rule="nonzero">
        <path d="M34.648 30.74c-1.487-1.469-3.343-1.469-4.821 0a282.133 282.133 0 0 0-3.362 3.37c-.303.313-.56.38-.928.171-.73-.398-1.506-.72-2.207-1.155-3.268-2.055-6.005-4.698-8.43-7.672-1.202-1.477-2.273-3.059-3.02-4.84-.152-.36-.124-.596.17-.89 1.127-1.09 2.225-2.207 3.333-3.324 1.544-1.554 1.544-3.372-.009-4.935-.88-.89-1.762-1.761-2.642-2.652-.91-.909-1.81-1.828-2.728-2.727-1.487-1.45-3.343-1.45-4.82.01-1.137 1.117-2.227 2.263-3.382 3.361-1.07 1.014-1.61 2.255-1.724 3.704-.18 2.358.398 4.584 1.212 6.753 1.667 4.489 4.206 8.476 7.284 12.132 4.158 4.944 9.12 8.856 14.926 11.678 2.614 1.27 5.323 2.245 8.269 2.406 2.026.113 3.788-.398 5.2-1.98.965-1.08 2.055-2.064 3.077-3.097 1.516-1.534 1.525-3.39.02-4.906-1.8-1.809-3.61-3.608-5.418-5.408zM33.436 21.669l3.553-.606a15.845 15.845 0 0 0-4.439-8.555A15.802 15.802 0 0 0 23.5 8l-.5 3.566a12.26 12.26 0 0 1 7.009 3.49 12.225 12.225 0 0 1 3.427 6.613z"/>
        <path d="M38.52 7.478C34.417 3.384 29.228.798 23.5 0L23 3.566c4.949.692 9.435 2.932 12.978 6.46a22.648 22.648 0 0 1 6.364 12.256l3.552-.606c-.934-5.402-3.485-10.304-7.375-14.198z"/>
    </g>
</svg>
